<mxfile host="app.diagrams.net" modified="2022-10-04T07:48:00.306Z" agent="5.0 (Windows NT 10.0; Win64; x64) AppleWebKit/537.36 (KHTML, like Gecko) Chrome/106.0.0.0 Safari/537.36" etag="r58W8PmUBHzZ4I3Yz4Zu" version="20.3.6" type="github">
  <diagram name="Page-1" id="c7488fd3-1785-93aa-aadb-54a6760d102a">
    <mxGraphModel dx="3470" dy="3062" grid="1" gridSize="10" guides="1" tooltips="1" connect="1" arrows="1" fold="1" page="1" pageScale="1" pageWidth="1100" pageHeight="850" background="none" math="0" shadow="0">
      <root>
        <mxCell id="0" />
        <mxCell id="1" parent="0" />
        <mxCell id="NeaglDlFWtQ8QKgBVWSo-34" value="" style="endArrow=none;dashed=1;html=1;rounded=0;" edge="1" parent="1">
          <mxGeometry width="50" height="50" relative="1" as="geometry">
            <mxPoint x="-1000" y="-380" as="sourcePoint" />
            <mxPoint x="-1010" y="-382.4143529411763" as="targetPoint" />
          </mxGeometry>
        </mxCell>
        <mxCell id="NeaglDlFWtQ8QKgBVWSo-35" value="" style="shape=image;verticalLabelPosition=bottom;labelBackgroundColor=default;verticalAlign=top;aspect=fixed;imageAspect=0;image=data:image/png,iVBORw0KGgoAAAANSUhEUgAAC2UAAAXsCAYAAAAc2sA8AAAAAXNSR0IArs4c6QAAAARnQU1BAACxjwv8YQUAAAAJcEhZcwAAFxEAABcRAcom8z8AAP+lSURBVHhe7P0PrGX1fd/9Vqp0G1V6riyliqI+imI1UpRENYNuVCvJdVJU81CHXMswVkjQ4wiLyDWqqPjjaz+oKDZWbbkalRnRUYKpbEflIkGoK2gizFPshhoTYWplSALUDqAAcgxJMIIYkA2Ju+98zl7rsGbNb6299r+z9t7n9ZLewrPP2v/X7xw857t//B0AAAAAAAAAAAAAAAAAAAAAAAAAAAAAAAAAAAAAAAAAAAAAAAAAAAAAAAAAAAAAAAAAAAAAAAAAAAAAAAAAAAAAAAAAAAAAAAAAAAAAAAAAAAAAAAAAAAAAAAAAAAAYwwQAAACApVV/1QIAAAAAAAAcRtXvDQEAAABYQvVXLQAAAAAAAMBhVP3eEAAAAIAlVH/VAgAAAAAAABxG1e8NAQAAAFhC9VctAAAAAAAAwGFU/d4QAAAAgCVUf9UCAAAAAAAAHEbV7w0BAAAAWEL1Vy0AAAAAAADAYVT93hAAAACAJVR/1QIAAAAAAAAcRtXvDQEAAABYQvVXLQAAAAAAAMBhVP3eEAAAAIAlVH/VAgAAAAAAABxG1e8NAQAAAFhC9VctAAAAAAAAwGFU/d4QAAAAgCVUf9UCAAAAAAAAHEbV7w0BAAAAWEL1Vy0AAAAAAADAYVT93hAAAACAJVR/1QIAAAAAAAAcRtXvDQEAAABYQvVXLQAAAAAAAMBhVP3eEAAAAIAlVH/VAgAAAAAAABxG1e8NAQAAAFhC9VctAAAAAAAAwGFU/d4QAAAAgCVUf9UCAAAAAAAAHEbV7w0BAAAAWEL1Vy0AAAAAAADAYVT93hAAAACAJVR/1QIAAAAAAAAcRtXvDQEAABbyyiuvTe64877JZz5391633nbP5Jlnn6u+yrb49osvn/U+5jJguOqvWgAAAAAAAIDDqPq9IcBO+eKXHp589OOfnlx51bG9rrv+5N5lq3ZQ9wMAm+ymk7dPfu4XLj+jyy6/ofoq28L7CMur/qoFAAAAAAAAOIyq3xsC7JT2QFHdqpXuIwGwHb78wKm9D9W895KPTN590TV7/9uHa+bz+utvTM47/4Nn/SzMgC/bJeuh/T6mU498ozoCmKX6qxYAAAAAAADgMKp+bwh0yHBK/Z9wr/8z7hlMeezxp6ojViO32XVfr7zyWnUUQ5UGitKqle4jbYvnnn9hcsed951x3nWV8zPnY4bvoEu+X93zhQeL51DK+ZbzqA7G9O0XXy4OE6cnnny2OopZsq5Lr+Ezzz5XHTGffG8off+46+77935urUp+nuU2c9vXfvj43kB+HvcHrvjk3v/OUHkG9Nf972F5HO3vm/nzPPe7yueSDyc038eU/xIIMEz1Vy0AAAAAAADAYVT93hBoyaBWaSilWXbVXHaoMANLuZ3S7dfl6waz51N6HdOqle4jbYOHvvpo8bEPKQNf+dBA1gnU8v2sa8C1r0vfd/3eIOEqhy1hiAypls7JlAFXhin9e0yGgReR1719W83yPWbZnz0ZYM4g+ax/z6vLfR678da1/btYbrt0v7l8lnU8l5tv+Xzxur5HwzDVX7UAAAAAAAAAh1H1e0OgZdZQUN0FF1651HDQZZffULzddtkx8bDJ8E+9m+68g0Cl1zCtWuk+0jboGgKbp5z/h/Hc3DbLrKV5ZLC6dJ7MU87LDBnCPBY9x/P9q3QepnzwhNnyX1EovX6LDrVnmLt0e82WeW/y4ZGhA8zt8oGkdfjEpz5bvL9c3mddzyW3W7pOdtsGZqv+qgUAAAAAAAA4jKrfGwItXQMypRYdDppnp+LDNvhaGlbPbrpDta9bt2ql+0jbYJ5zfFZDdvNkHMuupXms6pzKY17n8Di7ZZlzPEPc7evWZRdtZrvu+pNnvXbZjXmRXaWz7tu3VWrRXbjzmGb910n6ynXXYZGh7HU/l9JwfD6IBcxW/VULAAAAAAAAcBhVvzcEWuYZLlx0SKc0yNTVYRvKLr0GaajSddOqle4jbYNVDmWnfMiAzVN6r9I6rPKcyqAtDFE6f9JQV1517Kzr5jI7ts+W1ygD2KXXbxH5kFv7trrKbs7zmuffu0pt0lD2up9L13/5IB9kAPpVf9UCAAAAAAAAHEbV7w2Blq4Bma7/TPxjjz9VXXOYb7/4cnGQqev2DWVPG6p03bRqpftI26DrHM8wbIaxmt18y+eLu9E2y7m7yM6orFfpvUrrMM859dGPf7p4bLM77ryvumXoVjp30jzyMzzDpmnen+eH2ZcfOFV87bPGF5Edzku3V2re++j7r5Pke1R2Rm8O4udcyJB4czfqTRnKPojnkus0b7fuppO3V0cAXaq/agEAAAAAAAAOo+r3hkBL14BMhlNLlx+78dbqmsNk2LDrdkqXG8qeNlTpumnVSveRtsG8Q2CRYcULLryyeL2UAT02S+l9Susw7zmVD6dc++HjxeukDPrbrZhZSudOYv261nwGeueVna9Lt9X1MycD3PPoeqz5PpPvRX0y5Jz7y4dJ1mHe750H8Vy6dkFf12A67JLqr1oAAAAAAACAw6j6vSHQ0jXwkt0JS7tZZ2honuHB0q7DGU7Mzo/ty5Oh7GlDla6bVq10H2kbzDsEVsu5WLpeyk6cbJbS+5TWYZFzKt83r7zqWPF66Yknn62OhLLSeZNYv9K/D2WQd5EPU3T9+0/Xbtxpnu8PXf+1h03Y+Xne750H9Vy6vjdngB7oVv1VCwAAAAAAAHAYVb83BFq6BmSy+2PXbtZDdwnOEFHp+hl2XdVQ9nPPvzC56+77J9ddf3JvqKb+T9Znd8T8OTsk5us5bqjskpzHV1d6vhlaz2uX+8igev6ZIaHc16zdG7N7eH3b7edf17z/lCHgV155rbqFN5Wum5rq55Nh+AyWzfNYa6X7SE15fPV7W5fnOvQ+IjtbNq8/z2PsMu8QWC3Pp3S9NM8uojlX8nrndf/AFZ/cu37O0/r8zGs2z3PM2my+Rrn9tvb5Wa+HHL/MkNkY6y1/zv3l3M0QZM7jekBxlWtpHoueU3ltStdLOffblnltuuzC+ZjzK4+zvs36eWSAM3/O5bnteQZZV/lar/LxrfIcz2udrzWPm/f1H+N7QLTPofxz3p9ji8r71H7NUx7DIvJatW8rl3V9LeW/XjJUXp9lb2Nd8h6WHlsuLzmo55LzrnQ/WX9At+qvWgAAAAAAAIDDqPq9IdDSNSCTQbtU+lqGsYbIwFT7uvXOkl0DMBlkGyIDX12PvascP2R4K4+xfd16wCzDY11DU3UZIsprV5Jhs9J1hlQaDiodlyJDeRkcLH29ru+xNpWum5ry3pWOySDiEF2Db/lwwDLmHQJr6tqlc8gayLk26/Wvy/tQGmYtKZ2f9XmdAct6ALSvoeusNtZ66/pgSG571WtpHoueU13neMqAbNuir03JLpyPeUxDn0Nd1uqQ4edVvNarfnyrPsdLzzGXDTHW94Blf+auQtfPtkV+NuX5lG4r/04UXf9ulOH3oUq7eqd68HtMXedQ1/etg3ou+VBM6X66HhcwVf1VCwAAAAAAAHAYVb83BFq6BmTqAafSQEwGqGbtNJvB69J16x2GlxnKzqBaaYhrSHlMGYrqU7peBsS6BrO6yg6ebfPeRrPScFDpuJT3r2uYqV1ey1mve+l6qSkDiaVj0qzXPLoGH+thtUXNOwTW1PUaztqlM6/F0Ne/WR7TrLVVul59fs6zLkpDwCVjrbeu8yHldVr1WprHoudU3tvS9VLpPC8dN+S1aduF87HvOQ8pr0Gf0nXmea3X8fgO6ufFLNv8M3cVSh8wS4t8uCM/O0q3Ve9Ynn+Wvp6GDp73fTBg2Z+ny8p5WXpcpfM1Duq5dH1gZuiHyuCwqv6qBQAAAAAAADiMqt8bAi1dAzL18E/XANGs4aeuHT5zeSw6lN21m+E8Zbisb/fO0nW6Xqe+SvezzJBdBsPaSsct0iKvSWrqGsRPs4aYIzuBlq47ZKC7z7xDYLW+4bi+8z9fK11naLN24S5dp2s9zWrWOh5rvXUNQdblvVv1WprHoufUvDtll44b8to07cL5mO8tpePnKd9fcjtdStcZ+lqv6/Ed1M+LPtv+M3cVunZ7r/99Zh6ln3PtXZ+7dgbP4P8QXf/eVpc1naH3Mcz7vfOgnkvfB2b6vm/AYVf9VQsAAAAAAABwGFW/NwRaugZk6qHsDMSWvn7lVcf2vt4lgzLt61xw4ZX7wy2LDGXnurN2e81QVtdwb7N6x+6S0vGL1h5GzutaOm5IpV05S8ctWt9OtaXjU1vXEGPetz5d51ney2XNOwQWOde6BvH6Bv8ydJuvl66XQbucDxlyzPnfdfspt9OldPyi9b0vm7ze8t6tei3NY5FzKvqGbHNetJWOm1XzMezK+Zihy9LxKY87P4/qup5v6hvGLx0/q/q1XtfjO6ifF1124WfuKuTfXUr3Ve9uPVTX+5n119T170d5L+p/h+rT9fO0Wd63nG8HPZw97/fOg3wuXed63/c/OOyqv2oBAAAAAAAADqPq94ZAS9eATD2UHV0DV10DMBlYLQ2eNXd5XGQou2vgN+V5NAdn8hgybNg1TJW6Bm1Kx7bL/eX2M8icQbvSMak0ZJjdYPP8u16DVH+9LvdTGsYqXbfdMo+1Vjo+teU1LR2XmudUW9dumKsYsOs6x3N5SXY/7dqpNPUNdna9vl3XyXtSOr5vd+LS8c3qAbW83nkuWXel9VjXtdvrJq23vB95bS+7/Ia9P9fnxSrX0jzmPadq9eMvVRr0Lx3Xruu1iV05H9u72GbAN+dbSV7H0oeCUgaku5SOb9f1Wq/z8R3Ez4sum/Q9IPe37M+xRfQN3M8r537pdtrD3X3/lYaHvvpodVS/ru9RpXK+dr03q7bI986Dei5d51Xfv5fCYVf9VQsAAAAAAABwGFW/NwRauoZdmgO0XQOzGf4qyQ6dpeObt5nrlo7pGn7JYFTXIF/X44gM53QNiXUN6JWOrctttQd+MvyWQaDS8ak0bFkrHZ+GKl23bpHH2rXzZ+nYVNI1eNocym/rGoKedyfSkq5zPMN7GcKq69ols1meWwYwS/Jad12nT9fr1fWhh9KxdXkdS69ZhhlLx6fSwO2mrLfUHszP8yu9B6XrpnVYZLCw63teWsdrs0vnY+S55ntI1+Noyvfc0m3n3OxSOr7ZrPNw3Y8vStdJQ5Wum0o25XvAIj/H+n7mzqtrHeW1mVfpZ0zWSEnXz8S+7zFNeQ2G7GDeLGtvyPm7jEW+dx7Uc7n2w8eLt7Xsf1kBdln1Vy0AAAAAAADAYVT93hBo6RqQaQ5QZ/isdEzXMFFpqC8DNU3zDmV37TDZvt2Srt1f0zy7iZaGw2oZGuoaYOu6TpSOT0OVrpsWfaxduyaXjk0lXUP5GUgrvd7znl/z6jrH5y0DW6XHX+vaVbZrx9xa14DqvO9F1kLfMGLfEGP7eW3Cekt9w59tpeundRgyWJjnmu+jeX8zjFo6vq5r99vSsXWzXptdOh8X0TXU2vWhitKxdfOch0PN+/iidHwaqnTdVLKrP3PnlTVcuo8hr0NT1njpdrrOra5/R8prMnR9ZCi560MWXeX2u9b6Kgz53llyEM+l67GtY/3Drqj+qgUAAAAAAAA4jKrfGwItXUMozaHs6Boge+zxp6ojpjIMVTquvcto18BR11D2MjsYZpindN1U2sW1dFyaNejVNXjZfi2bSsenoUrXTYs+1q7Xv3RsKukblisNn3YN8K1qEKrrHB9aBsGGDHZlZ87S9fsGU6Nr6K/r3C4dm2a9513Dtqm9o+gmrLfsXj6P0m2kdVj2nGqW4eQupePTkNdml87HReQ1mue2S8emec/DoeZ9fFE6Pg1Vum4q2dWfufPK9/7Sfcw7lN31PaP0ekTXh5XSrA9WNGWAu2vAvq8h7/Miul6HXD7Lup9L12PLB1yAsuqvWgAAAAAAAIDDqPq9IdDSNYTSHmrqGqLOgExT1+6s7cGjeYeyS//Z/zRraKuWAarS9UtDwqXj0ixdQ2xdzylKx6ehStdNs8z7WEvHpi5dA6GlwauuwbquYbV5dZ3jQ8pw+dABuNIHF3L9rKW+uoZT22urVjo2zZKBttL1Uh5H0yast1nDw22l20jrsMw51Sznft+ut6XrpCGvzS6dj/PIB4Vy/a5ddecdyp73PJxl0ccXpePTUKXrppJd/Zk7r9xW6T6ydofKuZ5dm9u3kTXap+vDcH0f5OiSn6ddP5dL5XtF+73On7vOi3Zdu5x3fe8s/btBl1U8l5J8eLB0/XkeGxw21V+1AAAAAAAAAIdR9XtDoKVrQKY9FNe182UGdOqhwvyzNLBTGjyaZyi7b3hv6MBc166kd919f3XEm0rHpVm6XstNHMqe97GWjk1dunYXzXBUfb5E13k1a1htHl3PNedqzouuwbdmQ3btznMrXXfRunboLR2bhugaqGu+79uy3tpKt5HWoeucmqcMVr7yymvVLZaVrpeG2JXzsSSvW86lPKbUdTul5h3KXsQ6Hl+Ujk9Dla6b2nb5Z+68clul+8jzG6rr5+Gsnytd/56UtT3re0eXDDQP/f7VHjzv+q9adJXj27ruO5fPa5nnUtL1ei/y2OCwqP6qBQAAAAAAADiMqt8bAi1dAy2lnUq7djTOwFF0DR6VBnPmGcrODoelY9NQXbsqloaiSselWbpey74BsdLxaajSddMs8z7W0rGpS9eAfmruPJ0BvdIxpXNmUV3PtT1olcfVNzxZGiasdQ2XL1N2gS0pHZuG6Nqdt/l6b8t6ayvdRlqHrnNqSHlf6++Zs5Sun2bZpfOxKbtMZ5h9mYHzdQ5lr/PxRen4NFTpuqltl3/mzmsVQ9k5J0q3kZ8p+Xetrrp+PqZln2POsyHfx5o7TM/7fa/0XnfdRi5f1CLPpaTr30uXeWyw66q/agEAAAAAAAAOo+r3hkBL1yBLBoLaMihXOrb+T+l3DWGVhsy6hl9Kg0Z5LKVj01BdQ1FjD4iVjk9Dla6bZpn3sZaOTX1uOnl78To5T2pdu6n2DSbOq+u5lgatsgts12B2Bi27donNMGbpOsvUNQReOjYN0fXBiuZ9bct6ayvdRlqHrnMq507O6XY33/L5vaH/ec/r0n2kWXbpfKzle9Mqdv/ueg9Kx6ah1v34onR8Gqp03dS2yz9z55V1W7qP917ykeqIfvmA0irOi3ZdH5KY10NffbT38TVfy2M33lo8pqvSez3Pz+N5zfNcSroeW543UFb9VQsAAAAAAABwGFW/NwRauoZQSkPZGRYrHZshmPxn5EvDMBlILJlnKDu3XTo2Df1P+OdxlK5vKPvMuh5r6djUp2u31Zwned9S6esZ1Fylrueay0u6hvBSBs1LMqxdOv6CC6/cO8fmLe9DhvlKSveThsggYem6GWarbct6ayvdRlqHec+pRZXuI82yS+dj9A0Jp9xOPQBfl+daOnYdQ9kH8fiidHwaqnTd1LbLP3Pn1fXeDh3K7vt5smxdHxKaV16v0u2n5s+8/Ezv+69JNMtxpZ2p1/29c+hzKel6bKVzFpiq/qoFAAAAAAAAOIyq3xsCLV1DKKWh7OgatLrs8huKl3ftrpohl9LxpWGqDAOWjk19A2xNXcN/d9x5X3XEm0rHpVkWGRArHZ+GKl03zTLvYy0dm2bpOi9yP13DU9mRfZW6nmsu79L1uDNQ3jUI1zVkuWql+0iz9K2jDGHWtmW9tZVuI63DIufUIkr3kYbYlfMxuv4rDFmn7QHuWtfPqnUMZR/E44vS8Wmo0nVT2y7/zJ1X11B21tcQXefGKur696t55f3u2mF61d/T1v29c5nn0vVeGcqGbtVftQAAAAAAAACHUfV7Q6Cla0Cmayg7Q0Cl40vVOyKXzDOUHV0DXkOGr7p2jU2lnRxLx6VZul7LvsdYOj4N3Y20dN00y7yPtXRsmiUDeKXrZSDx2g8fL35t6NDfUF3PtW9A68sPnCpeJ3UNjXcNcq/6+ZTuI806Z/qeUwbZmrZhvbWVbiMNXUvzWOScWkTpPtIQu3Q+lgbMsxNv330c5FD2QTy+KB2fhp7jpeumkl39mTuvvB+l+0iz5H3pGhBeRTmHVqVrB+xjN95aHbEaB/G9c9Hn0rUmV3k+wa6p/qoFAAAAAAAAOIyq3xsCLV0DMl1D2X3DVu2y62CXeYeyuwZ4hwwl3XzL54vX7drpsnRsmmWRAbGu3WyHDk6Wrptmmfexlo5Ns+R86RpKK13+gSs+WV1zdRYdAusa7Mrl7aHR+OjHP108vrQz7DJK95GyFkqPq9a1C2ieT9s2rLe2ZdfSPBY9p+ZVuo80xK6cj9k1u3Rc38+X6BqwXPVQ9kE9vjjInxe7+jN3XjmHS/eR8vOtTx5H6XqXvu/6vX8HGlp+LpZuJ7Xf+zzerPFZj62p79/rxvwvVxz0c8n7Urpe1273gKFsAAAAAAAAONSq3xsCLV0DMl1D2dE1rNXui196uLrG2TJoVLpO1zBV15BX6huYycBc13DtTSdvr446U+nYNMsiA2Jdu9n2vXZNpeumWeZ9rKVj0xBdw5elVj0wGvMMgTV1naMpu/y2dR3fNcS9qNJ91GVtlu6rb4f7DO+2bcN6a1t2Lc1j0XNqXqX7SEPsyvn42ONPFY/rG3rOYGbXTs+rHso+qMcXB/nzYld/5i6ia1i379+TouvflXL+zyOvd+l2UnvQuF5b+dBTvgcM2UW979/p8n6u0jzfOw/6uZSuk+YZCofDpvqrFgAAAAAAAOAwqn5vCLR0Dcj0DRt17f7YLEM0fYN/XQODXcNUGVQrHV+XYd72/eU5dO0smp548tnqyDOVjk2zLDIg1jVAlCGwevA3A0F5fqWBotJ10yzzPtbSsWmIPI/SdUutY/hpniGwpjyW0vVShiPbcnzXruB5PzO82SfnY9ZFdqLtG04v3X6zPLYMaWaArb7NrseVSgOW27De2pZdS/NY9JyaV+k+0hC7cj7meqXjcq6Vvl/kProGntOqh7IP6vHFQf682NWfuYvo+mBR33B13ofSdVLpvOiT17nrdW3/LGr/u1XWWl6nrKvmv9fl/c267Br0T6Wfc8ua53vnQT6XrJfS9fK6A92qv2oBAAAAAAAADqPq94ZAS9eATHPgpS1DaH1Ddak0YNPUHrap6xumyg6qpes0y+BNhghLX2vWtWNnlI5Ps3S9ln3P6diNtxavU6r0mEvHpVnmfaylY9MQGSjr2jm1Wd63deh6rrPO0ejb5bs0YDjrHM1zzHue8z/lPc1l7YG7vsfWPG7Z+gbVNn29tS27luaxzDk1j9J9pKF25XzsGmLOMHKGMfPzKv/M4+wbCk6rHsqOg3h8cdA/L3bxZ+4isht16X76nlPXbvB5rRbR9VxTcwC/69+t5i3nad+5uKiu55HL2w7yuXR9eCwfhAC6VX/VAgAAAAAAABxG1e8NgZauAZm+oezo+0/Ep9Luu01dwzZ9w1QZBu/bYXRoH7jik2ft8NlUuk6aZZEBsQz2lq5TqjS0VDouzTLvYy0dm4bK8Frp+s36dh1dRtdzLb2ebX27fGdgsS3naAYxS8fPU99jKx2/aH3rdNPXW9uya2key5xT8yjdRxpqV87HVQ1npnUMZR/E44uD/nmxiz9zF9H1cyAf2unSNai+6M+5rI3S7aWcf7U899Ix8zbr3+EWNc/3zoN8Ltn5vXTdvsF7wFA2AAAAAAAAHGrV7w2Blq4BmVlD2dn1s3S9lF2RZ1lkKDsysLbMkFgGpTJo1qd0vTTLogNifbsxN1vFzqe1eR9r6dg01JBhwm+/+HJ19GrNMwRW0rXLd3aLLw0a5hxddhA2O+J2KR2fhgy+1+WxZw3PssnrrWSZtTSPZc+poUr3keaxK+fjkN2Ym+W9KK3drqHn9nF1Q6378dUO+ufFJn8P6FqHs37mzis/m0r3kx2YS7qOT4v+nMvPmq5d1ps7zOf2Z+3G3lfWYgaU12We750H+Vy61tWQn5NwmFV/1QIAAAAAAAAcRtXvDYGWrgGZWUPZGRDKwEvpukMGHhcdyo4MeHU97q4y2JP77Nuts1a6fppl0QGxDB7N2nk8lXbYLB2XZpn3sZaOTfPI4FjpNlIG99al67nm8iH6dsHtWic5RzPI2rVG+srrlCH2LqXrpMgA2qz7zCBo3+23bep6K1lmLc1j2XNqqNJ9pHntwvmY93bIQHLOvfr7WGkYfV1D2et+fLUxfl7s2s/cRWS379J9lc7drp21l/051/ceNOUcybHzrPccm393y3XXqes55PKSg3ouOV9LtzPk/IXDrPqrFgAAAAAAAOAwqn5vCLQ88+xzk5tv+fzesFDKUFkG6YYMomQgtXndDIrluhngmiXDMhnYal731tvuGXTdWobXcp2uAbUM+33045/eG06b53azM2KGgOrHlv89ZLfE9ms573PKIFde/+bwVwaFcjt5DqX35KAe66L305T77BqsWnZItk/ut3mupfw5lw+R16R9/ZTXb9Z7m/M8r2ve19LQV8pgZs7THDfkMZVuI9VyGxnAbe/Cm+HarM9Fh+42bb31WWQtzWPZc2qoVb82u3A+5udOHn97oDm3n0HM5lBzzoO85833qMuqXut1Pb62g/x5Udu1n7nzyHtTes45h9ty/znn68eV8udlvz/k9W8+35Tn3DWEnseRr+U9Ka33XD/nUF6zRX8uzCvPYZHvnet8Lhmsb99eymsL9Kv+qgUAAAAAAAA4jKrfGwIwkgwrlgafMqi9jiG6XVV6DROMoXQuJtglXYO7GQRmu2WwvvTermPHddg11V+1AAAAAAAAAIdR9XtDAEaSHS5Lg092o5xP6TVMMIbSuZhg17z3ko+cdZ5n1+Zld95nXBmsb7+v6aB2D4dtVv1VCwAAAAAAAHAYVb83BGAEGW7KjtilwSe7Uc6n9BomGEPpXEywa26+5fPFc/2hrz5aHcG2yX+lo/TvJj4sBsNUf9UCAAAAAAAAHEbV7w0BGMGtt91z1tBTyjBUhqIYrvQ6JhhD6VxMsGu6PlyU/woE2+muu+8/6/1MX37gVHUE0Kf6qxYAAAAAAADgMKp+bwjACN57yUeKg092o5xf6XVMMIbSuZhgF2UAu32u+3DR9rrs8hvOej8vfd/11VeBWaq/agEAAAAAAAAOo+r3hgAcsIe++uhZQ09193zhweoohiq9jgnGUDoXE+yiJ558tni++1m2fbreyzvuvK86Apil+qsWAAAAAAAA4DCqfm8IwAEr7Sya7C66mNJrmWAMpXMxwa7Kf+Ghfb5fedWx6qtsi5tv+fxZ7+MFF145ef31N6ojgFmqv2oBAAAAAAAADqPq94YAHLAPXPHJ4uDTF7/0cHUE87j0fdef9XrmMhiD85HD5tQj35hcdvkNZ5zzN528vfoq2yI7YuffRer38L2XfMQu2TCn6q9aAAAAAAAAgMOo+r0hACN47PGn9gbZUv43y3niyWf3X8/8bxiT8xEADp/qr1oAAAAAAACAw6j6vSEAAAAAS6j+qgUAAAAAAAA4jKrfGwIAAACwhOqvWgAAAAAAAIDDqPq9IQAAAABLqP6qBQAAAAAAADiMqt8bAgAAALCE6q9aAAAAAAAAgMOo+r0hAAAAAEuo/qoFAAAAAAAAOIyq3xsCAAAAsITqr1oAAAAAAACAw6j6vSEAAAAAS6j+qgUAAAAAAAA4jKrfGwIAAACwhOqvWgAAAAAAAIDDqPq9IQAAAABLqP6qBQAAAAAAADiMqt8bAgAAALCE6q9aAAAAAAAAgMOo+r0hAAAAAEuo/qoFAAAAAAAAAAAAAAAAAAAAAAAAAAAAAAAAAAAAAAAAAAAAAAAAAAAAAAAAAAAAAAAAAAAAAAAAAAAAAAAAAAAAAAAAAAAAAAAAAAAAAAAAAAAAAAAAAAAAAAAAAAAAAAAAAAAAAAAAAAAAAAAAAAAAAAAAAAAAAAAAAAAAAAAAAAAAAAAAAAAAAAAAAAAAAAAAAAAAAAAAWLdnT/fS6f7gdPdLkiRJkiRJkiRJkiRJkiRJ0o71tdNlZjqz02vxN6ebSJIkSZIkSZIkSZIkSZIkSdKOl9nptXjxdJOrLvvHk49d+dOSJEmSJEmSJEmSJEmSJEmStFNddvGP10PZmZ1ei6dPN3n69y+dTP70X0iSJEmSJEmSJEmSJEmSJEnSTnX//+//Uw9lZ3Z6LQxlS5IkSZIkSZIkSZIkSZIkSdrZDGVLkiRJkiRJkiRJkiRJkiRJ0hIZypYkSZIkSZIkSZIkSZIkSZKkJTKULUmSJEmSJEmSJEmSJEmSJElLZChbkiRJkiRJkiRJkiRJkiRJkpbIULYkSZIkSZIkSZIkSZIkSZIkLZGhbEmSJEmSJEmSJEmSJEmSJElaIkPZkiRJkiRJkiRJkiRJkiRJkrREhrIlSZIkSZIkSZIkSZIkSZIkaYkMZUuSJEmSJEmSJEmSJEmSJEnSEhnKliRJkiRJkiRJkiRJkiRJkqQlMpQtSZIkSZIkSZIkSZIkSZIkSUtkKFuSJEmSJEmSJEmSJEmSJEmSlshQtiRJkiRJkiRJkiRJkiRJkiQtkaFsSZIkSZIkSZIkSZIkSZIkSVoiQ9mSJEmSJEmSJEmSJEmSJEmStESGsiVJkiRJkiRJkiRJkiRJkiRpiQxlS5IkSZIkSZIkSZIkSZIkSdISGcqWpEPS83/wvslF5791ct7b/+Fe7z/645OXvvb+4rHSQXfXb14wedfP/8j++fnbnzqveJwkSZIkSZIkSZIkSZIkbWKGsg9RGcj84X/w9+s3fK8MvpWO3cS2/fFLY3f1ZW87Y/2kTfvenCHx/GCq++6f/HrxuEXzfWRz+9Vf+rEz3pcf+Ht/d+/9Kh0rSZIkSZIkSZIkSZIkSZvWTgxlP/Q7F+0P8H393kuKx3S17ABgnld93U0fHstjzHvRrnTsJrbtj18as3xvaw8j/8y5P1Q8dqzy/fst/8//xxmP8a3/+/+20sFs30c2t9J7c92/OLd4rCRJkiRJkiRJkiRJkiRtWo0ZqO0cys5QYW6/2fuP/njx2HY33/COs66b8qKUjm/X3tUz3fuZXyweuwmNNYyY1zk7npbuu6/2wKhhymHdfvydZw3flsp7kh2CM/Q474cZtH2d+Nc/e9Y5kLVZOnasPnblT5/1GNMqv6/6PrLZZQi/+b7ke9mqd0uXJEmSJEmSJEmSJEmSpHW09UPZ7/r5HzljgCtlqKt0bLtzf/IHz7puuvqytxWPb9fe0TVl1+7SsZvQWMOIXa/zkJq3Y5hyWBm0Lr1Os8r1Nn23dy1ee9g1Q/n5LwWUjh2rfECg+RjrfvtT5xWPT/m+kIb+jPF95OCa971JpcH8vvdfkiRJkiRJkiRJkiRJkjalxnzadg5ld+2sOuv+MoxYul7KEHHpOs0eufu9Z10vQ46bvKPnWMOI7WHQeWrejmHKYS3zeueDBnmdS7er7a20di46/63FY8estJt3Kn3YJZe1d+DPh3Tax7XzfWT9LfrepPzsbl4v5QMjpWMlSZIkSZIkSZIkSZIkaZNqzKdt51B2hr9y++1m7azZNZhXN2sH2ZtveMdZ19n0wbGxhhEXHRJu73humHJYywxlpx/+B39/43ZQ1nJl9//2+5wB6NKxY5YPtWRYvH6MGezNB29Kx+Z7fPP5pPb3jFK+j6y/Rd+butL3MLv4S5IkSZIkSZIkSZIkSdr0tn4oO2V339xHswwhlo6t69phu+6u37ygeL269x/98bOu86kPvb147Ka0SUPZef3yePr6+r2XnHE7uax9O6l5jMqvd3OwNcON937mFydXXPpTZx1XN2v9aLsqnRPZ7b907LZkKHtzW3You/TzddYHrSRJkiRJkiRJkiRJkiRp7Brzads7lN3cWbXu3J/8weKxddnVun2dZrOGUrdxyHGsYcRZQ8JDM0w5rHle79LwZMoHHUrHa/vKhxt28f01lL25LTuUXbr+u37+R4rHSpIkSZIkSZIkSZIkSdKmtBND2Sf+9c+eMbxV99LX3l88/rt/8uuTH/h7f7d4nbq+oe7sNNw+fsiQY4Yjs0NxBmR/9Zd+bHLdvzh3b3ftvAntXaH7yvB3rpPag+AZZssuoxk6z203X4N5hxGb95MWfQ83ZSg7j3+Z1z/HNF+PWUP4Oc+ax6fScc3ar3nOtdJxfc37emfYsX18at/3ouddqWXfi67ymHMbua3sBJ4PbOQ+cl+l47uq37t8b8kHNOrbufmGd8y9DurbymPK88xrVD/fWedQ3TK3Ufr+mOdTOnYTzvH2Y2h//aHfuWjv8jz/9vP64X/w98+4bspjbF4/l7Wvl9rH5LXNuVmfP4usxVmt6nxNq15Ti5xzy743dXku7evnZ3bX8ZIkSZIkSZIkSZIkSZK0CWUuqpp52t6h7AyI5T7adQ22NZ50b12DpXf95gVnHds15JgysJqh7fZ12mU4dtbgX+m5ZhAuj7U0XJsBuvq6Xc+7eft1GUQtHTtr2LbUmEPZeby5r1W8/qXr9A2tZki5fXzf8y49vwxClo7ta97XO19rH59yXtXHLHPe1a3yvWiXYc3SIGizDIVmQLl0/WZdr0ezvLez1kIeU+4v91u6jbq8X13n0SpuIwO67eNL709qH5cO8hwvnWcZxq2/XhrWnVX78fR9H8k5XVo/dUPOnyGt6nxdx5pa9JxbxXvTrPSc+s5FSZIkSZIkSZIkSZIkSRq7xnza9g5lp9IAV9fAVy5vHpehv5/4R28547KU4evS9UsDy6XhuQzAlQZW+8rzyBB3+7bqSgOFGT7PYGP78tR8DfqGEZuVhs7TIgPCad4h4a6GPv667A7bN2BZqu/1n/d5lI7/mXN/qHhsap+XKUOvpWP7mvdx5vm2j0/Noexlzru06veiWR5baf121XWbWa95f0rXKZWh1dx36bZSaWC5q+ySvK7bmOd729jn+Kw1nnOu9PW+2muo6z4yqF66vF3X6zy0VZ2v61pTi55zq3hvmpXWYnaqLx0rSZIkSZIkSZIkSZIkSZtQYz5tu4eys1N17qdZ1xBxe5A0fy4NWuey0vXP/ckfPOvY9vPLDqazdhrtq2tosjRQ2DdI2hyonDXwmPI8SgPuGf6btTNwV/MOenY15PHXreP1zwBi+7icC+3jUt+usV2vY2nA+fbj7ywe29e8r3fXjr3Nx7nMebeutZAySJ0PVZSu11XptcjuwIs8xtx3affhrkH3rkrDqau4jbz2pWO7dhwe+xyftcbzQYHS1/tqfx/vuo95WnTH5lWdr+taU8ucc6t4b5qVzsVlB+IlSZIkSZIkSZIkSZIkaZ015tO2eyi7NEyW4eLSse2h4wylZkiteVkqDSNmeLM9VJch2PZxpSHv+tgMlmXQLv/s2jE19537at/uvAOFzYG+WQOPqTRom9drmfdvjKHsdbz+XTvBlgZQ+4YbSwORuY32eZU/dw239jXv653n2j6+fU4vc96tay2kX/2lHyteJ7eVgdGs7fYgcOm1KD3GPL685/V953+XHmNpsLT0muZ+69vK+5rzII8x73NpoHoVt9H1vnW9nmOf47PWeI4tnd99tR/LkHM53/P6hp7zIaDmbQ5tnedrWnZNLXPOreK9aZb/+kT7+Dy+0rGSJEmSJEmSJEmSJEmStAk15tO2eyi7a9fW9o6m+XP7mAyGZaCsfXlqDgym0kBfexjy6/dectbwYcogX2kQLtdvH5sylNY+dtZAYYb1ckzKMF0ey6zr1l/P8e2v5XlkB9T6mEUqDepl8DD319eQ1z41j0nrev1z3dLtlgYLu24zlYZ4cxvt4/IatY8bUun1zutZOja7FLePTe2h00XPu3Wuha6deTP42r7tfH+oB2JvvuEdZ3yttHtxBnLb51/KZe0PdeS6zXVWOk/63svcf/v74ypuI5UGp3N+tI+rG/scH7rG07zPra7vXM57m6/Xx+bnRfv9rmve5pBWdb4e5Pe3Rc65tOh702wVtyFJkiRJkiRJkiRJkiRJB1ljPm27h7JTaRi1PXiWP7ePqYcvS7uEtocRM3DaPibDY81jSruhZsizNDBXV7rv0q6gfQOF7cfRrm/gsetrpWHMeSu9L0NqDyP2Pf5m63z93/XzP3LWcRl6bB/X95xLg4WlnW9Lg8hDKt13eyg7w6bZlbd9XF17EH/R826d70WGUNvHlV7bZnne7fsuDa32vfbZgbh9fIbb66/ne13763nOzduY1SpuIy0y2DrmOT50jadFh3a77iPD1+0P8aR8Hyodn6Hk9rF9rep8XdeaWtU5lxZ9b5qVhvhT6VhJkiRJkiRJkiRJkiRJ2oQa82nbP5RdGq7MAFvzmPZgXHMwrTQ02N7xtTRY135uP/GP3nLWMRmAbR7TrjQsniHB9nFdA4UZFG0f267ruhkuzPBd+/JFh4Lb9Q1v9tUeJB46sLnO1790XHvYMIOU7WPatc+Z0tBkc/fleVr09a4r7aq96Hm3zvei9Jotcs7+zLk/dNbtlIZz60pDuu3XrLSTcYad5/k+uIrb+NSH3n7Wbcwajh3zHB+6xtOqh7K73vMMO89zfFerOl/XuaZWcc6lVQxlz3MuSJIkSZIkSZIkSZIkSdIm1Jh72v6h7CGDYBlEa369OXRd2pmzObRdun4G5JpfT6XBtrzQ7eOaZTixfZ1U7+Jd1zWo1rdLal3Xdc97+z8867L2MPoy5T1o3/6Q2gOLQ4f01vn65zwuHdc8v9sDkKUhypyr9fG5j/bX5x1gbLbo650yoFy6zUXPu3W+F6XbnndQNrXXdMqQawatS5U+mNH+8Edpt+m6fK25s3ZXq7iNPN72dbPeS8fWjXmOD13jadVD2aVj6xY5j9ut6nxd55paxTmX1jmUPe8O5ZIkSZIkSZIkSZIkSZJ0UDXmnrZ/KHvWMGFpd9cMYtfXLw0OpnpwrXT99vDykIHGUhk0K12vPbS3yEBhXdd1S83aeXWeSkPCuSzDoX21X7Mhz33dr38qDaBm9+T66+2h3Qywtl+D5hBv6cMAywzFl17vWWWn9OZzaLfIebfO96LrmFm33a5rzc9bztfm7eZxlIZnm+V9ag4ut1vFbSwylJ3GOsfnOc8Ocii7tKZyO6VjS63qfM3xi9zO0O9vqzjn0jqHsud9zSRJkiRJkiRJkiRJkiTpoGrMPW3/UHYqDc/Vu3u2d3dN7ceVnbHbx9SD2xlK7Ppa3SIDf3Wl67UH/5a5/a7rdu2O+tDvXFS8nXkrvScZFi0d29eQ577u1z9lmLR9XIZU66+3d17O4OP7j/74GZflmPr4Ky79qTO+lkr3O7TS610qx2VAN+9Fe8fcdou8rut8L5a57WY5x0u3M295f0u3nWH30vHNsv66Xv9lb6M0lN21G3qzsc7xed7XbRrKXtX5usztlK5Xeg6rOG/XOZQ95L8KIUmSJEmSJEmSJEmSJElj1Jh72o2h7NIwYb0ja3ZubV5eGhLru3576DC1h9K6hjyzU2nzuHZdO5l+/d5LzjhumaG8rut27Y6aAfVVDMCVBhrXNZS97tc/lR5HPYCa4dTS5aWdgutdatuvT96LZV730uudczePO5We06yGvPbt1vledD2eWbfdLrdZup15yjpp7zhcl8eT7x+zdh/OgGvp+mmZ2/jUh95+1nFDhmPHOsfnOc92YSh73vP1IL6/1ccvc96ucyi7dKwkSZIkSZIkSZIkSZIkbUKNuafdGMouDQZmaDJfaw/WlXa3nef69eXNMqTdPKaua2izrj3oWNceXFxmUK3vuqXhzbTI8HS70kDjuoay1/36p1yWQdT2sRmYbO/GXu8uXHpcOTbron15c0fiRVrV691skfNune9F15DprNtul9ss3c68w7KzymuRnfZ/4h+9pXh/6d7P/GLxunWL3Maiw7FjnePznGfbNJS9qvN1nWuq1KLn7SqGsvNfuGjfRnbwLh0rSZIkSZIkSZIkSZIkSZtQYz5tN4ay+4bW2pdlcKx0/dLuoKUddbsGXUvDjBlsKx1bVxpAyyBc+7hFBgrr+q6b4bwMmbe/ltdikZ2Vm61qSHjoc1/n61+XodL28XlO7cszlFpf57y3/8MzvpY/l4YXS+flPK3q9W626Hm3zveitE5n3Xap0uuV4ePSsaso72/pdZnnPRp6G6Xza+hg6xjn+DznWel2hwz+LnIul86R3E7p2K5Wdb4exPe3UkPPufrY9nFD3ptmq7gNSZIkSZIkSZIkSZIkSTrIGvNpuzGUnUrDxdkVu31Z12NqDxam0vW7hvJ+5twfOuvYXFY6tq50nXf9/I+cddwiA4V1s66bQdTS12c99lmVBhoXGRIe+tzX+frXlQYGc960hxabO9jmOTe/liHNX/2lHzvjsrTsLs2rer2bLXrerfO9KO3eW9q9vlnej/aHDHLb7du5+rK3nXHMqmufC6m0c39fQ26ja03nwyfN40qNcY7Pc55lh+bSsbOe2yLn8iqGsld1vq5zTc1q6Hm76HvTrPRfb1jkMUuSJEmSJEmSJEmSJEnSQdWYT9udoewMVOY+m7V3Kc1gYem6qTR41i63l92lS9cvDZOlDDmWjs9Os6XjS7v1Ljocm4Zc94pLf6p4THM33Hk76KHsdb7+dTmfS9dp1t6RuPT42+flrCHNIW3SUPY634vSOk/X/Ytzzzo2azWX5+vtgevSes/7MmSH+Nxu+3tbLsvOxX0DqKXn2XyPVnEbKbfTPiY1B6m7GuMcn+c8K/3XC1IGgkvH1y1yLq9iKHtV5+u61tSqzrm06HvTrDTMX3qtJEmSJEmSJEmSJEmSJGlTasyn7c5Q9l2/ecEZg1ylLjr/rcXrpq6hvWbZMbZ03ZThtgwrlq6XAbsMz+U+MgCXx1E6ruvxLTJQWDfkuhnIKz32DFYu+h4e9FD2Ol//ZqUd2ZuVdpBt7zLcbpHXpd0mDWWv873Ibsvtgd+6vDd5zikfNGg+hvb70vUYc9sZgG0Or2Z95PFmOLUeGm1/L8jxuTzvdZ5je91kILr0HuX71ipvo660Q/Ptx9951nGlDvocn+c8y/tWOjblvcn95PHnPWxeb5FzeRVD2es+X9Mya2qV59yi702z0rk39LyVJEmSJEmSJEmSJEmSpDFqzKftzlB2Bie7ht/qMlRZum7KQNms6/cNFqYMxJWuN6Tcdwb4Sre7yEBh3dDrZvCtdNy7fv5Hzjp2SKsaEp7nua/r9W+W51C6fl1p59quIcm69u61i7Sq17vZMufdOt+LWe9BqdIgcdc5P6S83s3b6nqtfubcH+ocWM5tNHcoXsVt1JXOuaE7Dh/0OT7veTZraDy13+9FzuXSmsrtlI7ta1Xn6zrW1CrPubTIe9Os9DN4yA7vkiRJkiRJkiRJkiRJkjRWjTms3RnKTtm9Nvfb1azhrmWvn2YNJ5bKrrarHFpsNs91M4BdOra0K+qsSgONiwwJz/vc1/H6N+t6PHWlcz5DrKVjU3a/bR+/SKt6vZstc96ldb0X+QBF17naVddrschjTBlabd5O3vfScV1l4LX9/WQVt1GX3Yjbx/ft9N/soM/xec+zIf9VhE0ayh77fO1bU6s859Ii701dbrd9bIa0S8dKkiRJkiRJkiRJkiRJ0qbUmE/braHs0iBi3ZDh12WvX5eBuq5dRttlQK1r19G6DNSVrls6tt081837VdqpdJHdslc1JLzIc1/1698u50LptvKcS8f3DT727Ro7T+sYyl7mvKtb53uRnYNL52uzfD07RGcwtnQbKet+6GNMef9LH1TI4y8d3y7D0V1Dsqu4jfT1ey856zp5Lfpeh2YHeY4vcp7lPS1dp679X0VY5D5WNZRdt6rzddVralXnXN28701dLm8fmyH00rGSJEmSJEmSJEmSJEmStCnt7FB2uv34O/eG1ppl6PL5P3hf8fh2petnWGzo9esyCHfvZ35x7/q/+ks/trezbgYdM9iWobUM6A3ZeTtlQC/HNx/T0N2r571uHlPz2DRkEK9dTrL27cz7GqZFn/sqX/92GXhtPp66XF46PtWPpVnOy3kHwrtqv96ruO1lzrtm63wv8j0m17/6srft3V6GWvPPDHPOs27zXOu1n8dY31Z2Ga5vL1+bNZSbx5PXPsfXt3HuT/7g3v8ecv20ittIywwVH+Q5vuh5lu9LOX/yutTlAyS5rfaxi9xH+/nkfMrtlI4d2qrO11WvqVWdc3XzvDd1ue/2+Zod2EvHSpIkSZIkSZIkSZIkSdKmlPmqauZp94ayJUnlHYszYFs6Vhq70u7fi3yQR5IkSZIkSZIkSZIkSZIOMkPZkrTjZbfifB9ulh2LS8dKY1Y6V7P7d+lYSZIkSZIkSZIkSZIkSdqkDGVL0iHo3J/8wTMGXX1f1iZ29WVvO+s8/e1PnVc8VpIkSZIkSZIkSZIkSZI2KUPZknQIuv34O88YdE0fu/Kni8dKY/TdP/n1yQ//g79/xjmaP+fy0vGSJEmSJEmSJEmSJEmStEkZypakQ1Bp4PWt//v/VjxWGqO7fvOCM87PdOJf/2zxWEmSJEmSJEmSJEmSJEnatAxlS9IhKQOu+X7c7JG731s8Vjro3n/0x884N3/g7/3dyfN/8L7isZIkSZIkSZIkSZIkSZK0aRnKlqRD0ktfe//kY1f+9ORdP/8jk/Pe/g8nV1z6U3uXlY6VDrrslN08N/Pn0nGSJEmSJEmSJEmSJEmStIkZypYkSZIkSZIkSZIkSZIkSZKkJTKULUmSJEmSJEmSJEmSJEmSJElLZChbkiRJkiRJkiRJkiRJkiRJkpbIULYkSZIkSZIkSZIkSZIkSZIkLZGhbEmSJEmSJEmSJEmSJEmSJElaIkPZkiRJkiRJkiRJkiRJkiRJkrREhrIlSZIkSZIkSZIkSZIkSZIkaYkMZUuSJEmSJEmSJEmSJEmSJEnSEhnKliRJkiRJkiRJkiRJkiRJkqQlMpQtSZIkSZIkSZIkSZIkSZIkSUtkKFuSJEmSJEmSJEmSJEmSJEmSlshQtiRJkiRJkiRJkiRJkiRJkiQtkaFsSZIkSZIkSZIkSZIkSZIkSVoiQ9mSJEmSJEmSJEmSJEmSJEmStESGsiVJkiRJkiRJkiRJkiRJkiRpiQxlS5IkSZIkSZIkSZIkSZIkSdISGcqWJEmSJEmSJEmSJEmSJEmSpCUylC1JkiRJkiRJkiRJkiRJkiRJS2QoW5IkSZIkSZIkSZIkSZIkSZKWyFC2JEmSJEmSJEmSJEmSJEmSJC2RoWxJkiRJkiRJkiRJkiRJkiRJWiJD2ZIkSZIkSZIkSZIkSZIkSZK0RIayJUmSJEmSJEmSJEmSJEmSJGmJDGVLkiRJkiRJkiRJkiRJkiRJ0hIZypYkSZIkSZIkSZIkSZIkSZKkJTKULUmSJEmSJEmSJEmSJEmSJElLZChbkiRJkiRJkiRJkiRJkiRJkpbIULYkSZIkSZIkSZIkSZIkSZIkLZGhbEmSJEmSJEmSJEmSJEmSJElaIkPZkiRJkiRJkiRJkiRJkiRJkrREhrIlSZIkSZIkSZIkSZIkSZIkaYkMZUuSJEmSJEmSJEmSJEmSJEnSEhnKliRJkiRJkiRJkiRJkiRJkqQlMpQtSZIkSZIkSZIkSZIkSZIkSUtkKFuSJEmSJEmSJEmSJEmSJEmSlugghrKfO93k9hP/bO/OJEmSJEmSJEmSJEmSJEmSJGmXOvGvf7Yeys7s9Fr8zenqO5EkSZIkSZIkSZIkSZIkSZKkXS2z02vx6ukmb3vb2yY//dM/LWmLOr1275ckSZIkSZIkSZIkSZIkSdLMHjldZi8zO70WT59u8ru/+7uTr33ta5K2qOkSBgAAAAAAAAAAAGCG806X2cvMTq+FoWxpS5suYQAAAAAAAAAAAABmMJQtqdx0CQMAAAAAAAAAAAAwg6FsSeWmSxgAAAAAAAAAAACAGQxlSyo3XcIAAAAAAAAAAAAAzGAoW1K56RIGAAAAAAAAAAAAYAZD2ZLKTZcwAAAAAAAAAAAAADMYypZUbrqEAQAAAAAAAAAAAJjBULakctMlDAAAAAAAAAAAAMAMhrIllZsuYQAAAAAAAAAAAABmMJQtqdx0CQMAAAAAAAAAAAAwg6FsSeWmSxgAAAAAAAAAAACAGQxlSyo3XcIAAAAAAAAAAAAAzGAoW1K56RIGAAAAAAAAAAAAYAZD2ZLKTZcwAAAAAAAAAAAAADMYypZUbrqEAQAAAAAAAAAAAJjBULakctMlDAAAAAAAAAAAAMAMhrIllZsuYQAAAAAAAAAAAABmMJQtqdx0CQMAAAAAAAAAAAAwg6FsSeWmSxgAAAAAAAAAAACAGQxlSyo3XcIAAAAAAAAAAAAAzGAoW1K56RIGAAAAAAAAAAAAYAZD2ZLKTZcwAAAAAAAAAAAAADMYypZUbrqEAQAAAAAAAAAAAJjBULakctMlDAAAAAAAAAAAAMAMhrIllZsuYQAAAAAAAAAAAABmMJQtqdx0CR+cH73sYz9w5OiJi45cfOKGcy4+ftc5R4/ff/p/P3/6som0ik6fUy/lvKrOrRtOX/b+n/rlYz9cnYIAAAAAAAAAAACwKEPZkspNl/D6HXnvifMyhH3k4hPfbQ/RSgfUQ6d7f3VKAgAAAAAAAAAAwLwMZUsqN13C63PkPSfO3duxuDEc+2vX3TG5+Y6HJl977Jt7fesv/3oCq/LCS6/un1uf/c//Y3L1v/3d5mB2dtJ+5JyLb3xXdYoCAAAAAAAAAADAUIayJZWbLuH1OHLxiavrQdh3/Npv7Q1iZ2AWDtr33vibyb1f+cbkon/1H5vD2SeqUxUAAAAAAAAAAACGMJQtqdx0Ca/ekaMnbq6HXz9xy38zjM3GyO7Z/+SSf/+/qsHs+4+858RbqtMWAAAAAAAAAAAA+hjKllRuuoRXqx7IfvuvnJzc+X//cTUKC5vjj//0ub3d26sPDjz0o5d97Aeq0xcAAAAAAAAAAAC6GMqWVG66hFfnyMUnrq4Hsh889XQ1Agub51t/+deTX7zis3uD2edcfPy3q1MYAAAAAAAAAAAAuhjKllRuuoRX48h7Tpxb7Txsh2y2QnbMzgcIqvP2/dWpDAAAAAAAAAAAACWGsiWVmy7h1Thy9MRDGW79xC3/rRp5hc33X37/8elQ9sUnnv/Ryz72A9XpDAAAAAAAAAAAAG2GsiWVmy7h5R05euKiDLa+49d+a/LCS69W466wHS750G31YPbV1SkNAAAAAAAAAAAAbYayJZWbLuHlnXP0+P0Zar3t905VY66wPX7/4af2d8uuTmkAAAAAAAAAAABoM5Qtqdx0CS/nyHtOvOXcoye+9/ZfOTn5zqvfq8ZcYbv84hWfnQ5mv/dEfmgCAAAAAAAAAABAm6FsSeWmS3g5R46eeH+GWX/9o/+pGm+F7XPTbQ/WQ9mfqk5tAAAAAAAAAAAAaDKULancdAkv58jREzdnmPW23ztVjbfC9vnjP31uOpR99MRD1akNAAAAAAAAAAAATYayJZWbLuHlHDl64t4Ms37tsW9W462wfV546dW9oexzjh5f2w9LAAAAAAAAAAAAtpqhbEnlpkt4OeccPf5Ihln/7M9frMZbGeLLD5yaXHnVsb2ee/6F6lLGlPP4yMUnvlud2gAAAAAAAAAAANBkKFtSuekSXs45R4+/lGHW77z6vWq0dbtkIPrUI9/Y75VXXqu+sl6f+dzdk5/7hcv3yv1ug2eefW7vcaeDep0O0jt+7bf2BrOrUxsAAAAAAAAAAACaDGVLKjddwsvZ2134dNvk9dffmNxx532Td190zf5gdLPsXv3QVx+tjl6PbRzKvu76k/uPOa/frqnP5erUBgAAAAAAAAAAgCZD2ZLKTZfwcrZtKDsD2Rm6roeL+/r2iy9X11q9bRzKvvbDx/cf8113319deqYMs+e5ffmBU9Ul28NQNgAAAAAAAAAAAD0MZUsqN13Cy9m2oeybTt6+P1h82eU37A0PZ1A7nnjy2cmtt92zv4P2c8+/sHf5OmzjUPYzzz6397jTK6+8Vl16pvde8pG955R/bhtD2QAAAAAAAAAAAPQwlC2p3HQJL2fbhrIvuPDKvaHhDF537YSdIe3sBF0Pa6/DNg5lD2EoGwAAAAAAAAAAgB1lKFtSuekSXs42DWVnp+d6EPq6609Wl47DUPbmMZQNAAAAAAAAAABAD0PZkspNl/BytmkoO8PP9SD0lVcdqy6dzxNPPrs3UH3rbff07qT93PMv7B2XXnnlterSN5WGsnPcPV94cHLsxlsnn/jUZ/d268799akfzx133lddMtnbAfyLX3p473ZSvlZ6DPV1r/3w8b1/PvTVRwc9p/bt5f7yeuRr9U7k+Wf+XJfrrHPn8VUwlA0AAAAAAAAAAEAPQ9mSyk2X8HK2aSg7g8T1IPR5539wb8h4XhmWrm+j7/oZRK6PK+2E3f76lx84NXn3RdfsX9Ys99mleTuRwep6MLpZLsvXIsPRN528/axjUobVSwPc0fWcMnDdvI2uSq/DJjGUDQAAAAAAAAAAQA9D2ZLKTZfwcrZpKDsuu/yG/SHh917ykckzzz5XfWWYdQxlX3f9yf3/nceUwej8s74sdQ1mN28nO2vX/ztD2Lmd5oB2PYienbHry+r7q/+c8nhKup5Thr1zGyn3ka/nn/VldYsMwR8kQ9kAAAAAAAAAAAD0MJQtqdx0CS9n24ayH3v8qf3B4brsGv3tF1+ujui3jqHslMeUHaebsnt287E+8eSz1VfeVLqde77wYPXV6e7gzUH0ekg7w9jN28v/bg5wz7qvrl2v62Hy/HPbGMoGAAAAAAAAAACgh6FsSeWmS3g52zaUHRl2bg4g12XgetZw9jqGsjNInd2mS2697Z7940q7ZQ+5nQyi18ekDEyXHnvztnK/bYayAQAAAAAAAAAAOMQMZUsqN13Cy9nGoex45tnnJtddf3J/yLgug80ZPu6yjqHs5s7Wbdnput4tO/9sG3o7777omv3juh53c3j72I23Vpe+yVA2AAAAAAAAAAAAh5ihbEnlpkt4Ods6lF174slni8PZH7jik5PXX3+jOupN6xjK7hpwruWx1MdmSLtp6O00b6NLnk99zKxduQ1lAwAAAAAAAAAAcMgYypZUbrqEl7PtQ9m1DGc3B5fTzbd8vvrqm8YYyv7oxz+9f2x2+G4aejtXXnVs/7guhrINZQMAAAAAAAAAANDJULakctMlvJxdGcquNYeuzzv/g2ftlj3GUHbzPtvHGspeHUPZAAAAAAAAAAAA9DCULancdAkvZ9eGsuOCC6/cHz7ODtpNzQHp9q7VTesaym4PghvKXh1D2QAAAAAAAAAAAPQwlC2p3HQJL2cXh7Kvu/7k/vDxF7/0cHXp1M23fH7mYHKscij7A1d8cv/YNkPZq2MoGwAAAAAAAAAAgB6GsiWVmy7h5eziUHZzCLq9M/Udd963/7X2wHZTc3frWUPZ93zhwerSs73yymuT887/4N5x777omurSN23aUPal77t+7+t5zNvGUDYAAAAAAAAAAAA9DGVLKjddwsvZpqHsDFE/8eSz1Z/Knnn2uf0h6AsuvLK69E0ZoK4Hk7OjdklzeDnNGsrO/T301Uerr5zp1tvu2T/uppO3V5e+adOGsq/98PH9Y2a91pvGUDYAAAAAAAAAAAA9DGVLKjddwsvZpqHsehfnYzfeOnns8aeqS9/05QdOTd57yUf2h4ozEN327Rdf3h/aTs1drrOr9c23fH7/a3WzhrJTbjO39frrb1RHTPYGtZtfz323bdpQdnOH8LwW28RQNgAAAAAAAAAAAD0MZUsqN13Cy9mmoezsbF0PDNd94IpPnjGwXNe1C3Zkx+rmsZddfsMZt5EdtmcNMNdff/dF15zxuDJ8ndtqDoen0oB4bNpQdgbb62NSnl/uO8+r7/FtAkPZAAAAAAAAAAAA9DCULancdAkvZ5uGsrPT9Ec//ukzhobbZaA6A9DNHavb8rXstl26fnbjfubZ5/YGkOvL+oayM3wdpR22U4aZv/ilh/eOKdm0oexo7pbdrLQ7+SYxlA0AAAAAAAAAAEAPQ9mSyk2X8HK2aSi7luHse77w4N6QcYaVM0Sc/53LXnnlteqo2TJkfMed9+1fvzmonMHtXJZKt/nEk8/u32etvuzaDx/fG9LOMHYGpfvU1+m6n1p2sM4xd919f3VJWZ5PjisNXQ+9r6jvL88lO4v3DZZvCkPZAAAAAAAAAAAA9DCULancdAkvZxuHsqHEUDYAAAAAAAAAAAA9DGVLKjddwssxlM2uMJQNAAAAAAAAAABAD0PZkspNl/ByDGWzKwxlAwAAAAAAAAAA0MNQtqRy0yW8HEPZ7ApD2QAAAAAAAAAAAPTYvKHsU6dOTb75zW9OXnzxxclrr71WjcPB4fTd73538tJLL02+9a1vTf7oj/6ouGbW1XQJL8dQNrvCUDYAAAAAAAAAAAA9Nmso+4knnpi88cYb1Qgc0PS3f/u3k6effrq4dtbRdAkvx1A2u8JQNgAAAAAAAAAAAD02Zyg7A9nAbM8880xxDa266RJejqFsdoWhbAAAAAAAAAAAAHpsxlD2qVOn7JANA33/+9+f/Mmf/ElxLa2y6RJejqFsdoWhbAAAAAAAAAAAAHpsxlD2t771rWrsDRjihRdeKK6lVTZdwssxlM2uyHn8s5f/zuT8ax8cpf/j2gffXy0rAAAAAAAAAAAANs9mDGW/9NJL1dgbMMRrr71WXEurbLqEl2Mom11Rn8vVqX2gzr/mD37bUDYAAAAAAAAAAMBG24yh7O9973vV2BswxPe///3iWlpl0yW8HEPZ7ApD2QAAAAAAAAAAAPTYjKFsYH6ltbTKpkt4OYay2RWGsgEAAAAAAAAAAOhhKJszPfPsc5PPfO7uyRe/9HB1yWJWdTt0K62lVTZdwssxlM2uMJQNAAAAAAAAAABAD0PZnOkTn/rs5Od+4fK9nnv+herS+c26nddff2Ny6pFvLHUfh11pLa2y6RJejqFsdoWhbAAAAAAAAAAAAHoYyh5bhpM/+vFPT6686lixm2/5/IHuNn1QQ9l5bvXXn3jy2epS5lFaS6tsuoSXYyibXWEoGwAAAAAAAAAAgB6Gssf25QdO7Q8n9/Xui645kOHsgxrKvuDCK/e/fpBD57uktJZW2XQJL8dQNrvCUDYAAAAAAAAAAAA9DGWP7Z4vPLg/nJzdoz/zubv3yg7Z+fN5539w/+vpjjvvq665Hgc1lJ3nl0HzPMdvv/hydSnzKK2lVTZdwssxlM2uMJQNAAAAAAAAAABAD0PZY2sOZWcYu+311984Y8A5Q9rrHGI+qKFslldaS6tsuoSXYyibXWEoGwAAAAAAAAAAgB6Gssc2ayi7du2Hj+8fd+zGW6tLV89Q9vYoraVVNl3Cy9nEoex80OG9l3xk//wsdd31Jyd33X3/3rEQhrIBAAAAAAAAAADoYSh7bEOHsu+487794zKgXXLqkW9MXnnltepP3R57/KnO3ba7hqnzv3P7acig6pCh7NzW0F2/c5/1/Q99DLuutJZW2XQJL2cTh7Jz/tTn5qwufd/1kyeefLa6Juvy0Fcf3fv+9+UHTlWXbB5D2QAAAAAAAAAAAPQwlD22oUPZGQxtDoq2XXnVsb2vnXf+B6tLyprD0qWB6PYw9TPPPrd/280uu/yG3mHVWUPZsx5HLQPkeb71sXV5njedvH3QEPquKq2lVTZdwsvZ9KHsfMChOeyfoeDsRN8819590TU+BLBm9c7l+eemMpQNAAAAAAAAAABAD0PZYxs6lJ2dZOvjrrv+ZHXpm5qD033mGZa+6+7794af6z+3u+DCKzsHs+e5n66dtPN61Md0leHww6q0llbZdAkvZ9OHsnMeluTDAPWgcOpbmyzPUHY/Q9kAAAAAAAAAAAAbz1D22IYOZd962z29x61jKLsul9XHZgj7ox//9P7XsotwyTz3U/p6c2fwDIbndap31M7xeQ0yFJ6vH1altbTKpkt4Ods6lB3NDwVkR23Wx1B2P0PZAAAAAAAAAAAAG89Q9tiGDGVnGLkeQE7ZxbdtXUPZeXxtr7/+xhn39+UHTlVfedOyQ9kZgq2/nl3CS5559rneQfZdV1pLq2y6hJezzUPZzeMufd/11aVne+WV1/aOzbmYDyzkn1/80sN75+dQ+RBC1tpNJ2/fu4077rxv/0MIWW/5UEZuN/fVluvmazkmx3apP8zQdTtNyz6nHJfHk+eT7xX5Z67ffHx5fvXzqr+/5Z/1Y0x5Hfqe00EylA0AAAAAAAAAAEAPQ9ljmzWUnYHk7EZdH3Psxlurr5xpHUPZGYjsksdVH3fd9SerS9+0zFB2c5fsyy6/obqUttJaWmXTJbycbR7Kzocf6uOyvkpyW8312e7mWz5fHdmtuQt+swwo5/tD1kd9We6vbdZaq+X7S9/t1JZ5Thmgbj6edhlur4es8/2ldEy7vsd6kAxlAwAAAAAAAAAA0MNQ9tiaQ9nvveQje8OfKf+7OZiYPnDFJzt3jV3HUHbfgGcex3nnf3DvuDzWtmXuJztv11+76+77q0tpK62lVTZdwsvZ5qHsDB/Xx5UGkZtDxRlirneUzgcnmuu3a6A7cmx9XMrQcnMtp+ZaWfdQ9rLPqfma5ZhcN+Ux1rth148xH+zIMan+XpJ/1pfV9T2ng2QoGwAAAAAAAAAAgB6GssfWHMruKsOMs4aTM7xYH99n1gDn0AHPaA5pti1zP82dgzOgTVlpLa2y6RJezrYOZX/xSw+fMSj87Rdfrr4ylXO2/np2c29//ZVXXtvbQb6+n9J53NwRPreVP9dy/eaAc906h7KXfU75ev21DHO35esZ+i59sKT+XlL6gMemMJQNAAAAAAAAAABAD0PZY2sOZWewut5ZNmXosWtH27YxhrKzc3fXscvcT3P34Mcef6q6lLbSWlpl0yW8nE0fys7wcXPN5bzMbtX11/OBiNIarIeTM8T8zLPPVZeeKUPN9ZBz1kpbc8A5Q+AleUz1MWmdQ9nLPqes1fr2831tHoay+xnKBgAAAAAAAAAA2HiGssfWHMrO0OSixhjKzkBrfWzbMvfT/NrQofTDqLSWVtl0CS9n04ey+8p5WDp3Z+0I3ZSv18c2Zbfo+vJ3X3RNdWnZrPUwa63V+oayV/Gcmjt/5zHNw1B2P0PZAAAAAAAAAAAAG89Q9tjWMZTdN5g5a4Bz6IBn9A1SLnM/zeHRrh2EMZS9qOZQdgais3aa66fu5ls+X13jTM3h41tvu6e6tOymk7fvH9s8z7MTdX35rCHoWTtcD12zfbeziucUeT3rr2XH++ysPYSh7H6GsgEAAAAAAAAAADaeoeyxrWoouzmYmQHLLs1dbucdlm7K1+rjMtDatsxQdvM1mTUgepiV1tIqmy7h5Wz6UHbOw6aHvvroGYPFpcHsLz9wav/r89QchM791JfPWvcHMZS9iucU+fN5539w/+v53/meU3rcTYay+xnKBgAAAAAAAAAA2HiGsse2qqHs5sDlXXffX116puZ9pVnD0td++Pjk9dffqL5ypub9lQZXlxnKbu4inAHZrscQfUOou660llbZdAkvZ9uGsiPnXz1YnH+2P+TQXkdDuuDCKyevvPJadQvzffDgIIayV/Gcanm9SjuPf+CKT+69tiWGsvsZygYAAAAAAAAAANh4hrLHtqqh7OZOt5e+7/qzhiVLQ5ezhqVTaTD7scefOmNo9dsvvlx95U3LDGXHddef3P96aXA2jynD4Pl6aTD0MCitpVU2XcLL2cah7Ljjzvv2j8m52NRca10fgJjli196eP82Zq37eYayu4aeo+92VvGc2jKcfezGW/e/V6QMcpe+XxjK7mcoGwAAAAAAAAAAYOMZyh7bqoayI8PY9W1ddvkNezvwZsAy/7u+vLmDbd+wdIYjM0CZ/51/5vLcVv5ZX55Ku2RHc1B0kaHsDHTWX095Dnl96rKDdv01Q9nrabqEl7OtQ9kZ+q/P8/YHD5rnZtf5P0s+2FDfxkc//unq0rK+YeqoP5zQ9fVa3+2s4jl1yWuXD3fUt196zQ1l9zOUDQAAAAAAAAAAsPEMZY9tlUPZGbRsDis3y4Bpvt68v75h6QxvZ1Cz6/bSTSdvr651tmWHsiO79zYHwEst+5pts9JaWmXTJbycbR3KjuzyXB+XDzjU8iGA+vIMGy8ig8r1bcwaRG6uldLQdXNX7+zA3aXvdlbxnPpkyL3eMTsfsGirP1CSYzaVoWwAAAAAAAAAAAB6GMoeWwafMwCdMoS8rAx7Zli63hH7A1d8cm/n23rwOTv01vdX2mE6A575Wj3snGNy/Xo4OwOVGe6c9Vjr28mAZ9/9dH29lueT+8+x9YB2hlgzMNs1zH1YlNbSKpsu4eVs81B2c/fonP9Nzd3nc9wimrdRGraO7E5fH9N1XPODFtddf7K69EzNXbK7bmcVz6lP83tIW3Mn7XXc9yoYygYAAAAAAAAAAKCHoWzYVqW1tMqmS3g52zyUHc1B5eYHEfLhhvryDBvnzyX5wEGGpksfYmgOXOcDB+0PGbQHqVNpmDofXKh3oU65v1r9oYrmbaTS7Sz7nHI/+UBIHk/bQ199dP+284GKtuYu3rmdTWQoGwAAAAAAAAAAgB6bMZT9t3/7t9XYGzBUaS2tsukSXs62D2VnR/f62PYu1M1B4pTd3HNZhqnzz+xSX3+tdD8Zbm4Ofaf8ObeT3eDz5wxb58/110vD1JFh6PqYVN9O/ecMfTeHvLtuZ5nn1LxurpfrpLxu9eWl4fPIgHd9TMpQeG4jz7/rsR40Q9kAAAAAAAAAAAD02Iyh7O985zvV2BswxPe+973iWlpl0yW8nHqQ9Xtv/E31yMc3z1B2exfqDFI3ZcfoDBrXXy+VAePsFF2S22sOTzfLYHYe65Bh6tdff2NvB+rm9esufd/1k2eefe6M59036Lzoc8pt9l0vz6dr9+1oDnU367vOQXr7r5w0lA0AAAAAAAAAAECXzRjK/ou/+Itq7A0Y4qWXXiqupVU2XcLLOefo8aczyPqtv/zr6pGPLwPMt952z96wc99wci27OOfYXCfXbcvgdm4nx2Qwut4lOrtsDx0oznE5/qMf//TertcZjK7va8hQdq2+nQw4t59fbi+XpfZweduizyn3Ub9e2SG7fhxf/NLD1RH96ute++Hje6/D0OsdBEPZAAAAAAAAAAAA9NiMoexHH3108v3vf78afQNm+cY3vlFcS6tsuoSXc87R4/dnkPVrj32zeuTMK0PKQ4eyWY/vvPq9vYHsIxefeL46tQ+UoWwAAAAAAAAAAICNtxlD2emb3zS0CUP81V/9VXENrbrpEl7OORcf/+0Ms977FcPEizKUPb4/+/MX94ayzzl6/JHq1D5QhrIBAAAAAAAAAAA23uYMZafnn3++GoEDSl544YXJH/7hHxbXz6qbLuHlnHPR8esyzPobJ/9r9QyYl6Hs8d32e6emO2UfPXF7dWofKEPZAAAAAAAAAAAAG2+zhrLT//yf/3Py8ssvT954441qHA4Ot7/927+dfOc735k88cQTxTWzrqZLeDn/+Oi/+4kMs77z8v9QPRvmZSh7fL/+0f803Sn74ht/tTq1D5ShbAAAAAAAAAAAgI23eUPZkjaj6RJe3jlHjz+dgdavPfbNasSVeRjKHtcLL706+SeX/Pv/deTiE9898p4Tb6lO6wNlKBsAAAAAAAAAAGDjGcqWVG66hJd35OITV2coO7sNM79vv/jy3mD2HXfeN3nlldeqSzkoxz7336tdso/fVZ3SB85QNgAAAAAAAAAAwMYzlC2p3HQJL+9HL/vYDxy5+MTzGWy99yt2emZ7/Nmfv9jcJfut1Sl94AxlAwAAAAAAAAAAbDxD2ZLKTZfwahw5euL9Gcr+f7/vN/9XBl1h033vjb+ZXPKh26a7ZB89fqI6lUdhKBsAAAAAAAAAAGDjGcqWVG66hFfnnIuP35UB11+84rOT77z6vWr0FTbTb5z8r3sD2UcuPvH17PZencajMJQNAAAAAAAAAACw8QxlSyo3XcKrk8HWDLhm0DU7EH/rL/+6Gn+FzZEdsvcHso+eePkfH/13P1GdwqMxlA0AAAAAAAAAALDxDGVLKjddwqt15D0n3nrO0eNPZ+D1Hb/2W5MHTz1djcLC+P7sz1/c+8BAPZB9zsU3vqs6dUdlKBsAAAAAAAAAAGDjGcqWVG66hFfvyHtOvOWco8fvrwZfJ//y39w1+caf/VU1FgsH7zuvfm9y020PTv7JJf/+f+2dlxef+Pom7JBdM5QNAAAAAAAAAACw8QxlSyo3XcLrc+TiEzecc/T4S/Vw9q9dd8fktt87NXnhpVerUVlYnwxi/5fff3xy9b/93cnbf+VkvTv25PQ5eSIfHKhO041gKBsAAAAAAAAAAGDjGcqWVG66hNfrp3752A/vDcFWA7HNMij7zsv/w1mXS4v2jl/7rb1KXzvn4uN3bdLu2E2GsgEAAAAAAAAAADaeoWxJ5aZL+GD86GUf+4EjR09cdM7Fx3/7nKPHH2kPzEqr7vR59nQGsU//7/fnwwHVqbiRDGUDAAAAAAAAAABsPEPZkspNlzAwNkPZAAAAAAAAAAAAG89QtqRy0yUMjM1QNgAAAAAAAAAAwMYzlC2p3HQJA2MzlA0AAAAAAAAAALDxDGVLKjddwsDYDGUDAAAAAAAAAABsPEPZkspNlzAwNkPZAAAAAAAAAAAAG89QtqRy0yUMjM1QNgAAAAAAAAAAwMYzlC2p3HQJA2MzlA0AAAAAAAAAALDxDGVLKjddwsDYDGUDAAAAAAAAAABsPEPZkspNlzAwNkPZAAAAAAAAAAAAG89QtqRy0yUMjM1QNgAAAAAAAAAAwMYzlC2p3HQJA2MzlA0AAAAAAAAAALDxDGVLKjddwsDYDGUDAAAAAAAAAABsPEPZkspNlzAwNkPZAAAAAAAAAAAAG89QtqRy0yUMjM1QNgAAAAAAAAAAwMYzlC2p3HQJA2MzlA0AAAAAAAAAALDxDGVLKjddwsDYDGUDAAAAAAAAAABsPEPZkspNlzAwNkPZAAAAAAAAAAAAG89QtqRy0yUMjM1QNgAAAAAAAAAAwMYzlC2p3HQJA2MzlA0AAAAAAAAAALDxDGVLKjddwsDYDGUDAAAAAAAAAABsPEPZkspNlzAwNkPZAAAAAAAAAAAAG89QtqRy0yUMjM1QNgAAAAAAAAAAwMYzlC2p3HQJA2MzlA0AAAAAAAAAALDxDGVLKjddwsDYDGUDAAAAAAAAAABsPEPZkspNlzAwNkPZAAAAAAAAAAAAG89QtqRy0yUMjM1QNgAAAAAAAAAAwMYzlC2p3HQJA2MzlA0AAAAAAAAAALDxDGVLKjddwsDYDGUDAAAAAAAAAABsPEPZkspNlzAwNkPZAAAAAAAAAAAAG89QtqRy0yUMjM1QNgAAAAAAAAAAwMYzlC2p3HQJA2MzlA0AAAAAAAAAALDxDGVLKjddwsDYDGUDAAAAAAAAAABsPEPZkspNlzAwNkPZAAAAAAAAAAAAG89QtqRy0yUMjM1QNgAAAAAAAAAAwMYzlC2p3HQJA2MzlA0AAAAAAAAAALDxDGVLKjddwsDYDGUDAAAAAAAAAABsPEPZkspNlzAwNkPZAAAAAAAAAAAAG89QtqRy0yUMjM1QNgAAAAAAAAAAwMYzlC2p3HQJA2MzlA0AAAAAAAAAALDxDGVLKjddwsDYDGUDAAAAAAAAAABsPEPZkspNlzAwNkPZAAAAAAAAAAAAG89QtqRy0yUMjM1QNgAAAAAAAAAAwMYzlC2p3HQJA2MzlA0AAAAAAAAAALDxDGVLKjddwsDYDGUDAAAAAAAAAABsPEPZkspNlzAwNkPZAAAAAAAAAAAAG89QtqRy0yUMjM1QNgAAAAAAAAAAwMYzlC2p3HQJA2MzlA0AAAAAAAAAALDxDGVLKjddwsDYDGUDAAAAAAAAAABsPEPZkspNlzAwNkPZAAAAAAAAAAAAG2/zhrI/9bmHJudf++B+X/zvb37tl3/jD876c/PYdq7rul257vDr/vOrHnrrdDn/nb9z+s9Pt//cPLad67puV647/LrnX/Pgf6qHsk//2WtVuE6d67puV67rul25rut25bqu25Xrum5Xruu6Xbmu63bluq7bleu6bleu67pdua7rduW6rtuV67puV67rul25rut25bqu25Xrum5XrrvYdZvslC1tadMlDIzNTtkAAAAAAAAAAAAbb/N2ypa0GU2XMDA2Q9kAAAAAAAAAAAAbz1C2pHLTJQyMzVA2AAAAAAAAAADAxjOULancdAkDYzOUDQAAAAAAAAAAsPEMZUsqN13CwNgMZQMAAAAAAAAAAGw8Q9mSyk2XMDA2Q9kAAAAAAAAAAAAbz1C2pHLTJQyMzVA2AAAAAAAAAADAxjOULancdAkDYzOUDQAAAAAAAAAAsPEMZUsqN13CwNgMZQMAAAAAAAAAAGw8Q9mSyk2XMDA2Q9kAAAAAAAAAAAAbz1C2pHLTJQyMzVA2AAAAAAAAAADAxjOULancdAkDYzOUDQAAAAAAAAAAsPEMZUsqN13CwNgMZQMAAAAAAAAAAGw8Q9mSyk2XMDA2Q9kAAAAAAAAAAAAbz1C2pHLTJQyMzVA2AAAAAAAAAADAxjOULancdAkDYzOUDQAAAAAAAAAAsPEMZUsqN13CwNgMZQMAAAAAAAAAAGw8Q9mSyk2XMDA2Q9kAAAAAAAAAAAAbz1C2pHLTJQyMzVA2AAAAAAAAAADAxjOULancdAkDYzOUDQAAAAAAAAAAsPEMZUsqN13CwNgMZQMAAAAAAAAAAGw8Q9mSyk2XMDA2Q9kAAAAAAAAAAAAbz1C2pHLTJQyMzVA2AAAAAAAAAADAxjOULancdAkDYzOUDQAAAAAAAAAAsPEMZUsqN13CwNgMZQMAAAAAAAAAAGw8Q9mSyk2XMDA2Q9kAAAAAAAAAAAAbz1C2pHLTJQyMzVA2AAAAAAAAAADAxjOULancdAkDYzOUDQAAAAAAAAAAsPEMZUsqN13CwNgMZQMAAAAAAAAAAGw8Q9mSyk2XMDA2Q9kAAAAAAAAAAAAbz1C2pHLTJQyMzVA2AAAAAAAAAADAxjOULancdAkDYzOUDQAAAAAAAAAAsPEMZUsqN13CwNgMZQMAAAAAAAAAAGw8Q9mSyk2XMDA2Q9kAAAAAAAAAAAAbz1C2pHLTJQyMzVA2AAAAAAAAAADAxjOULancdAkDYzOUDQAAAAAAAAAAsPEMZUsqN13CwNgMZQMAAAAAAAAAAGw8Q9mSyk2XMDA2Q9kAAAAAAAAAAAAbz1C2pHLTJQyMzVA2AAAAAAAAAADAxjOULancdAkDYzOUDQAAAAAAAAAAsPEMZUsqN13CwNgMZQMAAAAAAAAAAGw8Q9mSyk2XMDA2Q9kAAAAAAAAAAAAbz1C2pHLTJQyMzVA2AAAAAAAAAADAxjOULancdAkDYzOUDQAAAAAAAAAAsPEMZUsqN13CwNgMZQMAAAAAAAAAAGw8Q9mSyk2XMDA2Q9kAAAAAAAAAAAAbz1C2pHLTJQyMzVA2AAAAAAAAAADAxjOULancdAkDYzOUDQAAAAAAAAAAsPEMZUsqN13CwNgMZQMAAAAAAAAAAGw8Q9mSyk2XMDA2Q9kAAAAAAAAAAAAbz1C2pHLTJQyMbZOHso+858Rbjhw98f7T3XzO0eP3n/7nQ6ebSOvq9Hn2SM61cy4+/ttHLj5x9elz8K3V6QgAAAAAAAAAAGMylC2p3HQJA2PbxKHsI+85ce6Roydubw/MSiOVDwNcVJ2eAAAAAAAAAAAwBkPZkspNlzAwtk0ayq52xr65MQw7+Zf/5q7Jnf/3H0++9tg394J1+uM/fW7vPLv3K9+Y/F/HvzB5x6/91v65mB20//HRf/cT1elKy0/98rEfPuei41dkl/G93caPHn+kuZZ1cJ1+7Z+udny/6/R7cp3zFgAAAAAAAAB2gqFsSeWmSxgY26YMZWdo8MjFJ75eDxUe+9x/n7zw0qvVqCyM43tv/M3ktt871RzOfvmci298V3XactqR95447/Trcm+9drWhTb+/btR/FQEAAAAAAAAAmIuhbEnlpksYGNsmDGXvDWQfPfFyBgcv+lf/cfJnf/5iNRILm+E7r35vcvW//d3mkOtF1el7aO3tjH3x8bvq1+Ttv3Jy7zX6L7//+N5u49l1nHHke2jeg99/+KnJb5z8r5N3Xv4f9s/d7GD+totv/JnqbQQAAAAAAAAAtoehbEnlpksYGNvYQ9lH3nPiLeccPf50hgX/5b+5a2/4FTZVdnCvhltfzocJqtP40Dm9bs+t1212Ef/sf/4fe7uKs7kyoP2LV3x2ev5efOK751x8469WbycAAAAAAAAAsB0MZUsqN13CwNhGH8o+euL2DAlmh2xDnWyDesfs7DhcncaHSgayTz//vZ3tL/nQbZMXXnq1emXYBv/X8S/UHyyYGMwGAAAAAAAAgK1iKFtSuekSBsY25lB2Ndw5efuvnJx86y//uhoZhM2WDw+88/L/UO84fHV1Oh8KP/XLx364ubO9D1Jsp5vveGjv/D336Invve3iG3+mensBAAAAAAAAgM1mKFtSuekSBsY26lD20RP3ZjDw2Of+ezUqyGH1iU99dvJzv3D55L2XfKS6ZLP9/sNP1UPZz//oZR/7geqU3nnnXHz8rjzv7JBtIHu7feKW/3Yoz2EAAAAAAAAA2GKGsiWVmy5hYGxjDWVnx90MBGaX7BdeerUaE9xcr7/+xuSeLzw4+czn7j6rXP7Y409VR7KIK686tjeUnbbFRf/qP+4NtZ5z8Y3vqk7rnXb6uV6U55tdwrdhzR6kb7/48v73g2eefa669E2zvj6GDNVnuL4azD5UO74DAAAAAAAAwJYylC2p3HQJA2Mbayj7nIuOX5FhwKv/7e9WI4Kb7a67798fGu7qgguv3NvxOQOYzGcbh7JvvuOh6UDr0RM3V6f1Tjv9PB/K873t905Vr8Dmy4cpnnjy2epP65MPZtTnb/5326yvj+Ww7vgOAAAAAAAAAFvKULakctMlDIxtrKHsI0dP3J5hwP/y+49X44GbLTvc1kOVs3r3RdfYOXtO2ziU/Y0/+6t6oPXr1Wm9s46858Rb81zf8Wu/tbfD8ia74877Jh/9+Kcnl77v+jPW5Xsv+cjk2I23rmWn6m0dyo793bKPnrioersBAAAAAAAAgM1kKFtSuekSBsY24lD23q67f/ynqx+QXIfmUHZ7qPKVV16b3HrbPZPzzv/g/jGXXX5D9VWG2Mah7Awn5xw+5+jxl6rTemedc9Hx6/Jcf+Pkf62e/ebJDvUfuOKT++dRXxnOXqVtHsr+7H/+H9Pz+OLjv1293QAAAAAAAADAZjKULancdAkDYxtrKPuco8efziDgt/7yr6vRwM3WN5Rdyw68zcHsU498o/oKs2zjUHZk5+icx9VpvbPOufj4XXme935lM8/prLULLrxy/xzKrtjXXX9y78MSX/zSw3vrN7tn119Pq9zNfpuHsv/sz1+sP1ywtv/DBgAAAAAAAACshKFsSeWmSxgY24g7Ze8NAm6LIUPZce2Hj+8fd8ed91WXMsu2DmXX53F1Wu+s089xY3e2zw7Z777omv3zJ+dSdq8vybGf+NRn944zlP2mvLeHYcd3AAAAAAAAANhyhrIllZsuYWBshrKHGTqU3Twu/7vLXXffv7dz72WX37B3bAZJj9146+TLD5yqjuj3+utv7A1953r1QGp2B85tPPf8C9VRZbnvDKbWg9C5fv73TSdv39vtu0+OybH1wPkTTz67fzsp91+Sx3TzLZ/fOza7ied557Zy/Wjexjapz+PqtN5ZRy4+8Xye5ybubJ/zqD53sqayNmbJeTfkuKG2fSj7sOz4DgAAAAAAAABbzlC2pHLTJQyMzVD2MEOHsjOUXB+X4ee2DCd/4IpP7h9TKgPTfQOj2eH30vddX7xuXWmX7uwS3Bx+LpWB6Vtvu6e6xtky+J3j8hhPPfKNyQUXXnnG9fP1ttJxdbm/L37pYUPZG25T12vWU86h+lzKOb6sfDAhazdrPuX8nLWr9rYPZR+W8xgAAAAAAAAAtpyhbEnlpksYGJuh7GGGDGVnQLQePs6AaHvX6QyMNoeTs8NvBpZTBj+bw9rXXX+yutaZmkOo9XEZos5jyk7UzV2zm3Lf9ddSdqrOc3roq4/uDXBnh+H6aym3VVIPZWeIunlfeS55LBkWb8qOxM3Hm+vl/nLfzcHy5jHb5LAMs27qem1+CCLn4DJyXtbnd6msz67h7FlD17O+PrbDch4DAAAAAAAAwJYzlC2p3HQJA2MzlD3MrKHsDDc3h4xLQ80ZGq2/nuPbsjv2tR8+vn9MBprbMvhcf720G3ZuI/ed4eem5n1nl+uSLz9wan84Ov8s7TrcHlrN4+3b1bv5eEtDs81h1bptcliGWTd1vTbXy6zdrPtkZ+zmOZjzPGuouYN7ygcRXnnltepab5o1dD3r62M7LOcxAAAAAAAAAGw5Q9mSyk2XMDA2Q9nDNIeyM3xdD2w2B7HrsnN1W3PH6K5dsCPH1beTXYCbsqN2/bXs2jtU874zbNqn+TxLg+XNoew8976B7OZz6bvf9mD2Njksw6ybul6b52PpQwRD5QMD2cU+5392o2/KEHbzwwWldWEoGwAAAAAAAAA4AIayJZWbLmFgbIayh2kOK3eVQen2QGetuRNvaZfspgyH5rjsAtyUnbHr2/jilx6uLp2teb3S7tpNGWytj23vth31EGyGvEs7eTc1n3Nevz7NHYm3yWEZZt3E9ZoPBNTnzLLnTQavSztg17Iu6g82lNaFoWwAAAAAAAAA4AAYypZUbrqEgbEZyh6mOZSdXXPz55QBzXpYM7V3t65lJ976mAxUZ9frrt590TV7x2Un6qbmbTzz7HPVpbM1r/fY409Vl3arB6/zONrqr/XtfF3LjsL1/eZ59TGUvdk2cb1mDdTnzJDzcVn1rvil+zKUDQAAAAAAAAAcAEPZkspNlzAwNkPZwzSHsttDlRkOrYeVU3aIbssgd/31obWHP5u30berb1t23K6vlx1/Z7ns8hs676d+nkOGYD/68U/v386sIXJD2ZttE9drdmqvz5kh5+Oy6nO0dF+GsgEAAAAAAACAA2AoW1K56RIGxmYoe5i+oezIDtT117PD9Ouvv1F9Zao5dPyBKz659+dZte8n16tvo337fXJb81yveT/LDGU37/e551+oLi1rHrtNDssw6yau15zL9TmzyvMm52p2s693w8+HGnJ+XnDhlXv3YygbAAAAAAAAABiJoWxJ5aZLGBiboexhZg1lR3Mn6zvuvK+6dKq5a/SsAeUu8+w83TTv9erB6wyXt80zlP2JT312/34ztN7HUPZm29T1mnO0Pm8WXVe1U49844xd5bsylA0AAAAAAAAAjMRQtqRy0yUMjM1Q9jBDhrKfePLZ/WPaA83N62f4cxE33/L5/dt46KuPVpfO1rzelx84VV1a1tx9OIPSbfMMZTef86z7NZS92TZ1vTaHqOdZE2257nnnf3D/tvIBi5y/OW+zXtNll9+w9zVD2QAAAAAAAADASAxlSyo3XcLA2AxlDzNkKDs+cMUn949rDiJ/8UsP719+08nbq0vnc9fd9+/fRoZGh2oOhM66Xnb4ro/NMHfbPEPZzeecXbO7ZPfuCy68cv/YbXJYhlk3db0eu/HW/fNmnjXRVu+4ncHsrg9N1B8cMJQNAAAAAAAAAIzEULakctMlDIzNUPYwQ4eyuwanswN1c/DzuedfqL4y3LdffHl/N9/8Mztzl2So9KMf/3T1p7Pvu2tH4dz+pe+7fv+4/LltnqHs3G89bN31ePM61LdZt00OyzDrpq7XDPTXayJ1rYk+OQfr6zfXTZuhbAAAAAAAAABgZNs5lP30009P/uIv/mLy6quvVqMKcHi99tprkxdeeGHyzDPPTE6dOlVcM4s0XcLA2AxlDzN0KPuVV147Y0i0OXzd3Dk6w8ql28mQ6a233bM3HF0aMM0u283byG7c9X1kGDs7Uudr7cHR5g7YeXy579xX5Pp5bPXgdspjKJlnKDuajzfXyePNsHbKY2gObdfHbZPDMsy6yeu1eY5ddvkNxQ8TNGWN5jr1+Z91U1+/a0f3nK/1BxZ2cSj7Zy//ncn51z44SmP8/AEAAAAAAACALbVdQ9mPPvqoQWzo8cYbb0yeeOKJ4vqZt+kSBsZmKHuYoUPZUQ9Gp5tv+Xx16VTza3UZ8qwHPptlWLQtA6UfuOKTZx3brr3jb4ZKS/ddKo85x5fMO5Sdx1vvMNxVBmSbr+82qc/j6rTeWZu8Xps7yKcM+udDBu1zOOdidrKvP3xQr+NcXl83t5M/N+X2M+xdH7OLQ9ljncdj/fwBAAAAAAAAgC21PUPZjz/+eDWWAMzy5JNPFtfRPE2XMDA2Q9nDZOfoeqgyA599ssN1fWyGOdse+uqjZ+xK3S7Xyf11DUZHc4i5WW43u2J3XTePvd6dul2GvfPY+vTtFtylHghvDs6mPNZ6QLV+fXPMNhlrmPWgbfp6zQcYSmsq52s+FND+0EPOs3qn7Gh+cCDHZn1lV/djN966f7v1ujGUvTqGsgEAAAAAAABgLtsxlP2Hf/iHk9deO3NXPKBbdsz+oz/6o+J6Gtp0CQNjM5Q9XIatm4OcfbK7bgZF+warI8c0a+/SO0seT33dPL6h8rjq6z32+FPVpbPV15v3cdbyGOv7bb82+Vpet20y1jDrQduG9Zpz8rrrT+4PP3eVAez2OZ/zrrRbfV12j68Hqw1lr46hbAAAAAAAAACYy3YMZT/zzDPVSAIw1F/8xV8U19PQpksYGJuhbFjcWMOsB22b1msG/m86efve8HWz7H7d98GFfEjgrrvvn1z74eNnXKce4M51c1kGtNvy4YiPfvzTe0PhpfuY9fWxjXUeG8oGAAAAAAAAgLlsx1D2Cy+8UI0kAEO9+uqrxfU0tOkSBsZmKBsWN9Yw60GzXnfbWOexoWwAAAAAAAAAmMt2DGW/9tpi/wl+OMy+//3vF9fT0KZLGBjbqobizr/mKz/zzmsfPPFP/7/3/3B1US9DnuyCsYZZD5r1utvGOo8NZQMAAAAAAADAXLZjKBtYTGk9DW26hIGxrWoo7p0f+sp551/74OT8ax787pDhbEOe7IKxhlln+adX3f+WrMnqj0uzXnfbWOexoWwAAAAAAAAAmIuhbNhlpfU0tOkSBsa28qHsuhnD2YY82QVjDbPO8s+veuit1Tq8K/+7unhh1utuG+s8NpQNAAAAAAAAAHMxlL0NXn/9jcl115+cXHnVscldd99fXfqmWV/n8Cqtp6FNlzAwtrUNZdd1DGcb8mQXjDXMOssF1/7BT5yxBj/04Keye3b15blZr7ttrPPYUDYAAAAAAAAAzMVQ9jIee/ypyalHvrHXc8+/UF26erntn/uFy/f6xKc+W136pllfX8ZBPUfWo7SehjZdwsDY1j6UXdcazjbkyS4Ya5h1luJ6vObB58+/+sErqkPmYr3utrHOY0PZAAAAAAAAADAXQ9nzuvmWz08+cMUn94egm136vusnt952z+SVV16rjl6Ngx7KHuM5sh6l9TS06RIGxpahuOyimyHOZTr/mq9cfdYQaKlqONuQJ7sg5/A/+T8/l3P7/mY5x995zVduqDv/6q9c114z7d3jV2lvTZbW3+lOP56vv/OaB95VHTqI9brb6ve3ersPjKFsAAAAAAAAAJiLoeyhvv3iy52Dyu3efdE1k2eefa665vIOaih7zOe4anlNPvO5u/c6zAPkpfU0tOkSBsaWYdHzWwOli/TOa7/yyOl/FodASxnyZBfkHP5/XfJbk/bA9d4QdmMoO0Pap8/7M9dNdq4+e22cecy1D95+xu2c7p9d+8BFzfv6P6568NxqOe/LoOvp67Zvu929F1z7Bz9RXaWX9brb6ve3ersPjKFsAAAAAAAAAJiLoewhHnv8qckFF155xkBydpP+8gOnJqce+cZed9x53+Syy2/YPybDwKtyEEPZYz/HVbvnCw/uP8489sOqtJ6GNl3CwK7YG0QtD36e2TUP3pUhUkOe7IJVD7M2h633Bq6vffD97aHs0+vo3tPtD253fCDipcJlxTIw/k+vuv8t1UMosl5326rP46EMZQMAAAAAAADAXAxlz/L662+cMYicnaT7dl7+4pce3htovvW2e6pLlrfuoexNeI6rZih7qrSehjZdwsCumDmUXQ1jV4cb8mQnjDXMOss7P/Tgp4rrsNxLGfaurlpkve62sc5jQ9kAAAAAAAAAMBdD2bNkd+jmsHIGmGfJMX1DzfNa91D2JjzHVTOUPVVaT0ObLmFgV3QOZbeGsWuGPNkFYw2zzlLtqH32ejyzp8+/+sErZu2SHdbrbhvrPDaUDQAAAAAAAABzMZTdJ4PH2RG6Hu798gOnqq8sJrf30FcfnXzmc3dPrv3w8cmVVx2b3HTy9r0/Z7C6yzqHslf9HGuPPf7U5K677997PNddf3LvOea5zxrkzu7b7dcjt5XL83rVt9M1OJ77zDG5z+ZrksvqcntN7fv89osvT47deOve/eW6Tzz57N7lJYs+z4NSWk9Dmy5hYFecNZTdMYxdM+TJLhhrmHWWd1774Ikz1uOZ3fvOax54V3XoINbrbhvrPDaUDQAAAAAAAABzMZTdp7nb8mWX31BdupgM/jaHn9udd/4HJzff8vnq6DOtcyh7lc8xMozcHIhud+n7rp888+xz1dFnaj6PPK6+28qO3hmebisd2675GrXvMwPY7fep9Jou8zwPUmk9DW26hIFdsT+UPWMYu2bIk10w1jDrLBl2PWMQ+5oHv/vOa79y8wXX/sFPVIfMxXrdbWOdx4ayAQAAAAAAAGAuhrL7ZEi6HrLNUPWisptyfTsZvs4OzLntlOHi+muptFP1OoeyV/UcI0PIzYHmPLfcfnaPbj7PCy68srj7dPN55DoZEq//nP+d163+c31ZWwalc1yGotvXrbvjzvuqo8++z9LgfPs1XfZ5HqTSehradAkDu+KfX/XQW4cMY9cMebILxhpmneX8ax+8vRrIfvr8q79y3T+96v63VF9aiPW628Y6jw1lAwAAAAAAAMBcDGX3+ejHP70/YPvFLz1cXTq/h7766N4Qb4aBX3/9jerSN2UQu76fDBO3rXMoe1XPMeqdozN4XrqtvA75Wo7JsW3N51F37YeP711ey5Dzey/5yP7XS0Ps0dwB/NQj36guPVvzPuvHlsHtehfu/LN5/7Hs8zxIpfU0tOkSBg4rQ57sgrGGWWd554ce/NQ/u+aBX63+uDTrdbeNdR4bygYAAAAAAACAuRjK7tPcqTm7Xa9Tho/r+2qbNXQ96+t9VvUcMyxd385NJ2+vLj1bvlYf195Fuvk8Ul6T0hD7XXffv3/MsRtvrS490yJD2Sk7XZfus7aK53mQSutpaNMlDBxWhjzZBWMNsx4063W3jXUeG8oGAAAAAAAAgLkYyu5zwYVX7g/WtndLXrXmEG/7vmYNXc/6ep9VPcfc75DbyeB3fVx2Dm9qPo++4ejsXl0f17UT9aI7ZT/z7HPVV8pW8TwPUmk9DW26hIHDypAnu2CsYdaDZr3utrHOY0PZAAAAAAAAADAXQ9l93n3RNfuDtbOGdZf1mc/dvX9f7WHf5uDwqoeyV/UcM0Sd28jt9Wk+1vZO0/M8j/q4K686Vl3y/2fvb2Mtq+870bNfet6M8tLzyn4ZRUkVc6c7k3tvpmO1iTvxyDJVyE48soeIK8tMRGQgbTcSahsrthyVQh3RNTeY3OBWGCS4vm5B0sLuth1jYyJMRw2OAIe2kQG5DU4wggQQD076TH3PWv/Dvxb//XQe9toPn4/0U52zntfa+7/q7LW+678vdJBQ9jzH7ij2c5la7Wne6powsK2EPNkEY4VZl017fUMejMvffi+++HI/ZP2N9T4WygYAAAAAAACAhQhlT1MCuKn7v/1wP/RwEnxOADsB4ASKS136/o/vryuB3tqs4PCiweLaUe1jHe6et4bbush+lOmWHco+iv1cplZ7mre6JgxsKyFPWhJ0veZjZ/f+/83/taturDDrsq1De731trubfyfNW9+898F+SRfKN6tk2Zddfv2b5snfbXmvZvw6h7THeh8LZQMAAAAAAADAQoSypzlzw637oY4777qnH3ow3/v+UxcEoKfVMkPZR7WPZRmL1HB96xDKLtMuUod97xxGqz3NW10TBrbVOoQ8Wb7D/M0xhrHCrMu2Du0175f676NFK8HqoTzs2ApjtyoB7aN6yHLZxnofC2UDAAAAAAAAwEKEsqepe/RLePmgEsh+17uv3F/WJz71ub1QSMLCpeqgSgJPtVkBqMMEpI5qH8v+pcfvg1pkP8p0yw5lH8V+LlOrPc1bXRMGttU6hDxZvsP8zTGGscKsy7YO7fWRRx/f+7aYVpX3VP7Oao1P5b1X++rXHth9x8Uf2Z834ey8J/MwXP72u+MLX9n7m7v+NprUTTd/sV/C+hjrfSyUDQAAAAAAAAALEcqeJsHpEuBI6OMnz73Qj1nMtded21/OpB76EjYp0wxDJ7MCUIcJSB3VPpZewLOMg1pkP8p0yw5lH8V+LlOrPc1bXRMGttU6hDxZvsP8zTGGscKsy7bu7bW8p+Z96C1/r9aB7Gnvxddee/2Cv8VTeWBynYz1PhbKBgAAAAAAAICFCGXPUn8l+o3nbu+HLqb0rvyBD17XD3mzsULZcRT7mJ4IyzIOGnRZZD/KdPOEstOT4iSLHruj2M9larWneatrwsC2WuWQZ/6vyvk/PeFGzsf5vZyfp33zQ3rRzbm8/N+X+TL9N+99sJ9iuvy/kZ52M18JhWZ56QU48rBTxiUE2pJ1lXVOk78Lpi2ndph9evKpp/fmLQ8dpbKc7GP9oFa+WSPLrad7zyVX7w0rNWufxjBWmHXZVrm9zqO8p+YNZedvtjLPvH/71n/DzdOuVslY72OhbAAAAAAAAABYiFD2LAlZlQBHwlcJPk3z4osv74WSEqaK9M5XQlsJL+X3oQxLmKmsJ4Gv2qzg8KLB4qHD7mMk+FyWcdCgyyL7UabLcWtJEK1MU0J7LYseu6PYz2Vqtad5q2vCwLZa5ZBngpvlvJ1vQygPP5VqBTtzvq8Dxa3K8lr/TxetddWV/2/qh6xayrbPCp/WfxdMcth9yv9pdW/Dw7rmY2f7KS/cnkmVZa2ascKsy7bK7XUe5T00Tyg7D2HU77lpbbY27F17nXrLHut9LJQNAAAAAAAAAAsRyp5HwrclwJHK7wlmJZxcJNiRIFaC15mm7i2y7ol62GtzljEMVCVkVZsVHF40WNxy2H2Mej/Sw+a0EFirN81F9qNMNymUnW0v0+T419tS79NBjt1h93OZWu1p3uqaMLCtVjnkWYLN+T+g/J+UYelBO/9/Db+ZImHMOkyd6fL/RCrn6vq8nvlb8n9gHejMuksIO+srw8u2pVrK+Fnh01mh7MPuUx1Qzf+TeZipzJ+HszKs/j82PYBnX7OestxMk2GlZj3UNYaxwqzLtsrtdR7lPTWrXUT+tirTL/p3Vv33bt6z62Ks97FQNgAAAAAAAAAsRCh7Hgnd1gGQWZWQU8JNxd1fuu+C8SXElGBICUTVga4xQtmH3cdIYK0OiOXnBLqyrwkv5+c60DZ0lKHsyHEu0+X4ZtqEfeplH+TYHXY/l6nVnuatrgkD22qVQ5518DmVHp0nPSATdZA44eKhzJtllGlynh+qw5xZ3tDw//pUy1GFsg+7TwmUTxpXDP8eiaP4m2OZxgqzLtsqt9d5lPfUPKHs+n2db3tZRP1NKuvw/i3Geh8LZQMAAAAAAADAQoSyF5HQUx3GbVVCW61wUwK7dVC3rgR565DTMAQ1KwB1lAGpw+xjpOfNOizTqhyHVs+Gi+xHmW5aKDu9fbb2pV73QY/dYfZzmVrtad7qmjCwrVY55FmHsvPQzbRAdv6/Kv//5v+vSTJdWebw3F2PmxYaHQazW44ilH0U+1SHuutvkJjlKP/mWIaxwqzLtsrtdR7lPTVPKLt+kHGR924kxF3mnfY35KoZ630slA0AAAAAAAAACxHKPoj0speQdV35yv4EdadJkCnTJgiVcFTCW08+9fTeuATKbr3t7r2eK1vhsgzPvAkat8wav6iD7mOR0Eumz3wJvWR/83OWOy1AM+9+5NiV5U2T7c10CY4luJZjPNyHwxy7g+7nsrTa07zVNWFgW61yyLMEmxNMTvB4mpyjSwiz1aN0rTzIk4duavUyco6fZlqYOo4ilH0U+5T/+8oyZu1TTSh7Na1ye51HeU/NE8ou06b9L6p+/86zrlUx1vtYKBsAAAAAAAAAFiKUDZus1Z7mra4JA9tqlUOe8wabo+4R+qtfe2DvAZxJ9Z5Lrt6bLj3x1vKNFmUZmW6aZYSyj2KfEk6tv00ioe1ZAe8Qyl5Nq9xe51HeU7PaxVGEqsv8qXUx1vtYKBsAAAAAAAAAFrIeoezXX39zz9HAbK32NG91TRjYVqsc8pw32Bz5loQ6hDlPDZf7iU99bn9c+YaLSZYRyj6KfYp8q0MdzC7TpRft1rd2hFD2alrl9jqP+v03zWFD2fkWk8PMP5ax3sdC2QAAAAAAAACwkPUIZT///PN9JAGY1yuvvNJsT/NW14SBbbXKIc+EKecNVdbh5g9f8Zm932fV3V+6r5+7k2FlGQmFTlNP2zLvtk9bTj3uoPtU/OS5F/Z63n7HxR/ZX2YqPWt/7/tP9VO9QSh7Na1ye51HeU/N06bLtHnPLioPVZT50y7WxVjvY6FsAAAAAAAAAFjIeoSyf/jDH/aRBGBezz33XLM9zVtdEwa21SqHPBcJZde9XM8KVE+S8HFZxiOPPt4PbUvQs0zbchSh7KPYp6H0IJzgdtm+1HsuuXpveE0oezWtcnudR3lPzdOm6/fo8P05y4MPPbY/75kbbu2Hrr6x3sdC2QAAAAAAAACwkPUIZX/nO9/Z/Yd/+Ic+lgDM47vf/W6zPc1bXRMGttWJ02efTwjw2edf6s8qq2PeYHP88efv2g9hJpB5EPUyvnnvg/3Qtlmh7Msuv35v3Kxefqct5yj2aZLXXnt995qPnd1f/le/9kA/prNuoex3Xv5HQtlroLyn5mnTdduY9ZDEUN12br3t7n7o6iuvb/9yL41QNgAAAAAAAAAsZD1C2aknnniijyUAs/zoRz9qtqNFqmvCwLY6cfrsQwkBPvaDv+3PLKtjkVB2QsUlhHnjudv7oYuplzEtiPzkU0/vvuvdV+5P21IHSn/y3Av90At97/tPTV3OUezTNAm6luUnxFqrQ9nXXneuH7q69sKsp3Ze6d/WG6s8RPH3L73a7/l6Ke+pedp0ergu0y/a23V6fy/zpp2ti1/+0B8KZQMAAAAAAADA6lufUHbqhz/84e4//uM/9vEEoOWZZ55ptp9Fq2vCwLY6eXrnywkB3vfg6j0UtUgoOz0/lyBmeqdOqHhRWUYJSWcZrTBnllu2q1RLHSi96eYv9kPfMAxkt5ZzFPs0bZ70vl3Wfedd9/RD31DGfeCD1/VDVlN6ec97+MTps8f2h+6qOHlq56+zrz/4b8/1e79eyntqnjadNlKmz/s/7WEe6eW+zLcODxTU8tqm+pd7aYSyAQAAAAAAAGAh6xXKTj388MO7zz///O4rr7zSxxSA119/ffeFF17Y/e53v9tsNweprgkD2+rkpTufTQjwzOe/0Z9pVscioeyoe5ZO4PnuL93Xj3lDerm+9ba794LGrdB1eqQuy8h6E/BMGDSV5Q2D1KmWOlCauuMLX9l98cWX90LSWX9ZTr28lsPuU8Ks13zs7F6v2LVsx2WXX7+/7CxjKMsr47P9kV6/s02r5E+//mgJs365f1tvrOxj9nUVH6KYR3k/zdumE6ou8+R9PCuYnQcN6jbVauOrasyHC4SyAQAAAAAAAGAh6xfKVkotp7omDGyrXzh1wy8lCPjrV9zSRwNXx6Kh7Pj0Z2/ZD2SWyvx1wLhUApxDCU7XYeVWpRfsKz96Zv/3SVrbUtcff/6uvSq/T3KYfSrHsFT2rfS+XaoErocyvJ6urlXy2793Zwllb3yo9MTpszvZ1xtve3M4fx2U98+8bXr4cEPev5OC1nlgIQ8hlGnXrZfsL3/rsRLKvqd/uZdGKBsAAAAAAAAAFiKUrZRqV9eEgW2WnlkTBvz6Axf2pjy2EjpeJJQd93/74TcFj+tKsDM9S0/qdTfDW0HouqfqeULZcdPNX7xgGansT+ltuoSyEyad5qD7lJD2h6/4THOeejtasqzW9md5q+KxH/xtF8g+tfPKz73vzFv7t/TGOnnpzjuyv5f8zp/0R2C9lPfQIm16Ug/1aYOlhm0jD07M6lV71fzrs18q7+Wr+pd7aYSyAQAAAAAAAGAhQtlKqXZ1TRjYZgkBJgyY3rJfff2nfURwfAlVJlSc3qsPKvPXteiyHnn08f15a/OGsov07ptlPP3Ms/2QN2QdP3nuhf632cr2lJpnn7L8ep4nn3q6HzNbPW+2dZVc9ft/VnoX3unfzhvv/L4+n31OIH3dlDaz6IMWaTeTHi6oK+Htb977YD/X+nj2+Zd2f/E3znWh7PfuvL1/qZdGKBsAAAAAAAAAFiKUrZRqV9eEgW32tss++ZYTp88+lEDgmc9/o48JMs2ioWyO3hf+419tVS/ZRXmI4v2/e1t/JNbHjedu32s7d3zhK/2QxeTBgDvvumd/OaWuve7cXo/ah3mAY0w57+Y1PXHq7J39y7xUQtkAAAAAAAAAsBChbKVUu7omDGy7Xzh1wy9ddHrn1QQDE3ZlOqHscd334BO7/+z9//a/7wVZLzl7Rf823gp5iOLkqZ1nsu833nZff0RYV3kv57Xcq/fuXNS/zEsllA0AAAAAAAAACxHKVkq1q2vCAP/knyTcWsKBesyeTih7PHloYD+QffrsTv/23Srn9/2S0lb/9OuP9keGdfPYD/5293/+4P+6914+eWrn+v7lXTqhbAAAAAAAAABYiFC2UqpdXRMG6CSYXXrMfv/v3rb7l4/8sI8PUhPKXr4f/c3f7V71+3/2Rq/Cp3du6t+2W+nkqZ2ryrG45d//5/4osS7SQ3YJZJ84dfbO/mUdhVA2AAAAAAAAACxEKFsp1a6uCQO84RdO3fBLJ0/tPFMCnx+69o693omfff6lPk7INR87uxfIfsfFH+mHcBxeff2nu1/+1mO7//rsl94IY5/aeSUPD/Rv1612/jhcW47Lb//enXs9L7Pach7NNxGU1y2B7Ldd9sm39C/pKISyAQAAAAAAAGAhQtlKqXZ1TRjgQgkJnjy1c/3J0zsvlPBgqV+/4pYLflfqqOuS3/mT5vATp87+u59735m39m9Tzjt/XC5JUL0co4Sz//Trj+7+/Uuv9jFgVsHXH3h899+c+0+7v/gb5954T58/x/Yv46iEsgEAAAAAAABgIULZSql2dU0YoO3ke3d+5uTpnd86X7fXwU+lllUnTp+95/x776rz78W3929LBhJUP3+cdi46vfPq8Ph5iGK8mvJwwZ3n388X9S/f6ISyAQAAAAAAAGAhQtlKqXZ1TRgAWHd74exLzl6xF/pthIHVeHXi9NmHzr821/786T/42f7lWhlC2QAAAAAAAACwEKFspVS7uiYMAMA2EsoGAAAAAAAAgIUIZSul2tU1YQAAtpFQNgAAAAAAAAAsRChbKdWurgkDALCNhLIBAAAAAAAAYCFC2UqpdnVNGACAbSSUDQAAAAAAAAALEcpWSrWra8IAAGwjoWwAAAAAAAAAWIhQtlKqXV0TBgBgGwllAwAAAAAAAMBChLKVUu3qmjAAANtIKBsAAAAAAAAAFiKUrZRqV9eEAQDYRkLZAAAAAAAAALAQoWylVLu6JgwAwDYSygYAAAAAAACAhQhlK6Xa1TVhAAC2kVA2AAAAAAAAACxEKFsp1a6uCQMAsI2EsgEAAAAAAABgIULZSql2dU0YAIBtJJQNAAAAAAAAAAsRylZKtatrwgAAbCOhbAAAAAAAAABYiFC2UqpdXRMGAGAbCWUDAAAAAAAAwEKEspVS7eqaMAAA20goGwAAAAAAAAAWIpStlGpX14QBANhGQtkAAAAAAAAAsBChbKVUu7omDADANhLKBgAAAAAAAICFCGUrpdrVNWEAALaRUDYAAAAAAAAALEQoWynVrq4JAwCwjYSyAQAAAAAAAGAhQtlKqXZ1TRgAgG0klA0AAAAAAAAACxHKVkq1q2vCAABsI6FsAAAAAAAAAFiIULZSql1dEwYAYBsJZQMAAAAAAADAQoSylVLt6powAADbSCgbAAAAAAAAABYilK2UalfXhAEA2EZC2QAAAAAAAACwEKFspVS7uiYMAMA2EsoGAAAAAAAAgIUIZSul2tU1YQAAtpFQNgAAAAAAAAAsRChbKdWurgkDALCNhLIBAAAAAAAAYCFC2UqpdnVNGACAbSSUDQAAAAAAAAALEcpWSrWra8IAAGwjoWwAAAAAAAAAWIhQtlKqXV0TBgBgGwllAwAAAAAAAMBChLKVUu3qmjAAANtIKBsAAAAAAAAAFiKUrZRqV9eEAQDYRkLZAAAAAAAAALAQoWylVLu6JgwAwDYSygYAAAAAAACAhQhlK6Xa1TVhAAC2kVA2AAAAAAAAACxEKFsp1a6uCQMAsI2EsgEAAAAAAABgIULZSql2dU0YAIBtJJQNAAAAAAAAAAsRylZKtatrwgAAbCOhbAAAAAAAAABYiFC2UqpdXRMGAGAbCWUDAAAAAAAAwEKEspVS7eqaMAAA20goGwAAAAAAAAAWIpStlGpX14QBANhGQtkAAAAAAAAAsBChbKVUu7omDADANhLKBgAAAAAAAICFCGUrpdrVNWEAALaRUDYAAAAAAAAALEQoWynVrq4JAwCwjYSyAQAAAAAAAGAhQtlKqXZ1TRgAgG0klA0AAAAAAAAACxHKVkq1q2vCAABsI6FsAAAAAAAAAFiIULZSql1dEwYAYBsJZQMAAAAAAADAQoSylVLt6powAADbSCgbAAAAAAAAABYilK2UalfXhAEA2EZC2QAAAAAAAACwEKFspVS7uiYMAMA2EsoGAAAAAAAAgIUIZSul2tU1YQAAtpFQNgAAAAAAAAAsRChbKdWurgkDALCNhLIBAAAAAAAAYCFC2UqpdnVNGACAbSSUDQAAAAAAAAALEcpWSrWra8IAAGwjoWwAAAAAAAAAWIhQtlKqXV0TBgBgGwllAwAAAAAAAMBChLKVUu3qmjAAANtIKBsAAAAAAAAAFiKUrZRqV9eEAQDYRkLZAAAAAAAAALAQoWylVLu6JgwAwDYSygYAAAAAAACAhQhlK6Xa1TVhAAC2kVA2AAAAAAAAACxkNULZn/38/bsXX3Pffn31G2+Me9+/+Ys3/V5POyzzmndSmXexebsm/E/+yfnfn/iXH73/7f2ve7/X0w5rOK152/OlzGveSWVe804q85p3UpnXvJPqoPP+6jV/sfuua/7iX/WTLm29KfOad1KZ17yTyrzmnVTmNe+kMq95J5V5zTupzGveSWVe804q85p3UpnXvJPKvOadVOY176Qyr3knlXnNO6nMu5x5/0//5//Lfij7/O8HXu8kespWak2ra8IAAGwjPWUDAAAAAAAAwEJWo6dspdTqVdeEAQDYRkLZAAAAAAAAALAQoWylVLu6JgwAwDYSygYAAAAAAACAhQhlK6Xa1TVhAAC2kVA2AAAAAAAAACxEKFsp1a6uCQMAsI2EsgEAAAAAAABgIULZSql2dU0YAIBtJJQNAAAAAAAAAAsRylZKtatrwgAAbCOhbAAAAAAAAABYiFC2UqpdXRMGAGAbCWUDAAAAAAAAwEKEspVS7eqaMAAA20goGwAAAAAAAAAWIpStlGpX14QBANhGQtkAAAAAAAAAsBChbKVUu7omDADANhLKBgAAAAAAAICFCGUrpdrVNWEAALaRUDYAAAAAAAAALEQoWynVrq4JAwCwjYSyAQAAAAAAAGAhQtlKqXZ1TRgAgG0klA0AAAAAAAAACxHKVkq1q2vCAABsI6FsAAAAAAAAAFiIULZSql1dEwYAYBsJZQMAAAAAAADAQoSylVLt6powAADbSCgbAAAAAAAAABYilK2UalfXhAEA2EZC2QAAAAAAAACwEKFspVS7uiYMAMA2EsoGAAAAAAAAgIUIZSul2tU1YQAAtpFQNgAAAAAAAAAsRChbKdWurgkDALCNhLIBAAAAAAAAYCFC2UqpdnVNGACAbSSUDQAAAAAAAAALEcpWSrWra8IAAGwjoWwAAAAAAAAAWIhQtlKqXV0TBgBgGwllAwAAAAAAAMBChLKVUu3qmjAAANtIKBsAAAAAAAAAFiKUrZRqV9eEAQDYRkLZAAAAAAAAALAQoWylVLu6JgwAwDYSygYAAAAAAACAhQhlK6Xa1TVhAAC2kVA2AAAAAAAAACxEKFsp1a6uCQMAsI2EsgEAAAAAAABgIULZSql2dU0YAIBtJJQNAAAAAAAAAAsRylZKtatrwgAAbCOhbIDNdfK9O28/eWrnqpOnd246cfrsPefrofM/7yqlptf5tvJE2sz5n28/34auP9+WLuqbFQAAAAAAhFC2UqpdXRMGAGAbCWUDbJa3XfbJt+wFsU/t/PUwaKqUOkSd2nnmxOmzOz/3vjNv7ZsbAAAAAADbSyhbKdWurgkDALCNhLIBNkcfxn6mhEh/+UN/uPtvzv2n3T/9+qO7f/nID3f/6r8+vQvM9oP/9txem/n6A4/vnvn8N3Z//Ypb9sPZF53eeTXh7JPv3fmZvukBAAAAALB9hLKVUu3qmjAAANtIKBtg/SUcevL0zpdLaPT9v3vb7pe/9VgfLwWOQh5quOr3/2w/nJ3e6H/+9B/8bN8MAQAAAADYLkLZSql2dU0YAIBtJJQNsN5Ovnfn7QmHJiSanrHTsy9wfB77wd/uPfjQh7NfOHnpTi68AwAAAACwXYSylVLt6powAADbSCgbYH2lh+wTp88+kXDoJb/zJ7s/+pu/62OjwHH6+5de3f3t37uz9Jj9yvm2eFHfLAEAAAAA2A5C2UqpdnVNGACAbSSUDbC+Tp7e+XIJZCckCizXVb//Z3vB7Dwc8XPvO/PWvmkCAAAAALD5hLKVUu3qmjAAANtolUPZ6QH25Omd3zpfN504ffae8//en+CTUkodts6fUx7KeeXEqbP/7uSpnavOn2/e3p961sbedp/fl1/+0B/qIRtG8urrP919/+/e1p1XTp29s2+eAAAAAABsPqFspVS7uiYMAMA2WsVQ9sn37lx08vTO7SU8qZRSS6o8+HFJfypaaW+77JNvuej0zo+z3V9/4PE+HgqMIQ9F/OJvnOvOI+f/humbKQAAAAAAm00oWynVrq4JAwCwjVYplN33jH3TXqipr9/+vTt3v/Af/2r3Lx/54V4BHIW/+q9P751Tvvytx3b/9dkv7fU2Xc476UH750//wc/2p6aVVHrJTg+9wPjOfP4b3flDb9kAAAAAANtCKFsp1a6uCQMAsI1WJZSdAOTJUzt/XUKRCTc9+/xLfdQJ4Hi9+vpPd2/7Dw/W4ewXTpy64df6U9TKOXH67BPZTr1kw2rI3yylt+yfe9+Zt/ZNFQAAAACAzSWUrZRqV9eEAQDYRqsQyt4LZJ/eeSFBpkt+5092f/DfnusjTgDL9fcvvbp71e//WQlmpy7pT1Ur4+R7dy7Ktr3z8j/qtxpYBdW5YyW+gQQAAAAAgGMllK2UalfXhAEA2EZjh7JPvnfnZ0qPr7/9e3fuBSIBxpbe+vtw5Qt5cKQ/Za2Ek6d2rs+2ffrmP++3FlgFf/r1R/fOGydOnb2zb64AAAAAAGwuoWylVLu6JgwAwDYaPZR9euf2BJjSQ/arr/+0jzUBjK/0envi9NmH+lPWSijnza8/8Hi/pRy3a687t3vlR8/s/vHn7+qHXGjWeLbDj/7m77qHOU7t/HXfXAEAAJbu5Ht33n7+c8lV5z+f3HTi9Nl7cl1j77OKUmpqpfOYtJnzP9++1ynCe3cu6psVAEwilK2UalfXhAEA2EZjhrJzUTMXO3/xN87tBZkAVkkeFHnn5X/U3Zg5tXNVf+oa3fntuT/b9Ff/9el+S7fT977/1O6DDz22V08+dbzH4n/655fvVYLXLbPGz+vpZ57d2587vvCV3a9+7YG9n+eR/S/HotRxefHFl3dvPHf73r6W/U6955Krdz/92Vv29mFb5ZyRtnni9Nnn++YKAACwFG+77JNv2Qtin9r5673rGEqpo6lTO8+c/5y/83PvO/PWvrkBQE0oWynVrq4JAwCwjUYNZZ/e+XIubJ75/Df6OBPzSmAvgbgzN9zaD2GSVTpWCVmmJ91bb7u7H8KqS2/U5QZMbnD2p69RZVuyTdv4MEvazzAMXOrS939896abv7j7k+de6Kc+OmUdk0LXs8bPkhD1pP1617uv3AtBJwzdcudd9zTnK5XjkvPfUQTXs53ZntZ6Sr3j4o8cayh81f3yh/5w75zRN1cAAIBj14ex964VpPK55N+c+0+7f/r1R3f/8pEfbv1D3TCvH/y35/baTK4H5p7Fr19xy344+6LTO68mnH3yvTs/0zc9AAihbKVUu7omDADANhorlJ2eJXIxM71kP/v8S/1lz/WVEGBCaMcRBmypw3tMt0rHapNetwRBsz8f+OB1+/uUnz/xqc/t9WC8SS75nT/Zu/ly4tQNv9afwkZVbgZtk5xbJ4WWh5XQ8FH3nF2WnW1omTV+mm/e++D+/NMqweyWeY9LKg+pHFRC4ekNuywrQe/8v5e6/9sP717zsbP74zLda6+93s+5XUr77JsrAADAsUk49Pznj71OL1Lv/93bdr/8re19SBaOQx5quOr3/2z/8/7JUzt//fOn/+Bn+2YIAELZSql2dU0YAIBtNFYo+8QlZ6/IRcxc0Fx3w15K8/txq0N4TLdKx2oTXrenn3l297LLr9/fj0l1mPDnqrnpjvvLjZeb+lPYqMpNoG3xyKOPX9A7cwK/6RE7Pc+XUHDpEb9MMynAfFBluVlHy6zxk6Q9lX1LD9PpCTzDIqHmhJ0//dlb9sbn35Z6v+tjUo7LsL0e9P+oLKsso/XNA9neel2b9nDGvEr77JsrAADAsTj53p23Jxyazx/pGTs9+wLH57Ef/O3egw/95/4XTl66kxAeAAhlK6Xa1TVhAAC20Vih7JOnd27PBcx8jea6qwNxqYTSjlu9TqZbpWO1Ca9bvQ95r9/9pfv2wp8Jg1573bn9cQmYbkooMzdd9m64nNr56/4UNqr+5k+/dZuvDvrm52nfSJAA96Xv//heaPsolfXn/d8ya/wkddD51tvu7oe+WXr+TjtrqdtkCXQPlWB36qC9WKcX/LKMSduSMHyZJueEbVTaZ99cAQAAjlx6yD5x+uwT+eyRb/f60d/8Xf+JBDhOf//Sq7u//Xt3luuEr5xvixf1zRKA7SWUrZRqV9eEAQDYRiOGsu/Pxct8/d86SwCuBNDqOu4w6iaEe5dllY7Vur9uCbyW7U84thXsrMOfm9Jb9quv/3TvZsuJ02ef709ho9q78XO+tkGCvbPec0OZ5sUXX+5/OxplGyaFrmeNn6R+kCHB64OozyuTQtmRsHqZLj1wL+qaj52dOX89jZ6yAQAAjsf5zxxfzueOBLITEgWWK9/+mTaYhyN+7n1n3to3TQC2k1C2UqpdXRMGAGAbjRXKLr25rHtPLunZtATQ/vjzd+3/fNS9tA6te7h3mVbpWK3763bnXffsb/+kwHV6zi7TnLnh1n7o+stXAa9K0DLbkdp0CVenV+fyfvrmvQ/2Yw4uYeKcqxOGTntMz875fVYgumxD5mmZNX6SOsSchx4Ooj6vTAtl1wHwgzwwkf/Xyvyttp3Xp4xPgH5blfbZN1cAAIAjdfLUzlX5zJHrFHrIhnGkA4f3/+5tXTD71Nk7++YJwHYSylZKtatrwgAAbKMRe8reiFDhBz543V4A7cNXfGavZ9Z3XPyRvd8TJDxO6x7uXaZVOlbr/rrVDyFMCnVm+Kxp1lE5Z/WnsFFtyvlzlqMM+eaBgjrg3aoEtCcp00wKXc8aP0nWWeY96EMM9XllWii7DlWnLS8qwfXyf1z+rYPs6dG8HretvWTHKp0rAACAzfK2yz75lotO7/w4nzm+/sDBHuwFjkYeivjF3zjXXQd4785FfTMFYPsIZSul2tU1YQAAtpFQ9sGlV9NhwK3uifTBhx7bGzavBNwSbEuvraUm9Zw6K9ybHmbTY3GWMexdtvQUWy87gfKs+9OfvWV/np8890I/drasL/ub45BlJPyXEOS0Y5DwYNaVeaatq0yX5WU9k+T4taZbJAidZWTfs5xPfOpze//meC1yLBJGzDaUY5n5y/bMuy15Pcp2TKs6FDl0FPsylPnL9rfCp1l2Cb4mmDktILpuyjmrP4WNahPOn/OoA/55/x5Ufa5O5b1besiuz9mptN2Wet6WWeMnqdtUKufOaee5lvq8Mq3N5TxQphv+vzCvOkSe9abN18cw7X+bA9mxSucKAABgs5RestNDLzC+M5//xt41AL1lA2w1oWylVLu6JgwAwDYSyj64OpxWgq4JNpdhCeXOIwG8ugfTYaWH2GHIrQ7htVzzsbP74/Nzrcxbti8hxNLDaV3zhuuyz+9695Vvmr9UehFvBQUTCizTZP8nqQN/04KE9TFJqLmYdayKBEBbxyGV/ZsVYszrOAx4lsprmGMwz7YkTD/teNaV9bUcdl8myT7WvQ3XofuEwEvP8alJ4dZ1Vc5Z/SlsVJtw/pxHeo4u76e0i4PKezPv2zwAUp8biryPy3oyXUsZnzbcMmv8NHVYOnXp+z++0P7W55VJoexh2z3owxlZTravLKeu/F9zmIc+NsUqnSsAAIDNcuL02SfyeUMv2bAann3+pf3esn/ufWfe2jdVALaLULZSql1dEwYAYBsJZR9cCbjVIbwE1kqgNv/m92kyvg6yphJizjLr4FuG1eoQ3lDC1mVcwsDDEGKZN0HAOvSY/amXm0qwd1rIrl5XKtucZWS99fAci2Gv2dn3EhzOMZikDihPCrrXy8r6a9OOVVGHqbMPpWfpzFuHmycFJXOMh/uc3+vXMPtR/96S5ZfxeT3y+mQ76pB9KtuVSvh66LD7Mkvde3GWn/dHwq71sjctkB3lnNWfwka1CefPedTv+/QofZzqdbWC22Vc2lHLrPHTZH2tBzrSvvLQyyxZZ5lnUii7PlcPH9RZ1PAhopyrJr0+OT/k/JPalsD2Kp0rAACAzXHyvTsX5bPGOy//o/7TB7AKrvr9PyvXApZ+jwWAlSCUrZRqV9eEAQDYRkLZB5MAWgmkDQOodfhtVqCuDri2AtTp0TiB5WFouQ7h1RJ8m7a8qOdNJfhX95w8DBhP6sU689TLGPaqnaD0MCA+DKnXQchWmDDLLONTWU9LvS0JCNcmHauinjfbO9zG9LKb9WZ8woetYGH9Oua1qqfJPgyPeWoox70OqQ9fu/o9NylQfRT7Mo96f+owdpZ93OHZsZRzVn8KG9W6nz/nlfdoeW/lvXuc6nNn6xsCyri891tmjZ9HziP1PpfKuXPa/tftMf/n5AGYUllmzidlfB4OOWi7z3zDB0RSOQcMH7op6gdNDvogyLpZpXMFAACwOU6e2rk+nzU+ffOf958+gFXwp19/dO86wIlTZ+/smysA20UoWynVrq4JAwCwjYSyD6YOGw8DbnV4Nr2fTpL5Si/Q+bcVoI4MHwbe6hBekXB4GTYpkB31vAnRzgpDDwPhkbBvCQ8mkDct5FeH+BIQrNXbPBwXCViX8aVagcn69RjuT+tYFfV+5JhNUoedhyH14bFoHc9MMwwzDtXvm0lh/rIvs16Tg+7LvPJ+LMtIZb8Tas02DGVYwpgZP6kX33VQzln9KWxU637+nFcdJn7k0eP9auY6lN0KGJdxaYMts8bPK+2lFc5OG5v0wEN9jptWOd9PCk/Pkv9Pcl4py8o598Zzt+//nv/DWufmOpR90HWvm1U6VwAAAJvj/OeM2/NZ4+sPHO/nYw4v10nzWT01zzdgsd5+9Dd/110LOLXz131zBWC7CGUrpdrVNWEAALaRUPbiEppLQC4hswRtW+YJLOeifAmrJdy2iDqEF3XQdlogO+p5p4VkP3zFZ/amyT4MLbLtdYA3665l/ZPGRdnWhNvLdMOesKP0/twKKw+PVa0+brN6cS0B+uFrXh+LBBUnyfumDpkOJYhZxk16Xerw+dBR7Ms8cvzL+7+uYY/xRf0aJ/i6rso5qz+FjWqdz5+LqNv9Ud3ETI/TeR+eueHWvXNDqXIOSY0Zyi5KOLu01VT+X2n9f5J1lmmGlfkzvvXQyyLK/wepuh3Xr1HWNezRuw5ur/NDGYtYpXMFAACwOc5/zrg/nzX+6r8e7zdJrZp8Rp+njvsbthaR7Smfhdf5WhjzefX1n+5dBzhx+uzzfXMFYLsIZSul2tU1YQAAtpFQ9uLqnj8nhV8T+CvTTAqr1r1A52L9IuoQXuYtIdlZgeyo552mDtsNg4CLbnsJqSf4OFR6X80+JIhY1OH3BI5LaHIYeqx79W7d6Ji2v3UQetbNm7Kdw32olzGpJ9ti2rbUvYa3epyN8prkeA4dxb7MUofCEzBPT9vl97xWrf0Xyj5663z+XEQd6G09jLGItKn6oYhp1TqnlXHD808xa/xBZbvrYPasc1zC69n+Rf9PmWb40E8t5+n6WwByTqnD1+WYL3quWWerdK4AAAA2x8lTO8/ks0Z65d0W9bXJWdXqqGEs+Uxetksoezv88of+0LUAgO0llK2UalfXhAEA2EZC2YsrAbSEUCcFoB959PH9i+/pYbSlDrgu2ptLHcIrgedU1jvLtGBwrd6+YQ+nn/jU5yaOaykh4NRQbk6UcQn/FfUNjBznEtAcHvc6IN7a/2n7W4fnF6laHRyddfynbUu9vwk7DyUYX0LquSk1dBT7Mk0dwM57ugToh8HsYRg0Qe0y/rC99Y6pnLP6U9io1vn8uYj6QYW8vw+qDjbnPZpzW96Xea+W93F9Hhq+h6OMSxtumTX+MOoHLlptvz6vHEdv1PW5pfUg0jCYnf+TcsxTZdisb1TYJKt0rgAAADbHtlwLqJUOGuapVXoYuL7Gt+qh7FzLzDamyjUSFudaAMBWE8pWSrWra8IAAGwjoezFJBhbLqoneFYuWreqBGhTraDcYYJ09bx1YC83II6qp+xpoex5l1HU0w973a6De1lnUcLOpWfW+oZGHd4uy55082XattZBwnkry6tNO05Ds45bws4Zl/dOws45Njle2d+6l99WaPQo9mWS3JSpQ63D17A+Bpku213Uoe16+LpZpZsr63r+XFQeVinvndb7bl71+zM9SbfknF2mWbVQdn2OHPZUHfV55ThC2fW5ZdK3AQyD2TkP1A/jrHPbX9QqnSsAAIDNsS3XAmp1KDuf1afVoh1eHKdsT9nuXG9YZYtc12Qy1wIAtppQtlKqXV0TBgBgGwllL6YOQC9SrQvwdYDtMD1lR/11nq2eVGvDeSeZdlG+3vZ5LtiXcF6ClS3lJkuC7kWZpxy7hP5K0D3bFgmg5/fUpJ50p+1vvY9HEfg8TE/ZUY+fVJN6mz6KfZkkofCy7HLsh+r1J5CZ8GZes9KT+yr1WHQQq3RzZV3PnwdRn9sO2ttyOb/kfTnJKoeyZ7W/+rxxHDdQ629GmNbbfdp7PW2pw/Ryvo5W6VwBAABsjm26FlDUoex1IpS9fVwLANhqQtlKqXZ1TRgAgG0klL2YOlycINy0Kr0ep9LL8VCCamV8KwQ4TZZf5o2E4eqelKcF54bzTjLtonzpxTo1K4gcpZflVi+vUR+L9Khah63rY1MCmiW8nV5vW9PVpu3vrbfdvT9unv1oqcOck3qRLaZty91fum9veI7VnXfdc8G0eW2z79N6mz2KfZmkXva0m0n1eyZtpA7UTntProNVurmyrufPg6h7iU7lvThNzh05n6SH9qKcf/KezLlyKMPq9+qyQtl5eCLtYta3G8wKRdfniuO4gZrzUVl+zkWtY1hkXH3TPJXXY9o8m2aVzhUAAMDm2KZrAYVQ9vETyj4argUAbLXVD2U/8cQTuz/+8Y93X3rppf6/LtheL7/88u6zzz67++STT+4++OCDzTZzVNU1YQAAtpFQ9vzSm3W5SJ2eoudR3zwYBmXroOuigdVWuDfbV3qSTh0kpFybdlE+21vG1eHHlvpGRJbZkjBzmSY3K0pAeRiirMOBCWuWbUzoclLob9r+1qHug4aG622a1iNstq8Ozg+VUGgCmAdxFPsySb2Pk17Dog7sl5oV5FwHq3RzZR3Pn4dRB6ZTOf/mnFH3CJ/zX84dJYBdv0/rnv3zXq4lEF2fI1LLCmWXNpuHTPL/wbCH+/xeP7CS/09aAe56+4/jBmrWWf/fkuPZWk969C4PLg0rDymt0ldJH6dVOlcAAACbY9uuBcRBQtm5/pTrA6lZnSdEPstm2tZD4PlcnmuUucaQz96p/Jzpp33+nhXKznLLNk7rgKHel0nXeeMg25n9zfj6c3yu6ZX1pSZtW7YrxzbT5BpB1pefc51j3a//HZRrAQBbbXVD2Q8//LAgNkzx+uuv737ve99rtp+jqK4JAwCwjYSy55fwcblInQvd88gF6frCdq3uATahvEkXrTM8F7Vrudhd5q2VMHNZ5jDkF5PmHcrF+zLd8AL+cNun9fRaByqnXcwvob+E98q6s621bEdZVo5t1p2fM/0k0/Y3x6esd9prMM1wGZOORX08W9tSboJkGdNu7ExyFPsySR4oKNud0Ous7WuFaKe9R9bBKt1cWcfz52HkvVyff+ep+pyZG6z1uLS1nD/yPi1tpn5gYlmh7Lpdlcr2ZBnD3qYzfFKouT7HHeTcMY/hMUzlOGbdqRKGL5U2n+NYH9dUpt30cPYqnSsAAIDNsW3XAuIgoez6weJcH5sl02TafK4tch2ifki6VVlHri20zAplzxpf1NdBW9c+D7qd9XKnVWvb8pm+/nbIYeVawbY8lF1zLQBgq61mKPvRRx/t/5sCZvn+97/fbEeHra4JAwCwjYSy51duBORi9ryB11yELhelW0HZOryasNowuFpCbVlnrQ7hDdXh30w3XOe0eWv1clpBv7pH5FxwH2571lsvI/s6TX0syg2RVo/PJeRXpkkNQ+u1Wftb70eChK0ge+QYpBeZ1rGotz3LqGV59fhSQ7nRUY/PfmbbS2W5mWbaAwFHsS+TlNB4Kj+3AvZZXnr6LtPVlf0Z9ha/Tlbp5so6nj+PQnphqtt9q9JWWu+zvN/LTdlhpd3U5+plhbIj565hAHtYOX9Ma6tZZ5l2kTa9qByX+jzQqoxPgLsY/j+Qah3fTbJK5woAAGBzbOO1gIOEsqO+DjftM2jGlenq0HOuIZThuQ6Ra125JpeqP4OnWsuvl9sKNs8aX+Qzfpmu3r7ioNuZz+q5bphp6ussCVtnWKnh9dYso1xbyb/1+rK8spwE3Cddk9xUrgUAbLXVC2X/l//yX3Zffnm9e0qCZUqP2d/5znea7ekw1TVhAAC2kVD2fOqL5bngvIi695Dh12Ym2DoMCpYL3/WNh/xcy/gybigX1ut1DnvonjZvbVYoOxfXhwHJLDs9tOTfer8SyJ0VFqx7+S7VCv4Oe8zNeobB89qs/c289bHOPmWerCc3FfJvHURsBcCznXVPseXGRG4CleOQddSh6ZZheHFSZVmtY3MU+zLJcB9TWXb2MzUMa2bdCWcOe8/J7/WNoHWxSjdX1u38edRyLilfk1sq7+VZN/wyPtOmHaat3XnXPRe0ozwEkhuarfNJzk+Zd9J7d9b4WRIkz7rTRtOusqxs3zy9S2UfyvTTzoVHpawvx7GcX7LtrXNSkf3LPKl17zV/llU6VwAAAJtjG68F1Ne4FpFrBGW+Vpi5qHuZrj/P5zP+8KHjWn0NM5+Lh+rryPkcPDRrfDErlH3Y7YxZ139r5dpfXpfWA/H1t2xNO+6byLUAgK22eqHsJ598sv8vCpjXj3/842Z7Okx1TRgAgG0klD2f+iL9IkHWSNBv2gXphO5K78+tygXvYdgtF9LL+JZcRK8DtHUYfNa8xTwX5ROuq6drVcbPExTMsur56q8NrdU3LlLDnqmH5tnfefYjlddiUvAzr9EwtFwq25B11DdDhvI+KPMnuFwCjKUSfK6Xn9Bza1uOYl8myTbWx7NV2cZsb7ajSGiznibHYd2s0s2VdTt/wjZZpXMFAACwObbxWkAdyp5Www40ch2yXEPLv5OuS5bOJvLvoupv8htaVih7HtO2M+priNNC2fU1zUkh8Kh7KZ/nQfNN4VoAwFZbvVD2s89Of9IKeLOXXnqp2Z4OU10TBgBgGwllz6f0ypqA9aI9kSacmnlTkwLdWWYuaGea8vWRCYLnIn1LmTY9o05S90xaXwSfZ97IujPdPPucQHKWV/ecmov103pObcnxKds87FW8lnWV6WatY979jSwr+1t6q01l3gybZ19y8yL7kOOQ1zG9x9Y9x+R1yPIyvJbjW2405WbJtOOdG03l5sa0cPNh92WazJ9l5UZLvewc60nbnnmy7Tkuh13/GFbp5sq6nT9hm6zSuQIAANgc23gtYN5QdqvDhjps3LrGWAejc+1sUXX4eGiVQtnTtjPmDWXn2l+mSch9mrqX8lwn3BauBQBstdULZb/88mZ/XSUch3/8x39stqfDVNeEAQDYRkLZML7cHCo3LGb1xD7vjRuO1irdXHH+hNW1SucKAABgc2zjtYA6lJ3rYZOqFSbO8DLvsCftqL8V8SA9Otdh5qF63WOHsqdtZ8wbyi69iufb/aap9y0dQ2wL1wIAttrqhbKBg2m1p8NU14QBANhGRxXKvvjqb/3SO6+5b+dX/tU9b+0HTbWNNxJgkvorQGeFstPLdpl2m3qcGdtx3lz5lY/e8zP9j3Nx/oTVdZznCgAAYHtt47WAOpR9ECVI/I6LP/Kmb3Yr4y67/Pp+SFv5RrzyTXHpKbpsU6mhMULZB9nOmCeUnWNXL2fe2qbOJFwLANhqQtmwKVrt6TDVNWEAALbRUYWy3/m733rHxdfct3vx1fe9Mk84extvJMAk3/v+U/s3LHIzaNJNkISwcyMp0+XG1Isv+gayZTnOmys5D7/z6m/99cVX3XfFPA+2OH/C6jrOcwUAALC9tvFawGFD2Tfd/MX9+etOEOpQdDo/aEkHCiW4PauGlhnKPsx2xjyh7Ho75q2EwvPNgNvCtQCArSaUDZui1Z4OU10TBgBgGx15KLvUjHD2Nt5IgGnyVar1zYuEs0vvNqkPfPC6/XEJZj/y6OP9nCzDcd5ceefV37r+gvPnNffd/i+uvvc3+9Fv4vwJq+s4zxUAAMD22sZrAYcNZdedIFx73bl+6O7umRtu3R/+k+de6Ie+of5GuwSeE+5OkDpV1GHmoWWFsg+7nTFPKDudQpRpco2SN3MtAGCrCWVzeOWPuOEfcyxXqz0dpromDADANjq2UHapCeHsbbyRANPkq0Bz82RW7za5WTLpJgnH5zhvruQc3Dx/XnPf8++85ls3/epH77uon3SP8yesruM8VwAAANtrG68FHDaUHaWTg3RwUL5xrlx7u+ZjZ/d+H0pHCWWeBLtbDhPKTkcLZfyN527vh77ZrFD2Ybcz5gllRzlmOZ68mWsBAFtNKHvT1V+/cpCqv7Kllj9O88dYvmKkNV/+8MqThU8+9XQ/B8et1Z4OU10TBgBgGx17KLvUIJy9jTcSYF7lQejcuEl9894H935PcJtxHOfNlXdefe+vNc+bVb3z6m/99cVXfevanEOdP2F1Hee5AgAA2F7beC3gKELZt9529/4y0rN0HZjO70N1r9CTQttxmFB2HbbON+dNcv+3H96fbhjKPortjITCy/hp38r34Ss+szdNAuCt3sW3nWsBAFtNKHvT1V+zcpBq/dGZPxhn9dJVKqHt1jI4eq32dJjqmjAAANsooex3/u59n02o+jB18dXfuqoVJHxT9eHs/+v7/r9bdyMBWF/HeXPlXdf8xc82z5cT6p//f+7ezTkUWD05T/yPl//vzbY7RvWnGQAAYM2V6xLb5ChC2XUAOuHlkqlJuLjV+UECx2X6Sb1CZ5rSA3dqaFYoO8r4SduRnq/rThOHoeyj2M6oQ+uTOnGMO77wlf3ppvXuva2O87ohACtPKHvT5Q/K/IHXqvIHUr7CpDU+Vb6upcgfiGW+1JUfPbM3LNPmD7j8m98zvJ4uf8hyvFrt6TDVNWEAALZRel69+Jr77jlsvfOabz10/t9mIKhV/4+P/NnuRZfe2P+FC7DajvrmysVXf+uX8kBLvqkgD6q0zpOtSo/Z//QD/9vW3YiFdbFKN2Jzzuh/BAAA1lz5rLFNjiKUHSXPkgB06ZBwWg/VdaeF6a26lrB0vV2poeRoyrhJoex8E32ZJttSB7MTjh5+i/0wlB2H3c7Iusr4HKeyHfk3maAivydrVKbNt/i3wuQZlo4cty0ztErXAgBYOqHsbVb/ITWP/JFW5klN+mOxyB9d9fR6zD5erfZ0mOqaMAAAHNxeb9mD8GCzrr7vzl/96H0XbeONBGB9zXtz5Vf+1T1v3f8Wgau/dX3q/Lnv9vN1wcMr/c95qOX2fprny7hJlW81+JVP3vMW509YXfOeK5Yh543+RwAAYM1t47WAYah4WiVwPcmdd93zpumHIeZa3St0KmHk5GHqUPJhe8oe5nFSH77iMxcsN9tRjkErlH3Y7YyEqOtwd35OpijHc7jt2a86LJ5pMm16zk4v5Nn+Mi7bvU1W6VoAAEsnlL3Nyh8/84ayM12ZJ3+kzqMOZuePNY5Pqz0dpromDAAABzczlN2HsfvJt/JGArC+Jt1ceefV9/7a+XPcPefPcc/057uEq7tvEPjd+z6bwPVeb9g5R179rV/qZ3uT9IDdz/+meuc1993/rmv+4mf7SZ0/YYVNOleMIeeP/kcAAGDNbeO1gAR9S/5knpok3xifAHGZbp4sy7BTwlIJJad36XRSWIYNzRPKjmHIuVSGldD4tFB2HGY7i2/e+2BzO2697e5+ijek9+xZr0uObwLj22SVrgUAsHRC2dus/AE0Tyg7f3SV6Rd5gi1/gNV/zOaPSI5Hqz0dpromDAAABzcxlD0IYxfbeCMBWF+Tbq6UnrHzbz/oQM6fL7/cOH++cvFV37q2n2Sf8yesrknnijHkPNL/CAAArLltvBaQ/EkyJ/PUI48+3s/Vlp6pEzJOWPjJp57uh0739DPP7k2fYHUqQekEvCP/Znmtb5BP79MZnvFZxjQZn3xOvY7MX+T3Wcs56HbWhsvI9PV2DOWYJ/Rdpk9lPbNeh021StcCAFg6oextVoLS84SyP/Gpz+1Pv+gTbPW8+aOL49FqT4eprgkDAMDBvSmUPSGMXWzjjQRgfR33zZWLr/6Lf3fBOfSa+778Lz96/9v70Rdw/oTVddznikXkXNL/CAAArDnXAmB1rdK1AACWTih7m5Wg9Dyh7Msuv35/+nmfEizqrz85c8Ot/VCOWqs9Haa6JgwAAAe3H8qeEcYu3EgA1slx31x559Xfur4PYz//q9fc91v94CbnT1hdx32uWIRQNgAAbA7XAmB1rdK1AACWTih7m5Wg9Dyh7He9+8r96ReVrykp81573bl+KEet1Z4OU10TBgCAg0uPrvOEsQs3EoB1ctw3VxLEvvia+27/lX91z1v7QRM5f8LqOu5zxSKEsgEAYLX9i6vv/c1f+eQ9b+l/ncq1AFhdq3QtAIClE8reZiUoPSuU/eKLL+9P+55Lru6Hzi89a5f50+M2x6PVng5TXRMGAIDlcSMBWCfHfXNl3puw4fz5htdee333jz9/1971rlI33fzFfiws33GfKxYhlA0AAKvt/N/sT1x89X3PXHz1t66adV3AtQBYXat0LQCApRPK3mYlKD0rlP3Io4/vT/uBD17XD53f0888uz//pe//eD+Uo9ZqT4eprgkDAMDyuJEArJNVurmyqufPBKTzDWp5YH8ZfvLcC3vXrsp1qLpyfWrbpeOFg7weuTaY+TiYVTpXCGUDAMBq2wtln/+7fa9mhLNX9VoAIJQNsOWEsrdZuSk1K5Rd93R9kFB1HcrWU/bxabWnw1TXhAEAYHncSADWySrdXFnV8+c1Hzu7f01oGaHoG8/dvr++XO9Kj9mpbEcC29vuIK/H3V+6b3+eHEsWt0rnCqFsAABYbReEsmeEs1f1WgAglA2w5YSyt1m5oTIrlJ1edMq0qUWlJ50y77XXneuHctRa7ekw1TVhAABYnlW/kVB6Ck3l51kyXQJsCbStg+99/6ml9Wa7qdbtNZ9kU/bjuK3SzZVVPX/mmlO5JrSMUPY7Lv7I3rrSqUB66eZCB3k9hLIPb5XOFQl09D8CAAAr6Pzf7G8OZZcahLNX9VoAIJQNsOWEsrdZuaEyK5Qd73r3lfvTJ6S9iK9+7YH9edNjEcej1Z4OU10TBgCA5VnFGwn5/JPPMSXoV1c+J5254dZm76sJA9afo+YJcY/p1tvu3t/WfIZjcev2mk+yKfuxDKt0c2UVz5+xzFB2ll/W9enP3tIPpSaUPY5VOlckyNH/CAAArKDzf7NPDmWX6sPZF11640peCwCEsgG2nFD2Nis3VOYJZV92+fX703/z3gf7ofNJSKHMe8cXvtIP5ai12tNhqmvCAACwPOVC5apIYK0Op06qD1/xmX6ONyTYWge50wv1UKZJ2C2B6OMOK86SoF3ZVr0jX2je12me13xMm7Ifq2SVbq6s2vmzWGYoOw8QlHUJD7cJZY9jlc4VCXD0PwIAAMfs/N/fswPWh6h/8dF7dv/pB/63/pMHsEpyHeB/vPx/b7bdZdevXnPfb/WnJQCWQyh7m5UbKvOEsj/xqc/tT3/tdef6obOlVzk3c5ej1Z4OU10TBgCA5VmlUGGCqQlb15+DHnzosb1x6Rn7/m8/vP856dL3f3xv+NCdd92z11vrpIdTE4gryx+7V1eh7MkWeZ1mveZj2pT9WCWrFLRcpfNnbZmh7Jyjy7qEh9uEssexSueK3IztfwQAAI7Z+b+/n/iXH73/7f2vc8k8JUg5ta6+787/22/evJLXAoDVuRZw8dV/8e+EsgGWTih7m5UbKvOEshOmLtMnZN36eu6W+iuwFwlzs7hWezpMdU0YAACWp1yoXAV1uG/aZ6aE2r76tQf63xazSEj2uAllT7ZKr9NhbMp+rJJVubkSq3T+rM0TAk74P+eg+kH+/JxrStd87OzuTTd/ce88mwf/WzIu8+d9XdaV9WZYqda8WUfmzfIz/Y3nbt/blvS4Pctwm3OdLPNnOXlgpzzEU7T2Mesp686/edhnKNudhyRyTS3LzTF58qmn+7GLm+f1GJo3lJ2HmbKfZZ+yzfNub45F5s1rmNc868nxmPSaF4u+DmNZpXNFwhv9jwAAwDE7//f30Yeyr77vzl/96H0XZdpVvRYACGUDbDmh7G1WbqjkRsU8cjOlzHPZ5dfPvHlT37RJkPswN42YrdWeDlNdEwYAgOVZpRsJ9QOmCcQdh1UKySbUVrZFKPtCmxJm3pT9WCWrcnMlVun8WZsnBFzG5zyUYG/9bW11TboWlW8raE1fV/3wTNaR4G5rulIJBk/rkKBMVwLB77nk6gvmH15rq6fP+utrbHVlvRkfCSUPl5vKNbaDnqfneT2G5gllT9rWUpO2N6HrOkw/rCxzWki+TDfv6zCWVTpXJMTR/wgAAByz839/H10ouwpjF6t6LQAQygbYckLZ22zRGxS5uVHf2MhNr9x0Gd6kKr3S1NOmlxyOV6s9Haa6JgwAAMuzSjcS6s806YnzIBIkS1Bs2PtpGV6vI2HDDCv1zXsf7Kd+szzwmvGZLuHF/Nv6bLaILKNsy6TwXNaR6eqAXAJ1CTsmVFe2u7UdZXvnCbhnmaX300mhwcMeg/Semnmy3alWb64HeZ0mveZD2cey/dOq9XBzPpvnOGZ8Ps/n8/a03miPcz8iAdIcz2xDjmW2J9s3Tw+1h3lPrYJVubkSq3T+rM0TAi7jz9xw6957s/yenzN/Qsj1sKG8tzNdPW+uWWVYqbon5Xq6VMbn/ZZ/6+HveveVE9tVmSbrboXCs6xaGT7cxw9f8Zk3bU+WWQehs/9Z3nA9ZZ8WUe/jUYWyc4zKa5Rjlu3PdKmyvhzfobwWH/jgdfvLzrEo82X6Mjw16VxUxs/7Ooxllc4VCXP0PwIAAMfs/N/fhw9lN8LYxapeCwCEsgG2nFD2NjvIDYrcGK1vhpVKTzRZTn1zJ5VpDxpgYDGt9nSY6powAAAszyrdSKhDaAmKHUT9+aiWnlDL8GnVks9Xrc9kqYThhuHaeSUEV5YzKZRd9qeE6xK8nfT5cBgWrHu+nbWNs3opP8wxSAhx+Lm1rvqB4oO8TpNe81qOb7azXsakSm+6RYLL07Y9leOcUHPtuPYjco1g2r6k7UwLfh7mPbUKVuXmSqzS+bNWv5dmhbJL5T1bh6EzXx24ndTG8yBAmSbntJaEd8s0Wc+wveQhg7rN1G2wVsaXSrC6PDyQZQ7D3MPps476eAxD2OXn7Ee9jXVYedK2TTPP6zE0K5SdoHkZ3wqx59xVP3hR1PvSOtdnnnJ+yfFtKfOXmvU6jGWVzhUJdfQ/AgAAxywB6wOHsqeEsYtVvRYACGUDbDmh7G1WbljkhswiciO0vokzqdLbzSreNN1UrfZ0mOqaMAAALM8q3Uioe/5MJTyWsN4i6s9NtToUOKlaAbQE8Mr4BBRLD9FZT72tk0LV0ywSys566xBeeUi3/J7K9tS9G6eX0zIu80+TIG+Ztl5GHOYY5PWre6TNa5p5y/xlmcVBXqf6OLTU4cYctxzHrH8YnM5yUvVDzvX+5fN25kmIfLjvWWbtOPYj6kBlKscu89XHOJVQ5aRes8t6DvKeWgWrcnMlVun8Watfx3lC2Xlft861CWKXaSadQ2aFsnONqoxvnWOL4bmidW2rjEulPQ7D3UP19JP2sT6/pVr7kPlKe8+/i5rn9RiaFcouy6zPn7PUr8XwnFXLObBM1+otu4xLzfM6jGWVzhVC2QAAsDwHCWW/85r7dmaFsYtVvRYACGUDbDmh7G2WGxu5mXLQntRyMzQ3vLKM3IzNTZjcQMrv83xNMUer1Z4OU10TBgCA5Vm1Gwn5bFMHvhI4W+TzUx1+a0kgrozPZ6pp6kBiKyCeEHm2L+MTaF00vFrv66xQdqnh8UgYrg4y1r1OZ3uzXRmeIGErkBj1Mcn6aoc9BunVuczf2sfM3xq+yOs07TXP8SlhylZ4sA6ut7Yj8+Yzd6vn1wwrxzfVmuao9iPq1yLHfBhazWuTdZRp8r5oveaHeU+tglW5uRKrdv4s6td4Ugi4jE+7mHRuyPAy3fDcUMwKZdfB//p91pKem8u0rfddGZd2OU+HBGX6aftYr3NaG60f4lj0XD/P6zE0K5SdkPyiy6wfFmmdr4r6vNVadxk37+swllU6VwhlAwDA8hwklL2IVb0WAAhlA2w5oWzYFK32dJjqmjAAACzPqt1ISHCuDvGVSnB0UnC5NivYOm9INttRArfTenetg7KLhlcXDWXnGLTCd3Xvpwkf1upjmYB0y6233b0/Tb0dR3EM6hDgIr2pzvs6xbTXvA5dT9r/Mv/w2M2jPnatwOlR7Uf9WiQIOS0UWodH616/i8O+p8a2KjdXYtXOn0X9Grde3yjjM+006XV92vtgVii7fj/OUreXVs/cZdysbS7mmb4+R7S2v6gfeJh0TCeZ5/UYmhXKrsfnNZrn/8fyWuQcMk3ON2XZR/E6jGWVzhVC2QAAsDxC2bC9VuVagFA2wChWL5T9+uvt3mKA6Vrt6TDVNWEAAFieVb2RkABt3QtxqYRIp31LUB1+a6lDf9NCsnXQeFbYrYQWE3hbxKKh7Glhvg9f8Zm9aYZhu0cefXx//knbV89bB6eP4hjUoeVJoeiWeV+nmPaaJ5Rcxk06fnXYclH1MWoFoI9qP+oexxN0n6YOybZCk4d9T41tVW6uxKqeP+d5jcv41nuklnNupsu/LbNC2QlzZ1zO5/Moy2o9CFLGzdrmYp7pZ21/sWqh7Kh7y07lNco5d9IDMOW1WKRax27auFWySucKoWwAAFgeoeyDy2fkXIPK59D8u8rfjrTO0tlCOrbItYY8LM7RWZVrAULZAKNYvVD2888/3/8XBczrlVdeabanw1TXhAEAYHlW+UZCeuu886579kOBdbUCsFGH31rmDcnWYd4nn3q6H9qW8GCmmxRanGTRUPY01153bn+6YS/K5fgNQ9dRH49hj6hHcQzqHpez/rye85j3dYppxyjrK+Mm3Ugqx27e0GhtVqDzqPajDrdnnbOUBxpa78mjeE+NaVVursSqnj/r13hSCLiMz7TTlPPHpPPbrDaQdj9t/qGyrNb0ZdysbS7mmX4Zoey6t/BZ59KiDmWn/U+S8/TwAaYc89Y89TTzVuucXcbN+zqMZZXOFULZAACwPELZi8k1n1wTLJ/fW5UH94WHj079mX/VP1uvm1W5FiCUDTCK1Qtl//CHP+z/iwLm9dxzzzXb02Gqa8IAALA863IjIcGwYfAsvUAP5UJ2Gd8yb0j2zA237k+3SC3iKEPZ0wKD09ZTh32HN1eO6hik55d6fF7HbNO0oO9RhZnrwGW2YyjbUG46JYQ8ScLseQ9mu3OjKutMlTB6qhXoPKr9qHvEnScQWm/X0FG8p8a0KjdXYlXPn/VrPOm1K+Mz7TSHDWWX+dOb/ix5EKcsKzd8h8q4WdtczDP9MkLZ6d2+zJve9eeRbZl3nhy3nNtL7/alcg6vLfJaTFOWP+/rMJZVOlcIZQMAwPIIZc8v1wKH11unVa6t5TPoOsn143zGTh33ts+7rjqUveg3LzLdqlwLEMoGGMXqhbK/853v7P7DP/xD/98UMI/vfve7zfZ0mOqaMAAALM863UhIEK6EyiZdtK7DiC1ZRhk/LSRb92w6by0aUKtDd8cZyk7PrGXccBtLiC83YIY3C47yGOQrT+vXLpUw9KSbOfO+TjHrGJV9LOtLj9kJYyfo+IEPXrc/b8KZQwlj14HoaZXXc+io9mPe90FRTz8Mv8+7rMOEUI/TqtxciVU9f9av8aTXrozPtNOUdpt/W2aFmuttmXXzsz5XDQPFUcbN2uZinumXEcque+yf9C0PQ/X6Fvm66JzX6t7N6vZfn9MPcyO6LGPe12Esq3SuEMoGAIDlEcqeT/0Neal8Ds3n1/IZNJ/Rc71y2GlD6yHqVbbM61vzrqvu/GGVrrltglW5FiCUDTCK1Qtlp5544on+vylglh/96EfNdnTY6powAAAsz7rdSKgDdAkSD9UBwJZc6C7jc6F8kvoi+rQenQ9jWaHsqHtQLftTH4tWAPI4jkHC2cOwd6uH6nlfp5h1jOrxk6oVlExosZ43vU/ndcp7sFR9A+s4Q9n1MWu9vkOlp+yEM4eO6j01llW5uRKrev6sX+NJr10Zn2mnOWwou34fpf1PU7en9OI/VMbN2uZinulnbX9xmPaQnrLKvGmbswLROd+mN+syz6IB6vr/lrqX7fpGeuubJuZVljHv6zCWVTpXCGUDAMDyCGXPls+d9QO90z4PRz7P19PP+y1Qq2CZ17dW9VraNlmVawFC2QCjWM1QduqHP/zh7j/+4z/2/10BLc8880yz/RxFdU0YAACW58Tps8/nQuWzz7/U/8W7+uqw2lAdRmzJBfEyPhfKJ0kgsEx3mPDaNHVw7rhD2XXYMT2xxKx9PM5jkOXVr+PwZs68r1NMO0Y5rhmedWW/62nTS3YC4ZN6oS3zpiZtw6xA51Htx43nbt8fN89rUY5tAqBDR/WeGss7L/+jlQlalhs9q6Z+jSe9dmV8pp3msKHstO0yPg+HTAoYZ3j5yuT8m16jhspyZm1zMc/0ywhlZ9/qXvlbgfNaHZ5uPTAzS90zd76Kuqhfi9bDMPMqy5j3dRhLaZ99cx2VUDYAACyPUPZs9bfC5Vvl5lF/pmx9496qWub1rVW9lrZNVuVagFA2wChWN5Sdevjhh3eff/753VdeeaX/bwt4/fXXd1944YXd7373u812c1TVNWEAAFieE6fPPpQLlY/94G/7v35XWy74l4vbCbkN1WHEllwQL+OnhWTTA0yZrtWL8lFYZig7PeCU8SVIV3rPbh3HOO5jUN/MSei4Nu/rFNOOUYKHGZ6bTYuqg5GTbqQsK5Rdh+pn3Syrt6m1zqN6T41l7+bKqZ1X+lPYqMqNnlVTv8aTXrsyvpwPJjlsKDvqnvrT6/vwxm22sfTunpp0vinjZ21zMc/0ywhlR72eVJY3DJ7nPF33ip9j3rrJnelyvFo9j2eZ9bEcrqOcE1PZhkk30XN+zjnwKMLxYynts2+uoxLKBgCA5RHKni6dE5TPden9uvW5b5L682bp9KGWz6v5bJ2a1AlC5LNomS6fl2fJNJk21/fyWTSfZ/PA87R1ZHzmqbc51x/LelOt+bMPuU6bdWRdZX2ZftL1gEXXVe//PJ0vHGT/o15P9ivyepfP/FlWrjPm902xKtcChLIBRrHaoWyl1HjVNWEAAFiek6d3vpwLlfc9+ER/6XI8ueA9KSBW1L0Xt3r6zMXkMr4lyy/jExScJBeqy9dyHlfvL7kgXrbluEPZUYf95gkiHvcxePKppyduw7yvU0w7RuVmSLZ/0SBlHV6cdJMjN0DKNK3jeFT7kfWXcZN6ES5mbfdRvqeWLT3653x14vTZY7uotojyTQN//9Kr/Rauhvo1nvTalfGZdpqjCGXnfVj3jJ9K28y66x6kU3n/TjrXlGlmbXMxz/TzbH8cRXvIjc6yjFJpz9m++mugy/BJN2az/nq6HLNse27O1se59QDH8LXIerP+3IwtN3frbWntaxk37+swll/+0B8KZQMAwBYSyp4unx/L57p81l1E3WlA65ud5v2MXX+unbYNuTZZP+jdqsw/vI5QL39a1duYZdQdNLQqn5eH+3WQdc17nA66/0W9nvycba2D43XlM/4iAf1VVdpn31xHI5QNMAqhbKVUu7omDAAAy3Py0p3P5kLlmc9/o790OY5cZM4F4ATMEnTN70PpgaUOi+Vi8lAuIJfxk2QdGZ9ltQJnRXo0KctKoLm1TZFlZJunLaslF93L8pcRyq4D7SVoOW36OOwxSFiw1Ztr1AHFVo8s875O045RfYxTCYBm+lLZp0zTOv71vMOevGMYsJx0E+Uo9iPq1yI3UIY3SnIDpn4f5Ni3zFpPMc97atn+9OuPlpsrX+5PYaNa1W8aqF/jSa9dGZ9ppzmKUHbk3FE/GDKstI9WL1u1Mu2sbS7mmX7e7T+q9pD1DYPow8q6Zt0IrbdnWDmWrUB2Meu1KNW6wR5l/Lyvw1j2zhUr0qu+UDYAACyPUPZ09efJ+7/9cD90PnUHC63PhPN+xs7n6jJdtqclDyrXDxXnukSudeXzbtZdhqfyObsOJufnfO7NdOW6XCoB5wwrVV+zrDteyDx5cDn7kBqur74mfZB1zXOcDrP/Rb2e7F9ZXq4btB7MnnQtcZ2U9tk319EIZQOMQihbKdWurgkDAMDy/MKpG34pFyp//YrFekY5agmg1ReBU7mQXS5c1xehU5MuWNcXpSepw61lHblQnvXXcjG7Di+XaXPxO+vPv3XvIpPCx5NkGWXeZYSysz/DY5z9nuawx6DcjMi/k25mZBtaNw7mfZ1mHaNp4cW6sp91z9K50VQfr+xntj3bVUKVeV+W92bGtRzVfiRIWY5nqcxTvm603tZs36T3waz1FPO8p5btt3/vznJzZSVuapzfjpX5poFa3sd5Pybk3GpbkXNOpqlvJLbkgYlMN+mrbHPuTk9ZmWae90nWl3Xn3JFzQm4KZtg8vTHNu83FPNPX2z/poZPI+SDTTDum88r82aastxyHLDs3w7OeeeV4Zxk5x6RdZxk5ntP2o5YbvOUY5QZyOa9nO6a9Hou+DmNYtV71hbIBAGB5hLKnyzWpcr1nkc+gkc+KZd5cRxvK58QyPp8bJ8nn2TLdpFB2fb0xn1eHsoz6oed8Hm6Z9/pWPutmnZOuf2R8WU4+g7fMu655jtNR7H+9nlJZVv2Zf/iNWvW10XVU2mffXEcjlA0wCqFspVS7uiYMAADLldBSLlZ+/YHH+8uX48iF4vqCc6tywT8XwSeZJ3DaCremhiHZyEXqeUK92e55g3BFLrqX+Sft01EHaBP+K9OlZvVMG4c5BnUguVXZv0nHbd7Xadoxys2lcmMhN51yzOvK8ahvPGR99fYkZF6PryvLy7QltJ7ltRzFfhTzvBYZPy00etTvqWVJb9R7N1ZO7bzyc+8789b+9DWq89tzU7bpln//n/utBFZBHpRI2zz/9809fXMdlVA2AAAsj1D2dPU1qjqcO6+6U4Dh9aejCmXXAehJ3+IUueZWtif/1tf0iqO8vlVC0DmGLfOua9ZxOqr9H4ayJ70mGT5rmnVR2mffXEcjlA0wCqFspVS7uiYMAADLdfLUzlW5WJnesl99/af9JczxpPfO9O6RC9kJkJZeRCf1VFIrvbrOChvnpkPWUXoYzQXuXKieJL2ElF5NM30q68mwg/YgkovzWUZq0oX6efcn2162Z1ogNxfnyzqz/4v0+HrQY5B9yzT5CszMk38z37TjXczzOk06Rtm3EpjOTZNp+1qH1YcB+Ryz+v2YddVf75rpM2zaMTjMfrRkXZmuLC+vSbZjnvfiUb+nluWq3/+zErLc6U9doztx6oZfyzZ96No7+q0EVsGZz3+juxF7auf6vrmOSigbAACWRyh7unL9K3UQ5Vpbang9M9eSyrhcU5ok85XpWqHs0mnHpKB1rb6m1/oWw6MMZeeaZllWy1GFso9q/+v1tI5zkWvxZbpca1xnpX32zXU0QtkAoxDKVkq1q2vCAACwXG+77JNvOXH67EO5YJkgE2yCBKfLDYXWTZnavDeNGMcX/uNflYDlyvSSHTl3ZpuybT/6m7/rtxYYWx4yS7v8hVM3/FLfXEcllA0AAMsjlD1duf6VOojSM3Nq2NP2UYWyy7fWJZw8S675lWWlQ4Showxl18tqOapQ9lHt/1G9HuuktM++uY5GKBtgFELZSql2dU0YAACWL8Gli07vvJqLlglAwrqrv+pzVig7Ny3KtOlJmtVx34NP7P6z9//b/55z04lLzl7Rn7JWxvntuj3b5oEWWA1ff+Dx8hDHM30zHZ1QNgAALI9Q9nTl+ldq0ZByQtj1/ENHEQJOz9Bl3DUfO9sPnaxeZ76ZbuggoexcRyzfTpcqIem6Wo4ilH2U+y+UPR6hbIBRCGUrpdrVNWEAABhHAo/lwqWAIevue99/av+GQnqWmXQzJCHs0stPvoJ12MsP48kDIvuB7NNnd/pT1Uo5+d6di7J9v/gb53afff6lfsuBMbz6+k9333n5H5VQ9lV9Mx2dUDYAACyPUPZ0ufZVrpc98ujj/dD5PPnU0/vzZjlDRxECzjZNGtcyK1A8b1A60sHDey65en/6adUy77qmHaej3H+h7PEIZQOMQihbKdWurgkDAMB4EswuPWa//3dv2/3LR37YX9KE9fOJT31u/6ZCKuHs0stN6gMfvG5/XILZi96M4nj86G/+bveq3/+z/Rsp5+um/hS1kk6cOntntvO3f+/OvVAoMI48ULZ3zji189dvu+yTb+mb6OiEsgEAYHmEsqe79rpz+9fC7vjCV/qh86m/aS7X3IaOIgR8mJ6ib7r5i/3QN8wblK6/cS/B7Cwry04V9bJa5l3XtON0lPs/bT01oeyjJ5QNMAqhbKVUu7omDAAA4/qFUzf8Ur72v1zE/NC1d+z1WKsXWNbNa6+9vndDYlYvN7nhMO1mCccvYeYvf+ux3X999kv7N1DOn4deyYMi/alpZZ18787bLzq98+Ns86dv/vN+j4Blyt8p++eOS3dyAX5lCGUDAMDyCGVPlyB2uR6WzgsWUfeynRDzUN3L843nbu+HvtmsEHD5RrsPX/GZfshkX/3aA/vLuvOue/qhb5g3KJ1jkWmy7nz7Xku9rJZ51zUrLH1U+y+UPR6hbIBRCGUrpdrVNWEAABhfepg8eWrn+pOnd14oFzNL/foVt1zwu1LrUP/Dez69V//0167dq//h//mpvd8vOnW2Ob1aTl3yO3/SHH7i1Nl/93PvO/PW/pS08vIwS/mWAcFsWK46kL2KD3IIZQMAwPIIZU9X98ScSnB3HnX4N50fpCOEoTrc2+pJu7j/2w/vT9cKAZeAdGpauDnqnr9b+5JweBk/6RvyXnzx5f1ppvVOPSuUPc+6YlZY+qj2Xyh7PELZAKMQylZKtatrwgAAsDpOvnfnZ06e3vmt83V7eq0tFzaVUuqo68Tps/ecP89clZ6n+1PQWjlx6obfLPvyv3zi/9j9+5de7W8JAcflzOe/8cZ55NTO9X1zXClC2QAAsDxC2bPVQd53vfvKqQHiSK/YpffmVKtH6qJMk+lbwe30Qp11lulaIeC6N+8zN9zaD32zumfuSb1+33rb3fvTJFjeUgfVP/DB6/qhF8o0GVema5lnXTErLH1U+y+UPR6hbIBRCGUrpdrVNWEAAABgHZ28dOcdJ06ffT43gH75Q3+4e8u//8+7r77+0/7WEHBUvv7A4xd8c8cq9pBdCGUDAMDyCGXPloBxHYxOgDqh3bqn5fQenR6t696fUwl0T1MHvtNbdh3MTlC5Xm+qFQLOPOmNu0zTCiZ/894HL1hWwt4tdQ/fV370zP725N8ch6JeX/a7lmVf+v6P749Ptcy7rllh6aPaf6Hs8QhlA4xCKFsp1a6uCQMAAADr6udP/8HP7vX63d8Ieuflf7T76Zv/fPe+B5/obxEBB/HYD/5298bb7tu95Hf+ZP9G6/m29kQehuib30oSygYAgOU57lB2eRB73b8dKyHhD1/xmf0wbl11j9DDSlh4GFquJRw8nCfrqZeZnqBLyHlSCDgB57p37lR6g07YeTg8y5tkGHDOz2UZdVC57p06lXXddPMX9/4tw2b1lD3vuuYJSx/F/m9jKDsdJKR99s11NELZAKMQylZKtatrwgAAAMC6O3l655ITp88+VMKjddU9/CqlJlcdwL6gTu08c76uettln3xL3+RWllA2AAAszxJC2Xuf8/PQ6Ca49ba79wO5kyq9X6fX63pYetBOb9otCQMPe8ROZVgJdM8KZceTTz09MTieSkj6kUcf76eebNirdKnsey0h7OE0qcybkPTdX7pvf9gk86xr3rD0Yfd/a3vKPrXzSt9cRyOUDTAKoWylVLu6JgwAAABsir2esy85e216zy49aimlFq++De2ses/YQ0LZAACwPMcdyj7/2eTL+Xyyad+GlR6uEyhOeLdUfk9gt7jzrnsu6KU54eMEmVvh7MxXLy9h7PQkXeT3BJXr5U+SbUsouiwrP2fYIrKe9ChdlpGAdb09xXC6bGfZv/ybbc6808xaV37OsOPe/0XWU5afIPi6evb5l8q1g2ML481LKBtgFELZSql2dU0YAAAAANgEQtkAALA8Swhl35Tg5y3//j/3UdDtkp6Z00NzCWan0os2jC0PSvSh7Hv65joaoWyAUQhlK6Xa1TVhAAAAAGATCGUDAMDyHHco+8SpG34twc8PXXtHHwXdTukJ+j2XXL0Xyr7yo2f6oTCeM5//RvdNW6d2ru+b62iEsgFGIZStlGpX14QBAAAAgE0glA0AAMtz3KHst132ybecPLXzSsKfP/qbv+vjoNvrm/c+uHv/tx/uf4Px/PoVt+yFsn/h1A2/1DfX0QhlA4xCKFsp1a6uCQMAAAAAm0AoGwAAlue4Q9lx8vTO7Ql/pmdeYHxff+Dx0kv2M30zHZVQNsAohLKVUu3qmjAAAAAAsAmEsgEAYHmWEsp+785FCYD+4m+c2332+Zf6WCgwhldf/+nuOy//oxLKvqpvpqMSygYYhVC2UqpdXRMGAAAAADaBUDYAACzPMkLZceLU2TsTAv3t37tzLxQKjCM91veB7L9+22WffEvfREcllA0wCqFspVS7uiYMAAAAAGwCoWwAAFieZYWyT7535+0Xnd75ccKgn775z/t4KLBMX/iPf9UFslOX7iSMtxKEsgFGIZStlGpX14QBAAAAgE0glA0AAMuzrFB2/MKpG37potM7rwpmw/LVgewTl5y9om+WK0EoG2AUQtlKqXZ1TRgAAAAA2ARC2QAAsDzLDGXHiVM3/GYJhv4vn/g/dv/+pVf7yChwXM58/htv9JB9auf6vjmuDKFsgFEIZSul2tU1YQAAAABgEwhlAwDA8iw7lB0nL915x4nTZ59PQPSXP/SHu7f8+/+8++rrP+3jo8BR+foDj+/++hW3rGwP2YVQNsAohLKVUu3qmjAAAAAAsAmEsgEAYHnGCGXHz5/+g589cfrsPSUs+s7L/2j30zf/+e59Dz7Rx0mBg3jsB3+7e+Nt9+1e8jt/8kYY+/TZJ/IwRN/8Vo5QNsAohLKVUu3qmjAAAAAAsAmEsgEAYHnGCmUXJ0/vXHLi9NmHSni0rrqHX6XU5KoD2BfUqZ1nztdVb7vsk2/pm9xKEsoGGIVQtlKqXV0TBgAAAAA2gVA2AAAsz9ih7GKv5+xLzl6b3rPP1/PNgKlSamb1bWhnlXvGHhLKBhiFULZSql1dEwYAAAAANoFQNgAALM+qhLKB7SWUDTAKoWylVLu6JgwAAAAAbAKhbAAAWB6hbGBsQtkAoxDKVkq1q2vCAAAAAMAmEMoGAIDlEcoGxiaUDTAKoWylVLu6JgwAAAAAbAKhbAAAWB6hbGBsQtkAoxDKVkq1q2vCAAAAAMAmEMoGAIDlEcoGxiaUDTAKoWylVLu6JgwAAAAAbAKhbAAAWB6hbGBsQtkAoxDKVkq1q2vCAAAAAMAmEMoGAIDlEcoGxiaUDTAKoWylVLu6JgwAAAAAbAKhbAAAWB6hbGBsQtkAoxDKVkq1q2vCAAAAAMAmEMoGAIDlEcoGxiaUDTAKoWylVLu6JgwAAAAAbAKhbAAAWB6hbGBsQtkAoxDKVkq1q2vCAAAAAMAmEMoGAIDlEcoGxiaUDTAKoWylVLu6JgwAAAAAbAKhbAAAWB6hbGBsQtkAoxDKVkq1q2vCAAAAAMAmEMoGAIDlEcoGxiaUDTAKoWylVLu6JgwAAAAAbAKhbAAAWB6hbGBsQtkAoxDKVkq1q2vCAAAAAMAmEMoGAIDlEcoGxiaUDTAKoWylVLu6JgwAAAAAbAKhbAAAWB6hbGBsQtkAoxDKVkq1q2vCAAAAAMAmEMoGAIDlEcoGxiaUDTAKoWylVLu6JgwAAAAAbAKhbAAAWB6hbGBsQtkAoxDKVkq1q2vCAAAAAMAmEMoGAIDlEcoGxiaUDTAKoWylVLu6JgwAAAAAbAKhbAAAWB6hbGBsQtkAoxDKVkq1q2vCAAAAAMAmEMoGAIDlEcoGxiaUDTAKoWylVLu6JgwAAAAAbAKhbAAAWB6hbGBsQtkAoxDKVkq1q2vCAAAAAMAmEMoGAIDlEcoGxiaUDTAKoWylVLu6JgwAAAAAbAKhbAAAWB6hbGBsQtkAoxDKVkq1q2vCAAAAAMAmEMoGAIDlEcoGxiaUDTAKoWylVLu6JgwAAAAAbAKhbAAAWB6hbGBsQtkAoxDKVkq1q2vCAAAAAMAmEMoGAIDlEcoGxiaUDTAKoWylVLu6JgwAAAAAbAKhbAAAWB6hbGBsQtkAoxDKVkq1q2vCAAAAAMAmEMoGAIDlEcoGxiaUDTAKoWylVLu6JgwAAAAAbAKhbAAAWB6hbGBsQtkAoxDKVkq1q2vCAAAAAMAmEMoGAIDlEcoGxiaUDTAKoWylVLu6JgwAAAAAbAKhbAAAWB6hbGBsQtkAoxDKVkq1q2vCAAAAAMAmEMoGAIDlEcoGxiaUDTAKoWylVLu6JgwAAAAAbAKhbAAAWB6hbGBsQtkAoxDKVkq1q2vCAAAAAMAmEMoGAIDlEcoGxiaUDTAKoWylVLu6JgwAAAAAbAKhbAAAWB6hbGBsQtkAoxDKVkq1q2vCAAAAAMAmEMoGAIDlEcoGxiaUDTAKoWylVLu6JgwAAAAAbAKhbAAAWB6hbGBsQtkAoxDKVkq1q2vCAAAAAMAmEMoGAIDlEcoGxiaUDTAKoWylVLu6JgwAAAAAbAKhbAAAWB6hbGBsQtkAoxDKVkq1q2vCAAAAAMAmEMoGAIDlEcoGxiaUDTAKoWylVLu6JgwAAAAAbAKhbAAAWB6hbGBsQtkAoxDKVkq1q2vCAAAAAMAmEMoGAIDlEcoGxiaUDTAKoWylVLu6JgwAAAAAbAKhbAAAWB6hbGBsQtkAoxDKVkq1q2vCAAAAAMAmEMoGAIDlEcoGxiaUDTAKoWylVLu6JgwAAAAAbAKhbAAAWB6hbGBsQtkAoxDKVkq1q2vCAAAAAMAmEMoGAIDlEcoGxiaUDTAKoWylVLu6JgwAAAAAbAKhbAAAWB6hbGBsQtkAoxDKVkq1q2vCAAAAAMAmEMoGAIDlEcoGxiaUDTAKoWylVLu6JgwAAAAAbAKhbAAAWB6hbGBsQtkAoxDKVkq1q2vCAAAAAMAmEMoGAIDlEcoGxiaUDTAKoWylVLu6JgwAAAAAbAKhbAAAWB6hbGBsQtkAoxDKVkq1q2vCAAAAAMAmEMoGAIDlEcoGxiaUDTAKoWylVLu6JgwAAAAAbAKhbAAAWB6hbGBsQtkAoxDKVkq1q2vCAAAAAMAmEMoGAIDlEcoGxiaUDTAKoWylVLu6JgwAAAAAbAKhbAAAWB6hbGBsQtkAoxDKVkq1q2vCAAAAAMAmEMoGAIDlEcoGxiaUDTAKoWylVLu6JgwAAAAAbAKhbAAAWB6hbGBsQtkAoxDKVkq1q2vCAAAAAMAmEMoGAIDlEcoGxiaUDTAKoWylVLu6JgwAAAAAbAKhbAAAWB6hbGBsQtkAoxDKVkq1q2vCAAAAAMAmEMoGAIDlEcoGxiaUDTCK1Qtlf/bz9+/m4nCpr37jjXHv+zd/8abf62mHZV7zTirzzj9v/UHx/O8XfHDM7/W0wzKveSeVec07qcxr3kllXvNOKvOad1KZ17yTyrzmnVTmNe+kMq95J5V5zTupzGveSWVe804q85p3UpnXvJPKvKs/7/n6YZn+/M+OVWOeUuY176Qy7+HmLaHs/F5PO6yjXm//q3kHZV7zTirzmndS1dPW9JSt1JpW14QBAAAAgE2QC/n9jwAAwDE7//f3BaEbgGXTUzbAKFavp2yl1GpU14QBAAAAgE0glA0AAMsjlA2MTSgbYBRC2UqpdnVNGAAAAADYBELZAACwPELZwNiEsgFGIZStlGpX14QBAAAAgE0glA0AAMsjlA2MTSgbYBRC2UqpdnVNGAAAAADYBELZAACwPELZwNiEsgFGIZStlGpX14QBAAAAgE0glA0AAMsjlA2MTSgbYBRC2UqpdnVNGAAAAADYBELZAACwPELZwNiEsgFGIZStlGpX14QBAAAAgE0glA0AAMsjlA2MTSgbYBRC2UqpdnVNGAAAAADYBELZAACwPELZwNiEsgFGIZStlGpX14QBAAAAgE0glA0AAMsjlA2MTSgbYBRC2UqpdnVNGAAAAADYBELZAACwPELZwNiEsgFGIZStlGpX14QBAAAAgE0glA0AAMsjlA2MTSgbYBRC2UqpdnVNGAAAAADYBELZAACwPELZwNiEsgFGIZStlGpX14QBAAAAgE0glA0AAMsjlA2MTSgbYBRC2UqpdnVNGAAAAADYBELZAACwPELZwNiEsgFGIZStlGpX14QBAAAAgE0glA0AAMsjlA2MTSgbYBRC2UqpdnVNGAAAAADYBELZAACwPELZwNiEsgFGIZStlGpX14QBAAAAgE0glA0AAMsjlA2MbRNC2Sffu/MzJ07d8JsnT+1cf/LSnc+eOH32ntTJ0zu7Sq1Y3d+/N2/ae7+e3vmtn3vfmbf2b2W2i1C2UqpdXRMGAAAAADaBUDYAACyPUDYwtnUNZZ98787bT1xy9oqTp3e+3IddlVrbOnH67EPn38/X/vzpP/jZ/i3O5hPKVkq1q2vCAAAAAMAmEMoGAIDlEcoGxrZuoez0Knzi9NmdYaj1f/nE/7F70x337972Hx7c/ctHfrhXr77+011YJeW9+YX/+Fd779erfv/Pdn/xN85d8F4+cersnXnooH/Ls7mEspVS7eqaMAAAAACwCYSyAQBgeYSygbGtSyj7bZd98i3pSfjk6Z0XElz9Z+//t//9X5/90u6Xv/XY7t+/9GofeYX1k4cHvv7A47ufvvnPd//nD/6v/30/nH367E4eQuibAJtHKFsp1a6uCQMAAAAAm0AoGwAAlkcoGxjbOoSy02vwidNnHyph1fQu/KO/+bs+0gqbIw8YnPn8N97oOfvUzjO/cOqGX+qbAptFKFsp1a6uCQMAAAAAm0AoGwAAlkcoGxjbqoeyT75356IEUxNQ/fUrbtn9y0d+2MdXYXP94L89t/uha+8owexXTpy64Tf7JsHmEMpWSrWra8IAAAAAwCYQygYAgOURygbGtsqh7JOndy656PTOqwmmJqD67PMv9ZFV2Hyvvv7T3X999kt1r9nX902DzSCUrZRqV9eEAQAAAIBNIJQNAADLI5QNjG1VQ9m/cOqGXyqB7ARTE1CFbXTbf3iwDmZf1TcR1p9QtlKqXV0TBgAAAAA2gVA2AAAsj1A2MLZVDGWffO/O20+e2nmmBLJh233hP/7VfjD7xKkbfq1vKqw3oWylVLu6JgwAAAAAbAKhbAAAWB6hbGBsqxbKfttln3zLidNnH0r49EPX3qGHbOid+fw3SjD7hZ8//Qc/2zcZ1pdQtlKqXV0TBgAAAAA2gVA2AAAsj1A2MLZVC2WfPLVzfYKnv37FLbvPPv9SH0cF4rd/784SzP5y32RYX0LZSql2dU0YAAAAANgEQtkAALA8QtnA2FYplP1z7zvz1pOndl5J6PSxH/xtH0MFijyo8Iu/ca4Esy/pmw7rSShbKdWurgkDAAAAAJtAKBsAAJZHKBsY2yqFsk+cPruTsOlVv/9nfQR1+zzy6OO7V370zF7l53W0Cfuwym759/95L5R9vr081Dcd1pNQtlKqXV0TBgAAAAA2gVA2AAAsj1A2MLZVCWX//Ok/+NkETdMLcHoD3iSvvfb67oMPPbZfTz/zbD/mze7+0n27/9M/v3yv8vM6WuY+JPR97XXndj/wwev215m67PLrd+/4wlf2jv2mefX1n+6+8/I/0lv2+hPKVkq1q2vCAAAAAMAmEMoGAIDlEcoGxrYqoewTl5y9NiHTf3PuP/XR0/X2k+deaIaFS2V4K7AslD2/G8/dvr+eSZXjvInB7Nv+w4MllH1734RYP0LZSql2dU0YAAAAANgEQtkAALA8QtnA2FYllH3y9M79CZl+/YHH+9jp+rr/2w/vvuvdVzZDwsO68qNn+rk6Qtnz+erXHthfx3suuXr3zrvu2e+JPOvMsDI+4e1N86O/+bu9UPaJ02eff9tln3xL34xYL0LZSql2dU0YAAAAANgEQtkAALA8QtnA2FYhlP1z7zvz1gRMf/E3zu2++vpP+9jperrp5i/uh4FTCV3f8YWv7D7y6OO7Tz/z7F5oONPUoeHvff+pfm6h7Hlddvn1++vIsR3KsDI+026i9//ubV1v2ZfuJNzL+hHKVkq1q2vCAAAAAMAmEMoGAIDlEcoGxrYKoeyTp3d+K+HS3/69O/u46XpKuLoEgVMJX09z621370335FNP90OEsufx2muv7y//0vd/vB/6ZqW38ndc/JF+yGa56Y77S2/ZO31TYr0IZSul2tU1YQAAAABgEwhlAwDA8ghlA2NbiVD2pTufTbj0tv/wYB83XU/XfOzsflg4get5/OS5F/qfOkLZs+WYleWnx/GWeppN7Sn7Lx/5YddT9umdL/dNifUilK2UalfXhAEAAACATSCUDQAAyyOUDYxtFULZJ06d/XcJl375W4/1cdP18817H7wgKJzenA+iFWh+8cWX95Z/47nbd6+97tzuH3/+rt1HHn18b9w8Mv/93354b74Exz/92Vt27/jCVxZaRkLO2Z70/n3lR8/sLSfLGIbKY55QdtmeVGsZs+QYl3W09iPHqYzPdm6iH/y350pP2Q/1TYn1IpStlGpX14QBAAAAgE0glA0AAMsjlA2MbSVC2afP3pNwaXr+XVdHFQIeBpq/9/2ndi99/8f3h9WVkPYsCSxPmj+V7U5oe5psx7vefWVz/ndc/JE39Qo+K5Rdj89yDxLKTpi7LCMh8SJh+E986nP74z58xWf6MZvn7196tesp+9TOM31TYr0IZSul2tU1YQAAAABgEwhlAwDA8ghlA2NbkVD2EwmX/uhv/q6Pm66fyy6/fj8I/PQzz/ZDF1cHltMbdULP+Tn/Jnxcryc1LQA+DD+nh+zSO3W9nIS2J/XsnZ6xy3SphJzP3HDr3raUbUvVvVVPC2XXPYpnmxI6P4hsb91bdtaT3rfrAHrC2QftsXxd/OJvnNsLZvdNifUilK2UalfXhAEAAACATSCUDQAAyyOUDYxtFULZe739nq9XX/9pHzVdP3VA+TDqQHOpBK/r3qzraRJMbgWP0/t02aYElVtB8Tpw3Qp318tIgLoOXke2qSzjwYce64dODmVnmnp5Bw1kFwlhl/XUlWUfprfydSKUvdaEspVS7eqaMAAAAACwCYSyAQBgeYSygbGtUih7XSW8XALBCUkfRh1oToA5weOWa687tz9da5obz92+P34Ypq6VHrNb212vIz1cT/LkU09fEAxvhbITwE5YOsOOIpAdCYV/4IPX7a8rlW3O69GS45Rewu+8655+yPorbadvSqwXoWylVLu6JgwAAAAAbAKhbAAAWB6hbGBsQtmHV/fY/OErPtMPPZg60JwA8SQJFpfp6t6oixKAnrU9WUdZzrA37bqn7UUMQ9lZbkLf+f2oAtk55mWZdSVkXvcqXrvyo2f2p9sUQtlrTShbKdWurgkDAAAAAJtAKBsAAJZHKBsYm1D24aUn6hL2Tc/NhzEMNE+SnqvLdLfednc/tFP33H3mhlv7oW11uLvucbtexqc/e0s/dD71Ptzxha/shbrz81EGsktgPMvMPpQev1MJX9c9dxcllL1oyHyVCWWvNaFspVS7uiYMAAAAAGwCoWwAAFgeoWxgbELZh5eemUsgOGHhw5g3lP3gQ4/tTzfsUbsOiS9S9frqZdx08xf7ofOp96HuzfoTn/pcP8XBJdRdB7JLyLvujTt1zcfO7g2vld7DE87eFELZa00oWynVrq4JAwAAAACbQCgbAACWRygbGJtQ9tEogd9Uepk+qKMIZdfLmLcSaE6wufjq1x7YHzdc/iz1+uueslPp1fowrr3u3AXLriWgXb8OdQ/fdch80f1ZZULZa00oWynVrq4JAwAAAACbQCgbAACWRygbGJtQ9tH48BWf2Q/9fvPeB/uhizuKUHY97sZzt/dDF3OYZQz3IYHo0rt1/s3vB1Uv57XXXu+HvmEYzE6IO9NlH8qw0rv2JhDKXmtC2UqpdnVNGAAAAADYBELZAACwPELZwNiEso/GTTd/cT/0e+VHz/RDF3cUoez01F3GfeJTn+uHLia9ZpdlJNi8iNY+pFfrMiw9Z7/44st7wxdR71d69p5kGMxOYL6EuS+7/Pp+qs0glL3WhLKVUu3qmjAAAAAAsAmEsgEAYHmEsoGxCWUfjQSGS/A3ddDemI8ilB1lWz7wwev6IYsry08AutUr9SST9iHh7jJ80aB3ZBvK/Klpwe4c/4S/6+lTh+mlexUJZa81oWylVLu6JgwAAAAAbAKhbAAAWB6hbGBsQtlH58Zzt++HfxNknhUAzvj04lwHuI8qlP3pz96yP/6b9z7YD11MHaK+8657+qFv9tWvPbDXs3YxaR8Soq6D0q3tniXHa9757//2w/vTphJUz7BNIpS91oSylVLt6powAAAAALAJhLIBAGB5hLKBsQllH51hb9mpm27+4l6AuvQ0nfByQtJ14Dnji6MKZdfb8q53X7kXnG5JUDqB61tvu7sf8oaExcs6sqzhMp586undaz52dm98va3T9iFB9PoY1fs+j2xrmTfLyXYPe/HOPuWYZL/LtHXlNVmk5+9VJpS91oSylVLt6powAAAAALAJhLIBAGB5hLKBsQllH60ElevenGdVeo5OgLo4qlB2JLBcpkllXVd+9Mze9Pn3ssuv3x+X31vqHrdTCTpn2g988LoLhtc9UM/ahzpYnR7F6/2fx3CbEs7ONqWGx74Et7POOgye9WY5604oe60JZSul2tU1YQAAAABgEwhlAwDA8ghlA2MTyj566YU5vTHX4eBhJSB847nb93p1rh1lKDvSM/UwQD2shLXTe/ckw3B3XQk3D7dznn2og9XpNXxR2aZJPWGXyjrSM3mRnr/rY5H9XndC2WtNKFsp1a6uCQMAAAAAm0AoGwAAlkcoGxibUPbxSig6weQEp0slUD1Jeo1O4Dg1rQfphLnv+MJX9pZXB49bEhLPOtNbdILgCUFnvvyeoPI80gP4V7/2wF7YvMyfIHeWPTTPPmS+clymBcJnSQ/dWUZd2c5h2L2o1zspML5OhLLXmlC2UqpdXRMGAAAAADaBUDYAACyPUDYwNqFsWF9C2WtNKFsp1a6uCQMAAAAAm0AoGwAAlkcoGxibUDasL6HstSaUrZRqV9eEAQAAAIBNIJQNAADLI5QNjE0oG9aXUPZaE8pWSrWra8IAAAAAwCYQygYAgOURygbGJpQN60soe60JZSul2tU1YQAAAABgEwhlAwDA8ghlA2MTyob1JZS91oSylVLt6powAAAAALAJhLIBAGB5hLKBsQllw/oSyl5rQtlKqXZ1TRgAAAAA2ARC2QAAsDxC2cDYhLJhfQllrzWhbKVUu7omDAAAAABsAqFsAABYHqFsYGxC2bC+hLLXmlC2UqpdXRMGAAAAADaBUDYAACyPUDYwNqFsWF9C2WtNKFsp1a6uCQMAAAAAm0AoGwAAlkcoGxibUDasL6HstSaUrZRqV9eEAQAAAIBNIJQNAADLI5QNjE0oG9aXUPZaE8pWSrWra8IAAAAAwCYQygYAgOURygbGJpQN60soe60JZSul2tU1YQAAAABgEwhlAwDA8ghlA2MTyob1JZS91oSylVLt6powAAAAALAJhLIBAGB5hLKBsQllw/oSyl5rQtlKqXZ1TRgAAAAA2ARC2QAAsDxC2cDYhLJhfQllrzWhbKVUu7omDAAAAABsAqFsAABYHqFsYGxC2bC+hLLXmlC2UqpdXRMGAOYudsIAAK6uSURBVAAAADaBUDYAACyPUDYwNqFsWF9C2WtNKFsp1a6uCQMAAAAAm0AoGwAAlkcoGxibUPbxePqZZ3cffOixvXrxxZf7oXC0hLLXmlC2UqpdXRMGAAAAADaBUDYAACyPUDYwNqHso/faa6/vvuPij+z+T//88r36wAev68fA0RLKXmtC2UqpdnVNGAAAAADYBELZAACwPELZwNiEso/eV7/2wH4gu9Qjjz7ej4WjI5S91oSylVLt6powAAAAALAJhLIBAGB5hLKBsQllH71rPnZ2L4hd95Z95oZb+7FwdISy15pQtlKqXV0TBgAAAAA2gVA2AAAsj1A2MDah7KP1k+de2A9i33TzF3ffc8nVez/n39dee72fCo6GUPZaE8pWSrWra8IAAAAAwCYQygYAgOURygbGdhyh7F/5V/e8tf9xLpsUyr7jC1/ZD2U/8ujjez1kl9+/ee+D/VRwNISy15pQtlKqXV0TBgAAAAA2gVA2AAAsj1A2MLbjCGVneTm/zbvcTQplX3b59XsB7A988Lq93xPMLqHsT3zqc3vDpnn6mWd3//jzd+2Fu4sXX3x59+4v3bc3/zUfO7s3/sGHHpva8/ZRL+fW2+7eny7zXHvdud0rP3pm98Zzt+8tdyjTZrqs/9OfvWV/fV/92gN7y2xJL+OZJvW97z/VD50s+5Jp829Ltuv+bz+8N03Wn+3I9uQ12RRC2WtNKFsp1a6uCQMAAAAAm0AoGwAAlkcoGxjbMYayd/uaGc7elFD2k089vR/AThC4uPT9H98b9o6LP9IMMNcSMC7LiISK33PJ1fvD6krQeNLyjmM5JaBdz5sahqJzHBJKH05XKschIe+hOsD+4Ss+0w9ty/ZmOZOmzbLKcW9VQuWzXot1IJS91oSylVLt6powAAAAALAJhLIBAGB5hLKBsS0hlD0znL0poeybbv7ifug3weSiHn7nXff0Q9vqEHT9cwLG6Zm69MRdKr+3ero+juXUgex3vfvK/eB1pinSE3YJS6cSBE/oO71zD4PaGT5UB8cn9agd9XYNA971uGxnesjOtqfq/c6xmNZL+DoQyl5rQtlKqXZ1TRgAAAAA2AS5Udr/CAAAHLOEFIWygTEtMZRd6k3h7E0JZZdA8bDn5roH7QSip6kDxaWGoeOElRM2LuPrUHRxnMtJyLzIvpUep3/y3AsXhKpbAfTvff+pC9b5zXsf7Md06gB7qzftIoHuMl3WW+TnEgpP6LoV7K7XcccXvtIPXU9C2WtNKFsp1a6uCQMAAAAAmyA3SPsfAQCAY5ZwolA2MKYRQtml9sPZmxDKfvChx6YGfeteouftATrVCkrH/d9+eH+a9P48dFzLqQPZQzeeu31/umlh50cefXx/uuE66wB7jllLgtdlmmHIvd6GrGeS0mN2QuTrTCh7ra1nKPuJJ57Y/fGPf7z70ksv9W9D2F4vv/zy7rPPPrv75JNP7j744IPNNnOQ6powAAAAALAJcmO0/xEAADhmCSUKZQNjSij74qvvu/OdV3/r+qOqLK8KX8+qJ/7v/+//39qHsj/92Vv2w8B1z81Fen0u4//483f1Q9+sDkFPmy7qXqmH6zyO5Qx7AB8qPVRnea+99no/tC3LKstNELtWAtOtcZEeuMv4Ydi89MI9a1tzTMoypoXkV51Q9lpbr1D2ww8/LIgNU7z++uu73/ve95rtZ9HqmjAAAAAAsAlyQ7T/EQAAOGYJIwplA2P6F9fce0krWH2YWjCUfc8//X/98VqHshNALoHkYc/NRYK/JQQ8qQfoqEPQw8Dx0Cc+9bn9ab/3/af6oZ1lL6fuvToB9VnqUHR6667NCrDnGGdcjvmLL77cD71wG87ccGs/tK0Odg/Xv06Estfa+oSyH3300f4tB8zy/e9/v9mOFqmuCQMAAAAAmyA3RPsfAQCAY3b+72+hbGDj/Oo19/1WFbqeVPe883e/lVDiPynB0nX11a89sB/wnRZcLmHi1COPPt4PvdAiYeppweZlLyf7U6a76eYv9kMnq5d7xxe+0g/t1OHqYYC9Hpcwea3ehkVq1vFZZULZa209Qtn/5b/8l92XX37j6QdguvSY/Z3vfKfZnuatrgkDAAAAAJsgN0b7HwEAgGN2/u9voWxg48wIZe+HsYt1D2Vf87Gz+wHfG8/dvhdyblUdyp7Uk/O8IejIMsu0CYbXlr2cOpie5c1SL7c1fX1Mn3zq6X7ohT1cf/PeB/uhnXqZ89Z7Lrl6rxfzdSWUvdbWI5T95JNP9m83YF4//vGPm+1p3uqaMAAAAACwCXKDtP8RAAA4Zuf//hbKBjbOhFD2m8LYxTqHsuuemxephIFfe+31filvmDcEHQmAl2mHPW8vezkPPvTY/nRZ3ix1uDo/D9XrrUPbJdj+rndf+abjt+g2bAKh7LW2HqHsZ59d36cWYCwvvfRSsz3NW10TBgAAAAA2QW6U9j8CAADH7Pzf30LZwMYZhLInhrGLdQ5l3/GFr+wHgS+7/Pq90PC0Shi7TD/s6TkWCVNfe925/WkTDq8teznpbbpM94lPfa4fOtlNN39xf/phEDwSuH7HxR/ZG3/p+z++N6xeR6un8TogP882bAKh7LW2HqHsl19+uX+7AfP6x3/8x2Z7mre6JgwAAAAAbAKhbAAAWB6hbGAT9aHsmWHsYp1D2QlilyDwMNDcUvcQ3QoO1yHouofooTq0nH+HjmM500LZUaZr9WI9NM9xy/Ep0yS4fettd+//nl6xW8q+fOCD1/VDNptQ9lpbj1A2cDCt9jRvdU0YAAAAANgEQtkAALA8QtnAJvqVT97zlv7HuaxrKPvJp57eDwmnF+x5JIBch6BffPHCTmjrEHQqPXG31NPdeO72fugbjmM5+XmausftSeuLr37tgf3pWj1eF/d/++H96dKz9oev+Mzez6Xn7JZPf/aW/XlaPZFvGqHstSaUDZus1Z7mra4JAwAAAACbQCgbAACWRygbYH1D2QkKlwBwesCe1zUfOztxvmGYOpWw9NPPPNtPsbsXNi7B7tT3vv9UP+YNx7GcWaHsLLteXmv6DKtD6bN6F3/PJVfvTZvet8tyc9wnqUPvmScB8JaE4XPs0/v2OhPKXmtC2bDJWu1p3uqaMAAAAACwCYSyAQBgeYSyAdY3lF0Cw6lZ4eJaHXQe9rBdj7vs8uv3f06lp+h6nalW79ZxHMvJz7Okh+x6uQlIZx9TdbA6w+dZXrarXl4qPZRPk6B1PX161s76//jzd+39Wx+P4fFfN0LZa00o+7jkJPHgQ4/tvvba6/2Qg8vTJlnWIid5iFZ7mre6JgwAAAAAbAKhbAAAWB6hbID1DGU/8ujjBw72ppfm0ptzqs76DUPQ6em5DjOXyvzTeuc+ruXM4/5vP/ym0HddH/jgdTOD1UV9nFMJVM8j82U99bzDSlg7vYWvM6HstSaUfRyGT2XkZDTvCaeWE/PwJLLIVyJAqz3NW10TBgAAAAA2gVA2AAAsj1A2wHqGshOsTvYvvS+nI9VFpePVzJuepevOXFsh6Cw/01173bm9nqMTJJ7VaetRLSfjs5+pWdPWMm32MfN9+rO37K0v25Gw9KKynTlWWdYixzrHNduQHGXWn/3OcvL7977/VD/VehPKXmtC2cchT8mUk1+pNP5Fnbnh1jctJyczmFerPc1bXRMGAAAAADaBUDYAACyPUDbAeoayj0srTH0QR7UcVptQ9loTyj4OdSg73eGXnxd9qqR8nUG9DKFsFtFqT/NW14QBAAAAgE0glA0AAMsjlA0glF0TymYRQtlrTSj7ONSh7HSNX/88r3ylQJkvXfSXn4WyWUSrPc1bXRMGAAAAADaBUDYAACyPUDaAUHZNKJtFCGWvNaHs41CHsp986undd737yr2f0+P1vErv2Jddfv3ugw89tr88oWwW0WpP81bXhAEAAACATSCUDQAAyyOUDSCUXRPKZhFC2WtNKPs41KHsp595dvfMDbfu/37/tx/up5os05Tp02P2vKHs1157ffeb9z64t75sQ+rGc7fv9dCd7ZgmvXFnuoTII8vKdtx08xf3lpN/v/q1B/aGz3KY7Siy7kx/7XXnLph/WD957oV+jjfLcct+5ZhlOZk+y33xxZf7KdqGxyLbnGVkO/JvlrsuWu1p3uqaMAAAAACwCYSyAQBgeYSyAYSya0LZLEIoe60JZR+HhHfLyS+B3kcefXz/94SDZ8k0mfYdF39kL0A8Tyg7oenSI3ersqxM05JtLNPlZJ111vtQV3runhaEPsx2RLblmo+dbc7bqtZ/Ltm+acv4wAev2/3e95/qp77Q8FgkxD3cn2nB+FXTak/zVteEAQAAAIBNIJQNAADLI5QNIJRdS54tGcDUrA5Fpzmq5bDahLLXmlD2cRiGsiNh5vyeUPK0UHPGDcO/s0LZ6cG6jE+AuPQKnRqGk9OD9VAdRE5g+tL3f3z/9w9f8Zk3BbSzLy2H3Y6o1zVp/hzDTJcqvVkX+b0OUdfL+MSnPnfBMlrB7PpYZJ56WTkW+VcoGwAAAABYN0LZAACwPELZAELZcFBC2WtNKPs4tELZd3zhK/vD8vMkCQKX6UpoeFYoO705J0idnp1fe+31fugbEoAu86eX6KE6iFwq66nD4wk712HtVqj6sNtRh7pzHIbqY5Pex1tKL+MJU2d7hnIsE8jONHmdhupjUU9XjkWeMCqv6Tpotad5q2vCAAAAAMAmEMoGAIDlEcoGEMqGgxLKXmtC2cehFcpOqLeEfFuB5EiQ+T2XXL03Td0b9axQ9jzqnqaHhqHsSetI2HrWNLNM244bz92+NzzHqRXqzrBp66+P07Tge1lPahjcHh6L9I7d2pZ10WpP81bXhAEAAACATSCUDQAAyyOUDSCUDQcllL3WhLKPQyuUHaUX51QCxEN1T9J33nVPP/RoQtl1EHnY03MdRG71Hl0kWF6my74cxLTtKMctvW1PUkLrre3MsSnLTo/Wk6SX7TLdMLxdH4uEw9ND+Dprtad5q2vCAAAAAMAmEMoGAIDlEcoGEMqGgxLKXmtC2cdhUig7vTKX4a1wdelFethT9FGEsv/483ftL2NaKHvW8st008Lb00zbjhJaf9e7r+yHXKjuKfvMDbf2Q9+QXq0zLsHtaer9TUi8tsixWAet9jRvdU0YAAAAANgEQtkAALA8QtkAQtlwUELZa00o+zhMCmVH6ek5weu6N+f0yFzmGQaOFwllJ/h9081f3NuGVFlfXcNtWiSIXKabFco+yHbUge30Gj6UXq3L+GEP19Fax6wa7q9Q9hvVNWEAAAAAYBMIZQMAwPIIZQMIZcNBCWWvNaHs45AQcgn2DoPHCSqXcXWwOD02l+Hf+/5T/dDOPKHsRx59fPfS9398f7ppdZyh7MNsR3rCrkPrt952996+p/JzmS/LrwPtRRm/SN39pfv6uTtC2W9U14QBAAAAgE0glA0AAMsjlA0glA0HJZS91oSyj8O0UHYd+r3s8uv3htVh5DKsNiuUnRD3u9595d74/JuetkuYOcuOuhfqadt0mFD2UWxHmX9S5ThleS1l3oS2D2qRY7EOWu1p3uqaMAAAAACwCYSyAQBgeYSyAYSy4aCEsteaUPZxmBbKjnp8epZOb83l9zvvuqef6g0JIZfxraDwtded2x9//7cf7odeaBmh7MNuxzUfO7s3PP/mmGQd6TE7Yev8nHlbPWQXH77iM3vzZ56DEsp+o7omDAAAAABsAqFsAABYHqFsAKFsOCih7LUmlH0cZoWyv/q1B/bHpzfpOkxcepSuzQpllx6iP/DB6/ohb7aMUPZhtyP7n+EJZB/EJz71uf1lp9fugxDKfqO6JgwAAAAAbAKhbAAAWB6hbAChbDgooey1JpR9HGaFshO8LgHmEkROJaDdMi2UnWWVZbznkquboe4Mm7ZNRxHKPux2pAfsMjw9ZT/51NP9mPl9894H95eRXrsPQij7jeqaMAAAAACwCYSyAQBgeYSyAYSy4aCEsteaUPZxmBXKjgSwyzSlJvXuPKun7Msuv35//J133dMP7WT99fjUcJsWCSKX6Yah7DjsdtQ9XZe69P0f31tXqfS0nfD1JPWxzzFuhcMjvZW3QvCLHIt10GpP81bXhAEAAACATSCUDQAAyyOUDSCUDQcllL3WhLKPQx0MHgaPiwSwyzSpBJYnmRXKTsC4XlbCxgkvf/iKz+wP+8AHr9v/ebhNiwSRy3TZx6HDbkcC1PX4aZXj9ZPnXujnfEOOa+mFPJWfs603nrt9r/fs+rVJDQllv1FdEwYAAAAANoFQNgAALI9QNsD6hLJffPHlvXxeOiHNv61MGoeXXF4yfKlhbpALCWWvNaHs4zBPKDum9SxdmxXKjju+8JXdd1z8kf3pSmVYxtXLGG7TIkHkMl0rlB2H2Y4EuMu4m27+4t60pUrP1uk5u0yTsHdL/mO85mNn96drVbYnJ/ihRY7FOmi1p3mra8IAAAAAwCYQygYAgOURygZY7VD2k089vZcve88lV1+QKSuVbFk6AM10HI1k9crxbeX2eINQ9loTyj4O6a05AeMEiadJADjT3f2l+/ohbXkaJ9Pcetvdbwoy1xJGzvJKffPeB/ef3Ekv1AlFJ/ydn4cyPPNk26fJPmW6BKUnOch2PPLo4/sn3QSyJ8k89X+GOTaTZJlZd70tqWnbHvMei3XQak/zVteEAQAAAIBNIJQNAADLI5QNsLqh7GTDWp2OtirTzcr2raL7v/3wXv4tOb3jNu+6kgksxzXTM5lQ9loTymY1pBfsctKdFrSO+qmZTQhOH6dWe5q3uiYMAAAAAGwCoWwAAFgeoWyA1Qxlf+JTn9vPnaXSG3bCxOn8M9LZZ37P8Hq6ZNvWyZUfPbO/7cdt3nWlU9d0SpsqHbzSJpS91tYjlP3662/u2ZnNUv+HN6038Cgn8jyJ1Or1mze02tO81TVhAAAAAGATCGUDAMDyCGUDrF4o+5v3PrifT0ulx+xp0ptzPf06dR66iqFs5ieUvdbWI5T9/PPP9283NlWegCkn52s+drb5NEyGffqzt+xPt25PIC3bK6+80mxP81bXhAEAAACATSCUDQAAyyOUDbB6oezLLr9+P3c2K5Bd1Jm29J69LoSy15tQ9lpbj1D2D3/4w/7txqZ68cWXL/iPL/XhKz6zd9JOfeCD171pnF6yp3vuueea7Wne6powAAAAALAJhLIBAGB5hLIBViuUXfeSnRzavJJpe8fFH9mft9Vb9pNPPb3Xq3Yq00+ScWW6p595th/allzcgw89tnvHF76y14lpOjnNfF/92gMT562Xf+n7P76/zWVYqUmdpSaonuB5snplfVl/K6N3kHVlu8vw49j/oqwngfqy7dmOzJtOYLOPGf/Io4/vjVtFQtlrbT1C2d/5znd2/+Ef/qF/y7GpcrK+6eYvXnCiHlbG3f2l+/o5mOa73/1usz3NW10TBgAAAAA2gVA2AAAsj1A2wGqFshPELfmzBH0X8YlPfW5/3gR9hxLwLeMTJJ4kmbcy3bT8W0Leww5M60pIvLUdCR23ph9Wve6Elev9a9V7Lrl69/5vP9zP0TnIuo57/4t6PQloZ1vf9e4rL1hGqRvP3d7PtVqEstfaeoSyU0888UT/lmMb5ISY/6Tq0jP2/H70ox8129Ei1TVhAAAAAP7/7P0PjG13YS/68XRfJXSl9kaqqkbta0n1rlqUknOsV116lZvmomfqJkgUn3FjLhI8R44QVuoUTB48S26MUaBELp4RPX0xRjFXcS1hOUR2khpygeAAvjIOynGI7cQxFsZysBOMZcfG5djA3T3fWes3/p3l3/4zM3v27D+fj/TVmdl7rbXXWnv/1pyZ+e7fwDpQygYAgMVRygZYrlL2ZZdft1fEbc0UPUldQM5My0PzLGXnseqZuVOIzizRKU4Pi8q5vZYyc2a5TuoScrmtpJ7tO8dTlstkqZmVOseTiVXrx8v26vN2kMc66uMv6sepn5tsN/tUvxaS/Zb0F0Epe6WtTik7eeKJJ0Y/+clP+pce0PLUU081x89+0w1hAAAAAGAdKGUDAMDiKGUDLFcpuxSHU8zdrxStS4G3VQSeVyk7peeUkMsyd9x5d3/PK1JyrkvQX/nqmf6e86V8XJaZJOXrLDucCbtISbtsJ8u2zPpYizr++nFKUrx+4YUX+yXOXyaPuWyTxSplr7TVKmUnDzzwwOjZZ58d/fCHP+xfgsDLL788eu6550Z/8zd/0xw3B0k3hAEAAACAdaCUDQAAi6OUDbA8peyUfUsBN7NB71dmhS7rZ7bmoXmVsj9x+jN790+avfnBhx7dWy6zPrfMWpSeJmXlsp2rrznd33q+eZWy53X89eOkhD+ucJ7jKcuNW+a4KGWvtNUrZYvIYtINYQAAAABgHShlAwDA4ihlAyxPKbsu8aZAvF9PPvX03vqtUve8StkpEOe+WWZufvcVH93bVkrjQ/MqZUeOOds5bAF8UcdfP06em3EyE3dZrrU/x0kpe6UpZYtIO90QBgAAAADWgVI2AAAsjlI2wGtec/LUzlMpln73H/+pr5oej2kzXU+ziFJ2PZv3Rz52c3/rePVjtmZ5PopS9rhZxudRyp7n8U96nNpXvnpmb7lbbr2rv3U5XHj5p5SyV5dStoi00w1hAAAAAGAdKGUDAMDiKGUD7M6UfW+Kpd/8u1fP5LxImXW5lG8vesuV/a2zS9G6rH9Upex6Nu8bb/psf+t49bZuu/0L/a2v2G8pO+co27z+hlt2103KzNUlR1nKnufxT3qcWv28TppR+zhk3JzY2n62H0qsFqVsEWmnG8IAAAAAwDpQygYAgMVRygZ4zWtOnNq+I+XSL9/3aF81PT5vvfiqvQLufn3xS/ftrXv1Naf7W18xj1J2/RizFITrbbWW308pO7NEp6xelh+Xoyxlz/P4Jz1ObVlL2ZlZPuPm5Kmdv+2HEqtFKVtE2umGMAAAAACwDpSyAQBgcZSyAV7zmhNb2zspl97+p9/s66bH57LLr9sr4E4qTrd85GM3762bAvNQCr3l/nu//kB/66tNKgvXBeFPnP5Mf+t4d9x5997y+Xho1qJ0ve8pXef4si+PfOvxfonR7u3l/pZ5lLLnefyTHqe2rKXsbzz4RJkp++5+KLFalLJFpJ1uCAMAAAAA60ApGwAAFkcpG+A1rzlx8fbVKZf+1un/0NdNj8+1H/7kXgE3H8/q+888N3rTm9+zt25dVi5mLQFPWu7Jp57eu2+W/bvxps/uLf/gQ6+eiXyWovRLL728d2wpXOdYWxZRyp7n8U96nNqylrLzJobdmbK3dm7shxKrRSlbRNrphjAAAAAAsA6UsgEAYHGUsgFe85o3bH389SmXXnj5p/q66fFJmboUcFNEHldAHsrM0WW9d1/x0f7W833lq2f2lplU7q1npW6Vhct9F73lyt3C9CT1zN+tY7n6mtN7948z6+zU00rZszxWTCtLl/sOe/yrXsr+tWv/oJSyf7UfSqwWpWwRaacbwgAAAADAOlDKBgCAxVHKBuic2Np+LAXTb/7dk33l9PjU5eF3vPOa3dmZJ6kL2UlKvC2Zqbksk7JwS10UTlpl4Xr/brv9C/2tr/bFL923t9z1N9zS33q+3F6W+c7j7XNfl8nHzU6ddVOSzjLjStmzPFZMK0vP6/inPU6xjKXs539wdvTGt5/uStlv2/mpfhixWpSyRaSdbggDAAAAAOtAKRsAABZHKRugc2JreycF0xtvu7evnR6ferbsJCXjlHZze/HCCy+O7v36A6OPfOzm85adNJN0pORdlk2Zu8gszsNyd9IqC6cknlm8Jy2T28oyk2b8rh+zLi7n+Mos1Fm3LNPaVkrLpZCdjCtlz/JYkX0vyx3l8U97nGIZS9mf/9rDu4Xsc+Pm7n4IsXqUskWknW4IAwAAAADrQCkbAAAWRykboHPykp03pWR64eWfGp19+Ud99fT4ZJbluvhbpy5WD5P7Js0Cfcedd5+3/Fsvvmp05Xuv3/s85ebM/lw+H1cWrpdJsq/ZTlIXpHP7pMJxysr1cb77io/u7U+9Xj07dfY55eQU0DPjd7m9fDyulD3rY+XjssxRHv8sjxPLWMq+9Ddv7WbJPrXzvn4IsXqUskWknW4IAwAAAADrQCkbAAAWRykb4BUntrbvT9H01j8501dPj1dmxq7LyONy7Yc/uVswLp+nCJxZoevZn2vDQnFJysx5zMwEXW6bVBbOTN0pSNfbqDOtIF60ZuhOUkwvMpt1KVAPk3148KFHdwvL+XxcKTtmeaxZy9KHPf5VLWV/+b5HSyH7qddd9qHX9sOH1aOULSLtdEMYAAAAAFgHStkAALA4StkArzj5tp0LUjZ949tPj55+9gd9BXU5pJibWa4zO3RK2Cnn5vMUqCMF7I987Oa98m6ScvK4sm/K11n/+htuGd1402d3C8a13JfHyOzSk+T+7FvKznn87F8eMyXp/Uh5OdvIYyZf+Wq7GJ/9zP05B2W/S/k8+5L7hscyNO2xsp3cnxzl8c/6OCmkp0iffS3P93HJLPJmyV4bStki0k43hAEAAACAdaCUDQAAi6OUDXC+E6e270jh9H2/88d9DXW1pBA8nL05pV+Yh5v/8C92C9kntrYfM0v2ylPKFpF2uiEMAAAAAKwDpWwAAFgcpWyA871h6+OvP3lq54cpnn7i1vYs08suMytnxuaL3nLlbik7s2HDYd1z5rFuhuyUsk/d8Ev9kGF1KWWLSDvdEAYAAAAA1oFSNgAALI5SNsCrndzaubiUTz//tYf7SurqSTk7M2c/+NCj/S1wMN/++2dG/+ad//1/2h0Xl+x8rB8qrDalbBFppxvCAAAAAMA6UMoGAIDFUcoGaDtx8fbVKaC+8e2nd2cIhk2VQvYvX3FzP0P29h39EGH1KWWLSDvdEAYAAAAA1oFSNgAALI5SNsB4J05t//syY/atf3Kmr6jC5vjGg0/szZB9Ymv7/pNv2/mpfniw+pSyRaSdbggDAAAAAOtAKRsAABZHKRtgshNb2zulmP2Rm/5sdPblH/V1VVhvN//hX+y+7ncL2ae271DIXjtK2SLSTjeEAQAAAIB1oJQNAACLo5QNMN3JrZ1fvWBr52zKqRde/qnR7X/6zb62CuvnnjOPjS79zVv3CtknL9n5WD8UWC9K2SLSTjeEAQAAAIB1oJQNAACLo5QNMJuTl+y86cTW9v2lqHrxb/z+6PNfe3j0/A/O9lVWWG1fvu/R0a9d+wevlLFP7Tx17t+L+yHA+lHKFpF2uiEMAAAAAKwDpWwAAFgcpWyA/Tm5tfOrJ7a2H9srrp7Lr//2HaNb/+TM6BsPPjE6+/KP+oorLLe8Xv/oyw+N3vc7fzx649tP772ez72+nz15aud9r7vsQ6/tX/asJ6VsEWmnG8IAAAAAwDpQygYAgMVRygbYv5RVT1y8fcXJrZ3PlyLrMBde/qnm7SLHmczw3ro9yUzw517XV598285P9S911ptStoi00w1hAAAAAGAdKGUDAMDiKGUDHE4KrCdO3fDvTm7tfObE1vbdw1m0RZYyp3ae2n29ntq+I28w+Nlfuf6n+5c0m0MpW0Ta6YYwAAAAALAOlLIBAGBxlLIBADaSUraItNMNYQAAAABgHShlAwDA4ihlAwBsJKVsEWmnG8IAAAAAwDpQygYAgMVRygYA2EhK2SLSTjeEAQAAAIB1oJQNAACLo5QNALCRlLJFpJ1uCAMAAAAA60ApGwAAFkcpGwBgIylli0g73RAGAAAAANaBUjYAACyOUjYAwEZSyhaRdrohDAAAAACsA6VsAABYHKVsAICNpJQtIu10QxgAAAAAWAdK2QAAsDhK2QAAG0kpW0Ta6YYwAAAAALAOlLIBAGBxlLIBADaSUraItNMNYQAAAABgHShlAwDA4ihlAwBsJKVsEWmnG8IAAAAAwDpQygYAgMVRygYA2EhK2SLSTjeEAQAAAIB1oJQNAACLo5QNALCRlLJFpJ1uCAMAAAAA60ApGwAAFkcpGwBgIylli0g73RAGAAAAANaBUjYAACyOUjYAwEZSyhaRdrohDAAAAACsA6VsAABYHKVsAICNpJQtIu10QxgAAAAAWAdK2QAAsDhK2QAAG0kpW0Ta6YYwAAAAALAOlLIBAGBxlLIBADaSUraItNMNYQAAAABgHShlAwDA4ihlAwBsJKVsEWmnG8IAAAAAwDpQygYAgMVRygYA2EhK2SLSTjeEAQAAAIB1oJQNAACLo5QNALCRlLJFpJ1uCAMAAAAA60ApGwAAFkcpGwBgIylli0g73RAGAAAAANaBUjYAACyOUjYAwEZSyhaRdrohDAAAAACsA6VsAABYHKVsAICNpJQtIu10QxgAAAAAWAdK2QAAsDhK2QAAG0kpW0Ta6YYwAAAAALAOlLIBAGBxlLIBADaSUraItNMNYQAAAABgHShlAwDA4ihlAwBsJKVsEWmnG8IAAAAAwDpQygYAgMVRygYA2EhK2SLSTjeEAQAAAIB1oJQNAACLo5QNALCRlLJFpJ1uCAMAAAAA60ApGwAAFkcpGwBgIylli0g73RAGAAAAANaBUjYAACyOUjYAwEZSyhaRdrohDAAAAACsA6VsAABYHKVsAICNpJQtIu10QxgAAAAAWAdK2QAAsDhK2QAAG0kpW0Ta6YYwAAAAALAOlLIBAGBxlLIBADaSUraItNMNYQAAAABgHShlAwDA4ihlAwBsJKVsEWmnG8IAAAAAwDpQygYAgMVRygYA2EhK2SLSTjeEAQAAAIB1oJQNAACLo5QNALCRlLJFpJ1uCAMAAAAA60ApGwAAFkcpGwBgIylli0g73RAGAAAAANaBUjYAACyOUjYAwEZSyhaRdrohDAAAAACsA6VsAABYHKVsAICNpJQtIu10QxgAAAAAWAdK2QAAsDhK2QAAG0kpW0Ta6YYwAAAAALAOlLIBAGBxlLIBADaSUraItNMNYQAAAABgHShlAwDA4ihlAwBsJKVsEWmnG8IAAAAAwDpQygYAgMVRygYA2EhK2SLSTjeEAQAAAIB1oJQNAACLo5QNALCRlLJFpJ1uCAMAAAAA60ApGwAAFkcpGwBgIylli0g73RAGAAAAANaBUjYAACyOUjYAwEZSyhaRdrohDAAAAACsA6VsAABYHKVsAICNpJQtIu10QxgAAAAAWAdK2QAAsDhK2QAAG0kpW0Ta6YYwAAAAALAOlLIBAGBxlLIBADaSUraItNMNYQAAAABgHShlAwDA4ihlAwBsJKVsEWmnG8IAAAAAwDpQygYAgMVRygYA2EhK2SLSTjeEAQAAAIB1oJQNAACLo5QNALCRlLJFpJ1uCAMAAAAA60ApGwAAFkcpGwBgIylli0g73RAGAAAAANaBUjYAACyOUjYAwEZSyhaRdrohDAAAAACsA6VsAABYHKVsAICNpJQtIu10QxgAAAAAWAdK2QAAsDhK2QAAG0kpW0Ta6YYwAAAAALAOlLIBAGBxlLIBADaSUraItNMNYQAAAABgHShlAwDA4ihlAwBsJKVsEWmnG8IAAAAAwDpQygYAgMVRygYA2EhK2SLSTjeEAQAAAIB1oJQNAACLo5QNALCRlLJFpJ1uCAMAAAAA60ApGwAAFkcpGwBgIylli0g73RAGAAAAANaBUjYAACyOUjYAwEZSyhaRdrohDAAAAACsA6VsAABYHKVsAICNpJQtIu10QxgAAAAAWAdK2QAAsDhK2QAAG0kpW0Ta6YYwAAAAALAOlLIBAGBxlLIBADaSUraItNMNYQAAAABgHShlAwDA4ihlAwBsJKVsEWmnG8IAAAAAwDpQygYAgMVRygYA2EhK2SLSTjeEAQAAAIB1oJQNAACLo5QNALCRlLJFpJ1uCAMAAAAA60ApGwAAFkcpGwBgIylli0g73RAGAAAAANaBUjYAACyOUjYAwEZSyhaRdrohDAAAAACsA6VsAABYHKVsAICNpJQtIu10QxgAAAAAWAdK2QAAsDhK2QAAG0kpW0Ta6YYwAAAAALAOlLIBAGBxlLIBADbS8pSyP/bpe0f5oXDJF//8lft+5bf+46s+r5cdxrrWHRfrzr5u/Q3iuc/P+4Yxn9fLDmNd646Lda07Lta17rhY17rjYl3rjot1rTsu1rXuuFjXuuNiXeuOy6qum3/Lsot83H5R61r3vFjXuuNiXeuOi3WtOy7Wte64HPe65z5+7M1X3fPEoh83zn1u3cY6Jda17rhY17rjYl3rjot1rTsu//xf/BdP9Ise6nFbzJQtsqLphjAAAAAAsA7yA/3+w5Vw8m07P3Py1M77Tm7t3Hhia/vuc7n/3McjEZF55dx15bFcX859/Jlz15vrzl13LugvQQBwaOf+/31e+QYAgI2wPDNli8hypRvCAAAAAMA6WIVS9usu+9Brd4vYp3b+dlieFBFZSE7tPHVia3vnZ3/l+p/uL00AcCBK2QAAG0kpW0Ta6YYwAAAAALAOlr2U3ZexnyrFyF941++Ofuv0fxj90ZcfGn3jwSdG3/y7J0cA8/Ttv39m9/ry5fseHV3/6T8f/fIVN++Vsy/Y2jmbcvbJt+38VH+ZAoB9UcoGANhIStki0k43hAEAAACAdbCspewUHk9u7Xy+FCEv/c1bR5//2sN9ZRJgsfIGkPf9zh/vlbMzc/8btj7++v6SBQAzU8oGANhIStki0k43hAEAAACAdbCMpeyTb9v5mRQeU3zMzNiZrRZgGTz87e/tvkmkL2c/d/KSnfxSFQBmppQNALCRlLJFpJ1uCAMAAAAA62DZStmZIfvE1vZjKTxe/Bu/P/ruP/5TX4UEWA7P/+Ds6Nd/+44yY/YPz123LugvYcxB/8ac9507vzee+3pw97nc35fgRURmSv4vmevHuY8/c+56ct2yXaeVsgEANpJStoi00w1hAAAAAGAdLF0pe2vn8ynTpJCd4iPAsnrf7/zxXvnvZ3/l+p/uL2McwOsu+9Brd4vY/V9JEBGZe07tPHXuer2zDNdrpWwAgI2klC0i7XRDGAAAAABYB8tUyu5nRh39wrt+1wzZwNI7+/KPRpf+5q27Zb8Tp7bv6C9l7FNfxn6qFCfzNeC3Tv+H0R99+aHRNx58YvTNv3uyP+MAs/n23z+ze/348n2Pjq7/9J+PfvmKm/fK2Rds7ZxNOTt/naW/DC2cUjYAwEZSyhaRdrohDAAAAACsg2UpZWeW1Au2dv4hZZkUaABWQd5A8sa3n+7Kfm/buaC/pDGDFCLPnbfdv46QpOD++a893J9ZgPnKGzzKXzjYzamdv33D1sdf31+SFkopGwBgIylli0g73RAGAAAAANbBspSyyyzZKeUBrJLMwprrl9myZ3fybTs/k0JkzltmxvZmHGBRHv729/b+ysG5PHfykp2UYxZKKRsAYCMpZYtIO90QBgAAAADWwbKUsk9sbT+WcoxiHrBqnn72B3uzZf/sr1z/0/1ljTEyQ3a55l/8G7+/O9s4wCI9/4Ozo1//7TvKjNk/XPRfOlDKBgDYSErZItJON4QBAAAAgHWwDKXsFGFSirnw8k/1VRmA1fK+3/njMuvqr/aXNsY4d44+n3OVQnaKkQDHpVy780aRRb6pRikbAGAjKWWLSDvdEAYAAAAA1sFSlLJP7VyXQsxHbvqzviIDsFr+6MsPdcW+U9t39Jc2Gs5d79+X8/QL7/pdM2QDx+7syz8aXfqbty78+q2UDQCwkZSyRaSdbggDAAAAAOtgKUrZWzufSRnmy/c92ldkOIzvP/Pc6Mz9D48e+dbj/S2Ms2zn6sGHHt3dJ1ZPCsa5jp08tfO3/aWNgddd9qHXXrC18w+u98AyyfX7jW8/3V3D37ZzQX/JOlJK2QAAG0kpW0Ta6YYwAAAAALAOlqSUfW+KMN/8uyf7egyH8ZGP3Tz6+V+8fDdPPvV0fysty3Su6n1Zh2J2yu53fe6e0e99+s7d5ON1fqNAZlvNdezE1vaz/aWNgTJLdmalBVgm13/6zxc6W7ZSNgDARlLKFpF2uiEMAAAAAKyDpShln9p5KkWYzFS4blKuTdn2yvdeP7r6mtO7MyEfNaXs2S1rKXuVn7eUsd/xzmv2jmWYjIV1LWf/wrt+d7fU11/aGDixtf1Yzo9ZsoFl8/SzP9ibLftnf+X6n+4vW0dGKRsAYCMpZYtIO90QBgAAAADWwZLMlL1bgllHt9x616sKqUdNKXt2Stnzde/XH9g7huSyy6/bfc0nb3rze/Zuv+TSD45eeOHFfq31Ua5l/aWNysm37VyQc3Ph5Z/qzxbAcnnf7/xxuY7/an/pOjJK2QAAG0kpW0Ta6YYwAAAAALAOlLKPVkqpdUk1OerCrVL27JSy5ycl67defNXeMdz1uXv6ezqZNb4eD3nDwrop17L+0kbl5Kmd63JuPnLTn/VnC2C5/NGXH9q9hp84tX1Hf+k6MkrZAAAbSSlbRNrphjAAAAAAsA6Uso/Odx5/cq+AWpdRf+/Td/ZLHA2l7NkpZc/PI996fG//r77mdH/r+eqZtMcts8rKtay/tFE5d14+k3Pz5fse7c8WvFq+bp65/+HRSy+93N8Ci/Pdf/yn7jp+audv+0vXkVHKBgDYSErZItJON4QBAAAAgHWglH10brzps3sF1BRW3/Tm9+x+/I53XtMvcTSUsmenlD0/X/zSfXv7n9d+S13KvvbDn+xvXR/lWtZf2qicOy/35tx88++e7M8WnC/XvXJ9yPUQFu3syz/avYaf2Np+tr90HRmlbACAjaSULSLtdEMYAAAAAFgHStlH560XX7VbLnv/B7Z3P8+/pXD24EMHny02s4hOclTl3u8/89yhZy/NNpJlcdBzldlcDyOPNTyXB9mXvBYOuy+HXb+oC9flNT90/Q237C1z2+1f6G9dH+Va1l/aqJw8tfNUzk1momV55ZqSN1Vc+d7r95Jr012fu+fIZ69exVJ29rl8rf/E6c/0t7LKfuFdv7uQ67hSNgDARlLKFpF2uiEMAAAAAKwDpeyjkWJbKZelzBb5t9y2n/LWCy+8uFtmzQzbZf3kssuv29t2bVq5N7N2lxJZ/q1lv3L71dec3v08JbzcVj92Ps5tsxb07rjz7t1i30VvuXJvG5k1PLeNK+ZmH8uyv/fpO/tbX60+p5PK6tmHsly2XcxahC7n4d1XfHRv+STPQZ6bPEfT5HGH5yHrl3Mwy75kP2659a7RJZd+cG/Zccl+tczjWFqy3TIbfP4dHkP9XOU1NOvrZ5WUa1l/aaOyjtf5dZI3y+T6VMZoK7l2HeYNRdPkmlEea1VK2fV1LddlVt+iruNK2QAAG0kpW0Ta6YYwAAAAALAOlLKPRinYppxaSq51aTVl6FlKqZl9uBSox6UUqItJ5d58Xm9vWIou66acl2VT1C3LDpNS76RjSMlvWPxtJbMqD2fPzjkr5yoF3nFy7GU7k0p8pWxYPx8x6VwVmUl6WIgfJvfXZe+hr3z1zN7xtHLthz953rG09iXnetp+1MlzNzSPY5mklPqTMlt29ru+PcXFg25/2S2qzLeK1vE6vy4yRutrdcrXuR7lDTG5NtVvApn0JpnDynWvPM6k6/kyyTW1XNvHvRHmi1+6b/f+nNd5/WUCjs6iruNK2QAAG0kpW0Ta6YYwAAAAALAOlLLnLwW3MhtyKaYWKbiV0lkK15OkqFwXeVNSyzqZETr/1iXe2riicbY3rVxX1s1y5RjKbM553Mw4XW5Pxs10nXNQl79zHlJMy/5kptWsV+/L8DxFbiv3jytM1/uS7bWkhF2WGT7OtFJ2fRx5LrLfZbn8m3NY1h9XtE8BuSyTpLiX5y9F7Tx+fQwlrX3JeuX+lJxLuTz/1seRfcpzNSz/zeNYpsk69fOafa4/T/FzWMBfJ4sq862idbvOr5NcC8oYzTWyfuNKkWtK3tySmfqPSq5DZT9yTVslrWt2UV9bJ/1FB5bDoq7jStkAABtJKVtE2umGMAAAAACwDpSy56/Mipnc9bl7+ls79X0paE9SF7hThm5JsXeWmbJTsqtnvW4VsqNeN2kV41KqLvePK0LXJb9xs4dm3+rCbo6llmMu92V7Qym3lftLWjMw5zko9w/PY+tc1W686bN79+e4W1JSLMu09rN+jNZ5zz4Pi9nDfUnZudw3fL6L8vy2ZsiOeRzLLLLt4azgOb6Dbm+VLKrMt4rW7Tq/Tuo3+BznTM657pX9aH3tWVVK2atlUddxpWwAgI2klC0i7XRDGAAAAABYB0rZ81cKbimmDmcbzuelgNu6v6jLaeOKz+MMi8Z5jHrW6XGF7KjXnVSKqwvew2OoZ/ieNuNyithlO5lFuVafg9ZM2qXoVmZ/TlrHVh/TcJbm4bmqpchejmNcETrq53RYiB6ei3GGxezhvtRF+GF5vahL18OZbudxLLPI+vU5LZk0K3wp5mf271W3qDLfKlq36/w6ecc7r9kbq8epvuYPv/7k2jLuzST71XrzzlDK6a0Zww9CKXu1LOo6rpQNALCRlLJFpJ1uCAMAAAAA60Ape77qEu64mbDr0upwJu0iJdayTGYv3o9h0bieBXVSITsmlZRr9XLDmVX3s+8p2pVSdcrAQylq576c0yxbu/K91+/elzJvKRUOi91RSsat+yYdbz0T97jnqSj7MjyG+lxMKx1P2pd6hvVxpb66+Dcsn8/jWKbJPtflzrosn+L1cJ+KskyOf9Utqsy3itbpOr9u6jfZHKQ0nK8B5To76fqSknO5LrS+FuUaUvajXA9SxC5fB0pyjRr31yMi15rsT75ulDeE5N9ybSvJ18b6WpuvMXlzSzmWJNeuSdfuPFbrmOqvbZOy36/vHL1FXceVsgEANpJStoi00w1hAAAAAGAdKGXPV4pipWyVIm1LXdRtzQAdt93+hanbGacu99YzZKdsNs2kYnBt0syf+933uig3nJm0fpx6huh65ufcntJcaxv1DNOt8tuk462fyyyXfRmXutRYP34KiuX2aWXoSfsy7TiiPNetMvU8jmWS7G+Z8TrJayClxPq5zXaH28vn5f7rb7ilv3V1LarMt4rW6Tq/bjL2Jo3Taeo3feQaMk6uE2W5XIeGhvfXs/+3Mu6x6u3kult/TRqmvGEkxzwsf9cZ9xcGxh1TfW2blHW47q2bRV3HlbIBADaSUraItNMNYQAAAABgHShlz9ekmZ1r9QyarRmE65Lcfmcurcu9dSl2XAG8Vq+bstk4KcOV5Yb7t999rx/zkW893t/ayeflvrrwliJ2bst5TvmtLgXW5ed6P4czesek451WCByXutBYP36ZsXWcSfuS11IpPad0PTyWeibt1gzt8ziWSerZ2Ovyf9avS97Dwmd5HpNppfVVsKgy3ypap+v8usl1trzJJcmM9/v5ulNff+dVyi77k3/zpps8Rq4X9deXpPXGn3o7Zfb+bCePmetw3qRSv4kkXxvLdSpfm3MNy+PlWOrzUr8xqJh0TNlGUl/bUxAvtyfDaz3Hb1HXcaVsAICNpJQtIu10QxgAAAAAWAdK2fNTl7P2k2kzOKe4tR/1uinvllJaMqkwF/W6k8piddl4uH8pBY+7r2W4v0OlPJd/izIzdkrnkdJyysq5rS4ll6JdzkHLpOOtZ9/OcjnmaRkWi3Nb2cZhStmR10m5P8mxZx/r2V1TKGyV/OdxLOPk8erHH74ZIcdSFyDrYnZdsJz0elsViyrzraJ1uc6vq4z5MhZLco2Z5RqeZco62c44GeNluVyHhur7k1zTh2/UiXrm61xPhobbyfVnuJ0sUxeuk5Szh29Eqd/wUr7e1KYdU9Tndr9fz1m8RV3HlbIBADaSUraItNMNYQAAAABgHShlz0+r1DZLWqWyembj1kygkwzLvSk61+WzSaWwacXgYlLJrL6vNbPoUD2bd0tdKC7FulI0rwuApQyeIl/UZeF69ubapOOti3/TCtXj1NuYVnKetC85ljK7el1wrpPz2Cq1xzyOZZxsr2y7NUt35HiGxez6ddkqO66iRZX5VtG6XOfXWb7WlDe31JlWzj6KUva4QnZRv9moVbiutzPuuli/gShvbmn9dYv6DT+5Bg9NO6aY9PWS5bOo67hSNgDARlLKFpF2uiEMAAAAAKwDpez5KaXTFLhSvJqWUrJNhqWxO+68e+++1kzak7TKvSlHl9vyuOX2oUnF4NqkklnKx+W+afteF97GzWad7Zft5XHrElz92PXj5vb68wcferRf6nyTjrcuG+f5OIh6ltVxxfBi0r6UUnVeY5ESYs5tzkeOc9zxFfM4lnHqY7z6mtP9ra+WYyozlw8z76L4cVlUmW8Vrct1ft1lpuhcV4azSCe5vWV4jR6nvna3CszT7q/lccqywze8zLqd+q8PDL+O1eq/RjA0y2PV+zrpcVgOi7qOK2UDAGwkpWwRaacbwgAAAADAOlDKno+UYqcVs4bqGaCHhd265DaurDxOHr+sm8JYUT/euFlBx607NKlkVp+LUiIepy70Zv/GKcXt7HcpW+e2+hiGM2OXWVBbs5sWk463Ltu1ZjOfRcr2ZRuTzkWWK8eYDPclZefcvt/XQjGPYxknBfGy7Rxj63VVpPA5LGa//wPb/b2rb1FlvlW0Dtf5TZLraa7Jw3J2q3R9HKXs+mvH8DFn3c7wjTzjTPprDrM8llL2alnUdVwpGwBgIylli0g73RAGAAAAANaBUvZ8XH/DLXulq1ln/a3Ly63icF1ezUzJLXmsYRF2XNE4y9QzfrZK0OPWHZpWMkvRttw/bobobD/7nmVS/EsJcJx6v0pBuTUrczm+lJdLyTnPzTjTjrc8VnLQGabrQl9r5vCUmst5KBnuS32+c4zZl5z3OtPM41ha8rqqZ32fdL7zHNfnoySvxUll7lWxqDLfKlqH6/wmGo7ZXKtzzarl+lPuX1Qpu37M4TVn1u0oZdOyqOu4UjYAwEZSyhaRdrohDAAAAACsA6Xsw6tLqcPZm6dJeXhcWesrXz2zd1+Swlduy3KZJbQuPteF5ixXbh+We/N5PSNztlebtG5tWsmsnj05SSE4Bbgsm6ScXO/HuOJ2Uc+KWtIqqtf7VTKpJD/teHNbPVNsyn/Z/3K+M8N1zmFuz/G09mm47znW7FO2k/0t56F+LQz3JY83nGG6lbwOc24zI/XQPI5lnOExlhnNy/Od481268fP8dafZ508fv1aXjWLKvOtolW/zm+yfE2rrz/DN5dkjJf7jqOUPfz6Met2lLJpWdR1XCkbAGAjKWWLSDvdEAYAAAAA1oFS9uGlSDqtlDVOXdZqrZvyW7l/XIYzRmc75b4UxoZSkC33pxSbMm4xbd1ilpJZzktdvG4lj9+aPXoopcC6wJsMZ2uNYRk8jz+pJD/L8eY46pmgJyUlv5b6fLWS++uSYWtfUjws96ck2JpxuiT3tY57Hscyziyv1aR+zjNb/HCW8JyLVbWoMt8qWvXr/KbLmzTKGB1+zan/6kPefDHOtALztPtr9RtBhjP/z7odpWxaFnUdV8oGANhIStki0k43hAEAAACAdaCUfXilrJay6X4LVyl0leJyZgpuSeEtpbBhwTm3pWQ79InTn9m9P8uPm3W4LonVJdhZ1o36mFvl6CLbuPbDnzxvFugks67m9knrDmX5sn6OfZz6sXI8k8x6vJl5OmXDPEdl2yUpOWffUhKcJM9V9rsul2dfy0zepVCe+4f7UhcihwXEyP7l8evZbMeVqudxLOOk4J9iYqv4nX3La214bGV/ynmZpaS/rBZV5ltFq36d33S5fpWxPCwf18XkXD/GmVZgnrVMHfWbVIZ/DWHW7Shl07Ko67hSNgDARlLKFpF2uiEMAAAAAKwDpezVkkLrforMy2aV972W8vFhjiXrpow8izznpbA8nKF2qBS7k0kz1tYOeyyT5A0Fk8rutczsveqFxUWV+VaR6/xqK29gSVpvDCn35Y0m46S0XJabVsrODPr5fJwyw37rTSzLVsrO+SrLtN5IxXJZ1HVcKRsAYCMpZYtIO90QBgAAAADWgVI2LLeUBUuhb9zs10UK1mXZabOEM3+LKvOtItf55ZTCcGaxH842XcubNuoZ/nOdGapnx28VnOtCdjKtlJ2keN16w0hm0y/LtN58smyl7PzlgbJMZvhmuS3qOq6UDQCwkZSyRaSdbggDAAAAAOtAKRuWWz379bSZslNQLMuakXXxFlXmW0Wu88upLjhnluvf+/Sdu2XllJRTJq6vKcltt3+hX/N8ub0sc9Fbrtz9PNsope9ye5KPp5Wyy3L5N8vmepbieD1jd9IqbS9bKbt+s0yOJ8eSx8vju04vn0Vdx5WyAQA2klK2iLTTDWEAAAAAYB0cVSn7wvd/7f7/+v1fvbj/dCJlPZgsM8aWUt/7P7C9W5ZMqa8kn7/7io/uLTOtvM3RWFSZbxW5zi+nFIZLAXpaJs2+/9JLL593DRomhe8UmMu1bFopO2XlXOvK58Nk5u5xheZlK2VHrslluTqT1uF4LOo6rpQNALCRlLJFpJ1uCAMAAAAA6+CoStnZbjJLOVtZDyary4zTkpLfCy+82K/JIi2qzLeKXOeXV64XmdG6VapO+fnaD3+yOSP1UIrZmVm7LnnnupXbyjWpPEar4P39Z57bfbzcXx4vM3e/9eKr9raX+1PWnrQ/9XYmFclT6i7bnbS9HH+WyXENzfpYOTfDWb6zvbyhhuWyqOu4UjYAwEZSyhaRdrohDAAAAACsg6MuZZdMKmcr68FsUuDLjKuZufWyy6/bLfbl4+TGmz67W97m+CyqzLeKXOdXx4MPPbo7c/Rh3tyRa1Fm4Z6XlKZnKYavgnmfG+ZrUdfxc/83VsoGANg8Stki0k43hAEAAACAdZDCdP/hXNWF7DqtcrayHrAOFlXmO4wLr/rqL/3b//bun+4/XRjXeWAVLOo6fu7/xErZAACbRylbRNrphjAAAAAAsA5SlO4/nKu6iN1KXc5W1gPWwaLKfIfx5qv+479/81X3/PDC99+zs8hytus8sAoWdR0/939hpWwAgM2jlC0i7XRDGAAAAABYB7sF6d/82pvmnbqAPSkpZ/+rd/57ZT1g5S2qzHcYu6Xscg1eYDm7nBuAZbao6/i5a7BSNgDA5lHKFpF2uiEMAAAAAKyDN7//nruPKK8qYI/LL17x/x39V5f+bl+HAVhNiyrzHcZ5peySBZSzy7kBWGaLuo6fu/YqZQMAbB6lbBFppxvCAAAAAADjvar018pV99zxf3zvPRco6wHrYFFlvsNolrJLjrCc7ToPrIJFXcfPXXOVsgEANo9Stoi00w1hAAAAAIDxXlX2q9OXsftFlfWAtbCoMt9hTCxllxxBOdt1HlgFi7qOn7vWKmUDAGwepWwRaacbwgAAAAAA472q5NcV/c4rYxfKesA6mFTmu/Cqr13XvC4uc66654dvft89V/SHcCiu88AqmHQdn6dz11ilbACAzaOULSLtdEMYAAAAAGC8QbGvWcYulPWAdbCoMt9hzDRT9rlc+P6v3f9fv/+rF/erHZrrPLAKcp36ry793dGFv/m1Nx1lzv3f+CmlbACAjaOULSLtdEMYAAAAAGC83WLflDJ2oawHrINyLesvbUtpWil73mXswnUeWAW5Tv3v/5v/T66Hdx91/u1/e/dP95dIAAA2g1K2iLTTDWEAAAAAgPFmKWMXynrAOijXsv7StpTGlbKPqoxduM4Dq2AVruMAAKwspWwRaacbwgAAAAAA86GsB6yDVSjzDUvZR13GLlzngVWwCtdxAABWllK2iLTTDWEAAAAAgPlQ1gPWwSqU+Uope1Fl7MJ1HlgFq3AdBwBgZSlli0g73RAGAAAAAJiPVSjrvfDCi6Pbbv/C6OprTo+ufO/1e/m9T985+s7jT/ZLvdpHPnbz6Od/8fLRRW+5cvTkU0/3ty6nHMe1H/7k7jGeuf/h/lb2a5We80nW5TgWaRXKfG++6mvvW2QZu1iF6zzAKlzHAQBYWctXyj5z5szoiSeeGD3zzDOjF198sf9vMWymH/7wh6Nnn3129N3vfnf0V3/1V80xc1TphjAAAAAAwHwse1kvZewUU1NQHZdPnP5Mv/T5Lrn0g3vL3PW5e/pbl1P2r+xryuYczCo955Osy3EskjLfeMt+nQcI13EAAI7QcpWyH3nkkdHLL7/c/1cYqP34xz8ePfbYY82xcxTphjAAAAAAwHwsc1mvLionZXbs5P0f2B696c3v2buvJcvkvkmzDZfya2YmPk5K2ZPN+jzN8pwfp3U5jmWkzDfeMl/nAQrXcQAAjtDylLJTyAam+853vtMcQ/NON4QBAAAAAOZjWct6L7308nml63u//kB/zyteeOHF3QJziq4HVbafwvdxUsqebFmep8Nal+NYRsp84y3rdZ7N8P1nnhuduf/h/jMYz3UcAIAjtByl7DNnzpghG2b0k5/8ZPTXf/3XzbE0z3RDGAAAAABgPpa1rPfgQ4/uFViPchbrZSnJKmVPtizP02Gty3EsI2W+8Zb1Os/6SyG7XPeO+y9SsPxcxwEAOELLUcr+7ne/2//3F5jF008/3RxL80w3hAEAAAAA5mNZy3qLKimXxzhoSfY7jz/Zf3Q4hz3eFN8yu/hxOMw5KDOoTtv3wz5Pk+TxD3IM2eesmxnbZ3WUxxE5n8k8HOdr6iCU+cY7ruv8I996fPd6NkvuuPPufq3FefKpp0dvvfiq3TH5idOf6W9lnnKOy3XvsKXscs295da7Rtd++JO719Hk+htuGX3xS/et1PVqyGux4zoOAMARWo5S9rPPPtv/9xeYxYsvvtgcS/NMN4QBAAAAAObjuMp603zlq2f2ilwHLbCm6Jf1U3Sqi6q33f6FvW2PyyWXfrBZtk3pK4Wpd1/x0fOWv+zy63aLYfsp6NZmKWXncXP/1dec3v287Ms73nnN3rr5OLcNy2ll3Te9+T27pbZJUlDOcln+xps+29/6isOeg8yCnmOo102yvXrfDvI8jXvOa9n/lPqy7nB7w+R4avd+/YHdMmApz9XJMeXYho7qOIqUWTNGLnrLlXvby/OX2/LYkxzmNbVslPnGO67r/PAaMS2LVl93MwaZv3mVsnPtra9xreR6med0FXktdlzHAQA4QstRyj579mz/319gFj/5yU+aY2me6YYwAAAAAMB8HFdZb5oUg+uy1UGKVimAlfVTDCtStK23PS7DMmz2qS6rtpL7Mzvsfs1Syi7Hk7Jtjicl6LLOMClD1iXazCJa7ptWjCuF4GR43g97DurjbCWlu+Igz9O457zIOZm2/3Vyjot625MynPH3KI4jsvwspdf3f2B7bLH7MK+pZaPMN95xXefrNz7kNTYpebPDvJTrXa4nk2bBr9+AMnwDxiqa9bgXKdeV8hqY9rWnpbxRpGyjJNfxvG5a18AUuJfFpr4WD8p1HACAI7QcpWxg/1pjaZ7phjAAAAAAwHwcV1lvFimTlpJVykqZtXk/pdBxxdZ8nBmZk3J/yqjltpJaHrfMjpx9yQzEZZv5ty4yZ7n9llf3U8pO0bHMGJr9zr5kf1MGLrcn9SzJ2Z9yX/Z/0v6V0nKWq2dvPuw5yLayXu4fFrfzcYpoWa84yPM0rcxcF6RT9CvHl3/rdXMs2XZdoisF07wuU7Qr92Xf89os6+Y81yXooziO+rlIyj5l2czWneemLsTm/pbDvKaWjTLfeMd1na9fg4tUX4uGY6ulNcZW0X6PexFybss+5XqzX8O/qpC/clB/XYpcD/M1tHztGr6Z6Dht6mvxoFzHAQA4QkrZsKpaY2me6YYwAAAAAMB8HFdZbxYpttbF0ySfp+Q0LGW1TCu2Rrk/M25OUpduU3ptSVmsLLPf8up+StklrYJb9q3cn0JkrV4/Bd6WFI3LMsOZaw97Dr7y1TN79+13JtOy3rTnadJznuJeuS9Fv5YUknN//h1KQXnSLOj1bK7jSoHl/sMcR+TclvvHzaqa9epSbM7/0GFfU8tEmW+847rOr0ope12sWyk719uybt4cMu2Yco3PORj39ek4bOpr8aBcxwEAOEJK2bCqWmNpnumGMAAAAADAfBxXWW9WKV/XM2aXpKCVstOkcva0YmuU+yeVZPMYZYbncWXeSCGsnm14P/Zbyp5UbivF4iT7VKQQVm4fFq6LukBWl3jncQ7qY2wVhCcp6x2mzFyXi8c9fl08n6X4X6vP77jnsNx/mOPImxXKc9GakbxWF+HffcVH+1tfcdjX1DJR5hvvuK7zR1HKzjiuZ7BvWVQRdtKbNIrs636vJUXWneUxisMed/aznuX/IIbXq8OUsutZso9ilv5pr6Nplum1eJhjyXM0fN6Oi+s4AABHSCl70+SbsHxTltkM8g1mPs4sFdN+sJUfpmXZOlkv21umdwFvktZYmme6IQwAAAAAMB/HVdbbr8ysXBdDS97xzmvGltYmFVuLcv+kkmx+5l6WGzcDcpHtZLkUk/djv6XsSQWqerlhUavMPJ5Sb+t3EDmfuX9Y9p3HOahnPc1zuZ+iYlnvMGXm/P6k3DeuHJdzX5bZbzkxj1fWHVc+LPcf5jgyFsp9mZl8kjyH5TlvvSbn8ZpaFsp84x3XdX4epey8hvM6r7eV5PWc2enLdaR+rU9KPWbqv8bQuu7m/jxOrpdldv/8W65xJfndbj1+si95g0fWLctk/7O/k+RYMiN/3kBRb7+sn23W1+U4yHHX8vvkHE+9jex3bpv1Lxrk3NX7nPVzTnKtmOW62FJf57Jvw+M+iOxP9mH4f4l8njcqTbvmZx+W6bWYr2N501p5k06S522WjkC+Htel93HJYy6yc+A6DgDAEVLK3hT5pqn1Q+SSfKMz7p2/+QaotU6drJ+i935+sMnhtMbSPNMNYQAAAACA+Tiust5BpYQ0LMTlZ+GtMtUshdNyf7Y5TkpyZblsM4Wpcal/5r+fn83Ps5Sd9ctyw/JxPRP0sFydwlq5L79bqM3rHNTPXZ63LD+tCBdlnUnPU0w6R/XvVcYVFMus7Nm3aVK8y/ktqUvf2Y+Wcv9hjiO/Nyr35TGnqc/58PmYx2tqWSjzjXdc1/nDlrIzxib9HjUpYzmv7db9w9TXtrzmy+2tMVvfn+tlPfaGybHmWpb9aJWqS1KEbUlJdpYibx6nLigf5LiLelyPS8rG9ePV8tiTir3l99zl83HXxZZ638Zdr/cjX8Pq8nIr2d9xbzpapddijnPS14b6/xuzZL9/2eIwXMcBADhCStmbID+0qr/5yzd6+cFYko/L7VmmZT/fMOUb9P38eSsOrjWW5pluCAMAAAAAzMdxlfUOKz8jr3/G3iq6zVI4LfdPKsnWReb9JMWsWdU/808ZrWUeBdp6tuoUkGv1esOZMed1DlJabBUW8/xNmo2zLHeYMnNKdaUkmt/DDGd8rkvVmTW1JdvMuZhWnhxXPiz3H+Y4UuQr981SkK63Nfxd0TxeU8tCmW+847rOH7aUXb/u6nJw/s14TUm2LuzmtZnUr+uUV8vtSf06z8dludaYre8vf0UgX3eybCbeStG3PsZcU0txN9eIXCvymDmO+utVq+RavgbU6+U4cw3N8uXxk9xfK8c263FHXerNNTnLFDm2+vGybEv9eNnvHGe2k/3NNa7cV9I6x+PkGlzWm+XNJ5PUx5rnoexnzkn2tT6OpPW1aBlfi0nOUx4/x1HeVJTk+Sj7WMt2ymsxr90y63bk49JRyPplP1vbOSqu4wAAHCGl7HWXb17yzUz5xijfyA3lm5zyJ4daJv2ANtvP/fUPAvLN4CK/adpUrbE0z3RDGAAAAABgPo6rrDcPdYk2RaKhugxVl59q5f5JJdkUsMpy2WZ+Jj8t+Rn9fiyqlB11ubAuTZfb87uFoXmfg3GlvZQcW8r9hykzR0pz5f6yvRxbXRTP729as3en0FxPqpPlsn5JvY3sR0u5/zDHUZcVW8/vUL2tYRF92vkq8nyW5WZ5zOOgzDfecV3n699TDq8PdXI9aCkF51yb9iPbnOX1mtd8Wa41Zuv7kxzP8I0NWaYuXCf5/e7wDSn116vW+M/YzPVv3O9yc02qy7Qtsx53tlWuZeN+f1z/Ljv/Dpep96f1Jpeory9J6xyPU19PJ71hZ5r6OLKf4yYxq/8aRM7J0LK9FnMsrfNSF7NbX0/rN1i1zkXG4qT1j5rrOAAAR0gpe93lm5zyDU2+OZqk9YO/mOUHtPkGrf6Bx3F887RpWmNpnumGMAAAAADAfBxXWW9e6pLs8OfpsxROy/2TSrL1LJv1rJLztMhSdl1MLr83SKGu3NZ6/KM6BzmOYXGvtc/lvsOUmfP6KOW8+ncndbL9VrmwLjGmiNgqnOfxynZapbqoH2eSScdRP7/jyqy1PFZZfmher6lloMw33nFd58eNs2HGjYeyfqskO8msr9dpY7a+f1zxOOo3SqRMPK7kXK4huQ4dRP6iQHmcllmPe1oxt6iv+8NrTb2NeoboofoaM+662DLpa/t+1G8oyvFMUl8rh1/nlu21OO55y36X5fJXFYZKaXtcuTyv00nrHzXXcQAAjpBS9rqr322bb8YOYpYf0Eb9zd64P7fH/LTG0jzTDWEAAAAAgPk4rrLevJTZK5PhzKSzFE7L/ZNKsnXJ6agmP1lkKbsud5Xjrtdpbfuoz0Fd/kuJbqjcN+l5iknnqDxGynWRUlvKhDn2nP9Js7HWz8+4Yl99XseVD8v9hzmOel8mlSGjLoK2Snjzek0tA2W+8Y7rOl+XsvOaH5cUfFvqEnJe97Oa9fU6bczOMqajfqPLpMerZ38+iGnjddbjzjnPMrk2TJJtlO0Nr3v1jMyTrh2znsOhsk7SKrnPqpzzHOu07dSzmQ+vravyWqyXa/UCyl/EyHkZZ5bHOSqu4wAAHCGl7HVXl7IP+g1N/UO3fEM3Tv0N837fvcv+tcbSPNMNYQAAAACA+Tiust48pIRdfv7dmnk0P38v948rjWXW42k/P69LTkf1c/ZZfuY/y/HELCWwUspLMgvptKLWUZ+DenbO1l8YneV5iknnqJTqxs0QOkk92+q4c1qfo3G/+5nHcaQ8Xu4rBfNx6pJhq+w+z9fUcVPmG++4rvN1Kfsg6t9xJrluzTI7/KKLsPX1e9Lj1dfdWeTxs72SaUXoWY+7/MWA/Jt1xqW+7g2vH+VrxrRi96zncKjsYzJuhvJZTHpTylD9l66Hs0TnfJb7kmV9LUZZLvs4VL4Ojiup119fpr3p5yi4jgMAcISUstdd/U1dvumZ9Kehxpm1lF0/1qR3vTIfrbE0z3RDGAAAAABgPo6rrDdNynwpgQ1nv67VM1e2ZoRMcanc3yqwRSmWpSw7aRbN+rGOYqboRZey68ljUj4rH086tsOeg+zLuOczpbuy7dbxz/o8TTpH9XnJ70tyDNmnOuPUM+G2jj3F9jIjazKuNDeP44i6nDluluGsV0qxebzs49A8X1PHTZlvvOO6zh+2lB15Y0F5M0NJCrvjZqyPWV+vec2X5Vpjdtr9xTxL2TneenyPS2u8znLc9Rtg9pNhKbs8J9PKzrOew6H6XOUvNRxErnllG62C8lC9r63lV+G1GGW5ccdQ7h8Wz/P1uf46NumvRxwV13EAAI6QUva6yze8mQWhfFOTb9hmeTdtbdZS9rRZEJiv1liaZ7ohDAAAAAAwHye2tp9NAeb5H5ztf8q5HErxKf+mgJSfg6fQlHJWPq7Lfvm4VfbNemWZVoEtUuYuy+Tn9vmZeh4nj1GXZrN+XcZKmSnLlaJrSsX5OX9uz2Qsk0paLYsuZed8Dctl+bxV3C0Oew5yfnN7SsR12SvPaf07k1YRbNbnadI5yn7WjzMu+Z1NStj1a6qePTT3p5id7SV57urXYzKuNDeP44h6Qp4khfnsR7aVZP9zrsv944rb83xNHbdfeNfvKvONUYqOizaPUnZknOV3nPVrOkmBtFx/arO+XvOaL8u1xuy0+4t5lbLr8Zjk+LJOSa495b7WeJ312l+WyfOTdWbJ8PHqbUwy6zkcyteRsl7O70HUb/ZpFZSH6n1t/cWGWPbXYpTlxh1z/TrK85evS/kaUt9+XJ2Ccq3qL10AADBPStmbID8wG/7AM98czfrDrFl+QBv1O1oP+k0rs2uNpXmmG8IAAAAAAPNxYmv7/hRgHv729/qfci6HupA1KSkUjftrlHXBbVgoK4bl1jrDdVI4rktLk7Lfn8fP8jP/WY4nZi2B1TNfJ/l8msOcg1lmf02ZuGXW52naOUo5udxfio7l82FyX12UnvaaTImt/E5mXGluXscReS6GxcBh8nuocec05v2aOk67Zb5TOz/sL21UStFx0eZVyi4yHnNdqbfbKp4uughbX78nPV59vRmqr025VrbG47TxOutxl+vGtFmuJynbOKpSdv3XCWb52jRO+V38LMdav/lmWil5WV+LUZZr7U85r3n+Wl8/cluWqb/2LVK5VvWXLgAAmCel7E2RH76VP1VXJ98kTfuh1rQf0OabpfoHhJlx4bi+gdokrbE0z3RDGAAAAABgPk5u7Xw+BZh7zjzW/5RzeeTn5Ckf1aWnkvxsPTMxT/q5d0pVWTYlo9YMlkVmah4WjVtlpsgso/nZez0hSkm2kRknM/vxfuVYy3bGzbI96/Fk/SyXMtq4wnrkuEthLf/m81kc9BxkvRQPD/p7kVmep0nnqJyXJDNdD2X/st/1bNrDYnnWa+1DOXel6D5uZuo47HHUcl/O9/Cc5hhy+6TnP+b9mjouTz/7g90i34mt7SP75eoqK0XHRZt3KbvIWK1f8/m8toql7HKucm0Y93Ut+1DWz74NzXrc5dqd8XxQ5fxnG8PzX9tPmbg2fAPLQa87s+5n5PpfHq/1NaJl2V6LUZYbfl2JXOtzX67p2dccc/YxydemSV8HFqFcq/pLFwAAzJNS9ibJN9Z5x2n5JqhOfmA27hvE+hv8fFNVvmFKsl79g45l/SHZOmqNpXmmG8IAAAAAAPNxcmvnxhRgbv7Dv+h/yrm88nPuoy4MpTS1nwlOvvP4kxv/8/eDnoPMSnrQ53O/z1MeJ78rye9Mps26mmMpv19J+XyceTzv+z2OaTb1tZg3leQ6dmJr++7+0kalFB0X7ahK2VHPLJ1rSS2F2nJfZpQfZ15F2MOWsvO74HJ7CtPjZB/Kctm3oVmPu97OpOUmye+iyzaGb16p1ROITSsTD5U3jSQ5d7NcK3Otr89NvZ/j3vBU1G/I2c+1dJlei1GWG5ayc27KfQd589gilGtVf+kCAIB5UsreRPmGO4XqYTl73AzX9Tf4k5Jv3jf1h3DHoTWW5pluCAMAAAAAzMeJUzf8Ugow77r6tv6nnLB+UpQsvzeZVCCMlMzLsikFsvyu//Sfd2W+UzvX9Zc2KqXouGiHKWXn96aTfr9Zl22HE1zVMx5PmrV+XkXYw5ayo7xpJP+23qySQm9ZJqmLx8Wsx53zWraVWZ7HTRA2SX1NzfPc2ue6VJ3st5Rdv5kmye/MW8cd5ffsWT7/FjnWsn72M9f3lqxTlhte91fptRhluWEpO32Dcj4zI3uOM7Nj57ksGXd+F6Vcq/pLFwAAzJNS9ibLN5j1u4aT1jdp40rZ+eY532RlnWV9l+s6a42leaYbwgAAAAAA8/G6yz702pOndn6YEsx3//Gf+p90wnqpi3nTZsquf0dz0FlkWaxfvuLm3SLfz5264V/3lzYqJ7a2n835ef4HZ/szthh1KTul10kZzmJcSr/5nWd+31lKv6V8W7Y7LJ5G/caKTIaVcZzt5Xer9ZieVxF2HqXs939ge+++lHxLuTfXrvp4S1rl2VmPO+rCdAq6ub/M8pzybtbLc5LJv1LkbcnvpMs2slxmhc562VY51uxHtp+P91vKjnqm6bK98nvw8trJNb0ub+cvVNdyf71+7s9+5jWVfa3vz3aGBfMsm/tW4bUYZbnW/gzP57jknGQ/F+0X3vW7StkAABwVpWzOf0duvkkbqr/Bz7Ish9ZYmme6IQwAAAAAMD8nt3Y+kxJMZpuFdVUXRFOATLkupbOSfJ5iYVlmWnmb5fDl+x7tZlc9tfNUf0lj4MTW9v05Rw9/+3v9WVuMurQ7S+qicf1GinFJ2bdVTo66aFunLrTOqwg7j1J2Hiu/Dy73D5NjTZm4fH6Y444UinNba9lh8tgt2Yf6ujpMmZm6HPekczhJyuKzvpZy/MPZqvP5uPNSJ4/RmhF7lV6LUZZrlbKznVKSz79ZZtK5zUzai9Rfy3/YX7oAAGCelLI5/08IJcN35SplL6fWWJpnuiEMAAAAADA/J9+2c0GKMG98++nR08/+oP9pJ6yXaQXCOim9DYt9LJ+zL/9odOHlnypFvvf1lzQGzp2fz+cc3XPmsf7MLUZm5U3pc9YMx1wKofUM0iUpL2em5+HvTmv5PWs9G3RZr/4rw1m//C42yw5Nu7/IjMflMVql3iIzYJf9aMk1aljgTXG2zJxdZl3O+uOOfZbjruUc59xnmXqdJG9SybayX+Nkv3K9rK+tKfnmLw6U57Mc06RzOE22lVJ69rWUikvy2Hm8Sec+8rv1rF+vm+Q4s37O3Tir8lqM8lzmvNdyDsvzlOeo9bzmHGYW8iyTZPlFyf8/c506sbV9ZCUZAAA2mlI2nfob2OE3c0rZy6k1luaZbggDAAAAAMzXiVPbd6QM8+u/fcdu0RHWVYpwKaulnHfZ5dft/p4lHycpo00qILJcMrt/X8j+29dd9qHX9pczBs6doxtznm7+w7/oz9xqSam1zGhfir77kTGdQvMqSTn2sPu83+PO76JzjqeVm8fJ4y3q+pnXwWHOT9Y9yHGu8mux/ivd0469fG1MJhXO5ylvGulL2Xf3ly4AAJgnpWy6b+rKNzutd6EqZS+n1liaZ7ohDAAAAAAwXyfftvMzF2zt/EMKMR+56c/6n3gCLKfb//SbXSE7uWQnv1xljBOnbvilnKd3XX1bf/aATVPPwj5NmdU9OUj5/CCqN9lc11+6AABgnpSy113+vNG4PxNV1H/GKN/4DCllL6fWWJpnuiEMAAAAADB/P3fqhn99wdbOWcVsYJnVhewTF29f0V/CGCOziJ88tfPDnK/v/uM/9WcR2CQf+djNe92CSTNlZybvi95y5e5ymTF7UX75ipt3r+n5v2h/6QIAgHlSyl535Rued7zzmtFtt39h908cZWbs8ieP6neq5pue1p96UspeTq2xNM90QxgAAAAA4GicOHXDvytlx1+79g9Gz//gbP/TT4DjtzebamJG1ZmdO1+fyTnL+QM2TyaMq/sH6Rekl1Ank8aVQvab3vye0YMPPdqvfbS+fN+j5Zr+VH/JAgCAeVPKXnfvvuKje9/0TEq+2fnKV8/0a51PKXs5tcbSPNMNYQAAAACAo3Pykp03ndjafjYFmV941++Obv7DvxidfflH/U9BARYvpb0yk2pihuz9Ofm2nQty3t749tOjp5/9QX9WgU2STkHdRRiXSy794NiOwrzl/5cXXv6pUsp+X3/JAgCAeVPKXneZETszZOcbmtY3Okn+hND3n3muX+PV6nez3nLrXf2tHLfWWJpnuiEMAAAAAHC03rD18def2Nq+uxQgU5j5yE1/NrrnzGP9T0MBjtbD3/7e6BO33jO6+Dd+/5Uy9tb2Y3njSH+pYh9OnNq+I+fw13/7Dm+0gQ2Vv9B9402fHV353ut3k0ni0lnIx9d++JO7E8Mt0t5fPzi187evu+xDr+0vVwAAMG9K2ZvkO48/ufvngFLSzjtO8/Gs8ieD9rM8R681luaZbggDAAAAACzGya2di09sbd9fCpF16llrRUTmkbqAfV5O7TyVWVSV9g7u5Nt2fuaCrZ1/yPnMm2wAjtPtf/rNV67x3mwDAMDRWo5S9o9//OP+v8PArFpjaZ7phjAAAAAAwGLtzpx98fbVmT37XJ7dK9GIiBxR+uvNjrLe/PzcqRv+9QVbO2dzfhWzgeNSF7LP/f/yiv4SBQAAR2U5StnPP/98/19iYBZnz55tjqV5phvCAAAAAAAAsH8nTt3w70oZ8teu/YPR8z842/+mC+DoXf/pP98rZJ88tXNdf2kCAICjtByl7H/4h3/o/1sMzOLZZ59tjqV5phvCAAAAAAAAcDCZfbz81YNfeNfvjm7+w78YnX35R/1vvADm78v3PTr65StuNkM2AADHYTlK2Q888MDoJz/5Sf9fZGCahx9+uDmW5pluCAMAAAAAAMDBvWHr468/sbV9dylIXnj5p0YfuenPRveceaz/zRfA4Tz87e+NPnHrPaOLf+P3Xyljb20/ljeG9JciAABYhOUoZSdPPPFE/99lYJLvfe97zTE073RDGAAAAAAAAA7v5NbOxSe2tu8vhck69ay2IiKzpC5gn5dTO0+dy/ted9mHXttffgAAYFGWp5SdPPXUU33tFGh5+umnR3/5l3/ZHD/zTjeEAQAAAAAAYH52Z86+ePvqzJ59Ls82S5UiIvtIfz3ZMTM2AADHbLlK2cnf/M3fjJ577rnRyy+/3NdQYbP9+Mc/Hj3//POjRx55pDlmjirdEAYAAAAAAAAAAABgiuUrZYvIcqQbwgAAAAAAAAAAAABMoZQtIu10QxgAAAAAAAAAAACAKZSyRaSdbggDAAAAAAAAAAAAMIVStoi00w1hAAAAAAAAAAAAAKZQyhaRdrohDAAAAAAAAAAAAMAUStki0k43hAEAAAAAAAAAAACYQilbRNrphjAAAAAAAAAAAAAAUyhli0g73RAGAAAAAAAAAAAAYAqlbBFppxvCAAAAAAAAAAAAAEyhlC0i7XRDGAAAAAAAAAAAAIAplLJFpJ1uCAMAAAAAAAAAAAAwhVK2iLTTDWEAAAAAAAAAAAAAplDKFpF2uiEMAAAAAAAAAAAAwBRK2SLSTjeEAQAAAAAAAAAAAJhCKVtE2umGMAAAAAAAAAAAAABTKGWLSDvdEAYAAAAAAAAAAABgCqVsEWmnG8IAAAAAAAAAAAAATKGULSLtdEMYAAAAAAAAAAAAgCmUskWknW4IAwAAAAAAAAAAADCFUraItNMNYQAAAAAAAAAAAACmUMoWkXa6IQwAAAAAAAAAAADAFErZItJON4QBAAAAAAAAAAAAmEIpW0Ta6YYwAAAAAAAAAAAAAFMoZYtIO90QBgAAAAAAAAAAAGAKpWwRaacbwgAAAAAAAAAAAABMoZQtIu10QxgAAAAAAAAAAACAKZSyRaSdbggDAAAAAAAAAAAAMIVStoi00w1hAAAAAAAAAAAAAKZQyhaRdrohDAAAAAAAAAAAAMAUStki0k43hAEAAAAAAAAAAACYQilbRNrphjAAAAAAAAAAAAAAUyhli0g73RAGAAAAAAAAAAAAYAqlbBFppxvCAAAAAAAAAAAAAEyhlC0i7XRDGAAAAAAAAAAAAIAplLJFpJ1uCAMAAAAAAAAAAAAwhVK2iLTTDWEAAAAAAAAAAAAAplDKFpF2uiEMAAAAAAAAAAAAwBRK2SLSTjeEAQAAAAAAAAAAAJhCKVtE2umGMAAAAAAAAAAAAABTKGWLSDvdEAYAAAAAAAAAAABgCqVsEWmnG8IAAAAAAAAAAAAATKGULSLtdEMYAAAAAAAAAAAAgCmUskWknW4IAwAAAAAAAAAAADCFUraItNMNYQAAAAAAAAAAAACmUMoWkXa6IQwAAAAAAAAAAADAFErZItJON4QBAAAAAAAAAAAAmEIpW0Ta6YYwAAAAAAAAAAAAAFMoZYtIO90QBgAAAAAAAAAAAGAKpWwRaacbwgAAAAAAAAAAAABMoZQtIu10QxgAAAAAAAAAAACAKZSyRaSdbggDAAAAAAAAAAAAMIVStoi00w1hAAAAAAAAAAAAAKZQyhaRdrohDAAAAAAAAAAAAMAUStki0k43hAEAAAAAAAAAAACYQilbRNrphjAAAAAAAAAAAAAAUyhli0g73RAGAAAAAAAAAAAAYAqlbBFppxvCAAAAAAAAAAAAAEyhlC0i7XRDGAAAAAAAAAAAAIAplLJFpJ1uCAMAAAAAAAAAAAAwhVK2iLTTDWEAAAAAAAAAAAAAplDKFpF2uiEMAAAAAAAAAAAAwBRK2SLSTjeEAQAAAAAAAAAAAJhCKVtE2umGMAAAAAAAAAAAAABTKGWLSDvdEAYAAAAAAAAAAABgCqVsEWmnG8IAAAAAAAAAAAAATKGULSLtdEMYAAAAAAAAAAAAgCmUskWknW4IAwAAAAAAAAAAADCFUraItNMNYQAAAAAAAAAAAACmUMoWkXa6IQwAAAAAAAAAAADAFErZItJON4QBAAAAAAAAAAAAmEIpW0Ta6YYwAAAAAAAAAAAAAFMoZYtIO90QBgAAAAAAAAAAAGAKpWwRaacbwgAAAAAAAAAAAABMoZQtIu10QxgAAAAAAAAAAACAKZSyRaSdbggDAAAAAAAAAAAAMIVStoi00w1hAAAAAAAAAAAAAKZQyhaRdrohDAAAAAAAAAAAAMAU8y1lX3jV16578/vvGZX883/xXzxx7ubdUvav/NZ/HH3xz18pfObzetlhhstat71eYl3rjsth1v0/vffen+lG9mtec+7zx4af18sOY13rjot1rTsu1rXuuFjXuuNiXeuOi3WtOy7Wte64WNe642Jd646Lda07Lta17rhY17rjYl3rjot1rTsu1rXuuFjXuuNiXeuOi3WtOy7Wte64WHf2dfvu9JEwU7bIiqYbwgAAAAAAAAAAAABMMd+ZshuUskVWNN0QBgAAAAAAAAAAAGAKpWwRaacbwgAAAAAAAAAAAABMoZQtIu10QxgAAAAAAAAAAACAKZSyRaSdbggDAAAAAAAAAAAAMIVStoi00w1hAAAAAAAAAAAAAKZQyhaRdrohDAAAAAAAAAAAAMAUStki0k43hAEAAAAAAAAAAACYQilbRNrphjAAAAAAAAAAAAAAUyhli0g73RAGAAAAAAAAAAAAYAqlbBFppxvCAAAAAAAAAAAAAEyhlC0i7XRDGAAAAAAAAAAAAIAplLJFpJ1uCAMAAAAAAAAAAAAwhVK2iLTTDWEAAAAAAAAAAAAAplDKFpF2uiEMAAAAAAAAAAAAwBRK2SLSTjeEAQAAAAAAAAAAAJhCKVtE2umGMAAAAAAAAAAAAABTKGWLSDvdEAYAAAAAAAAAAABgCqVsEWmnG8IAAAAAAAAAAAAATKGULSLtdEMYAAAAAAAAAAAAgCmUskWknW4IAwAAAAAAAAAAADCFUraItNMNYQAAAAAAAAAAAACmUMoWkXa6IQwAAAAAAAAAAADAFErZItJON4QBAAAAAAAAAAAAmEIpW0Ta6YYwAAAAAAAAAAAAAFMoZYtIO90QBgAAAAAAAAAAAGAKpWwRaacbwgAAAAAAAAAAAABMoZQtIu10QxgAAAAAAAAAAACAKZSyRaSdbggDAAAAAAAAAAAAMIVStoi00w1hAAAAAAAAAAAAAKZQyhaRdrohDAAAAAAAAAAAAMAUStki0k43hAEAAAAAAAAAAACYQilbRNrphjAAAAAAAAAAAAAAUyhli0g73RAGAAAAAAAAAAAAYAqlbBFppxvCAAAAAAAAAAAAAEyhlC0i7XRDGAAAAAAAAAAAAIAplLJFpJ1uCAMAAAAAAAAAAAAwhVK2iLTTDWEAAAAAAAAAAAAAplDKFpF2uiEMAAAAAAAAAAAAwBRK2SLSTjeEAQAAAAAAAAAAAJhCKVtE2umGMAAAAAAAAAAAAABTKGWLSDvdEAYAAAAAAAAAAABgCqVsEWmnG8IAAAAAAAAAAAAATKGULSLtdEMYAAAAAAAAAAAAgCmUskWknW4IAwAAAAAAAAAAADCFUraItNMNYQAAAAAAAAAAAACmUMoWkXa6IQwAAAAAAAAAAADAFErZItJON4QBAAAAAAAAAABgdifftvNTJ07d8O9Ontq57uQlOx87sbV9d3Jya2cksmS5t39t3rj7et3a+dWf/ZXrf7p/Ke+XUraItNMNYQAAAAAAAAAAAJjs5Nt2fubExdtXnNza+XxfdhVZ2ZzY2r7/3Ov56jdsffz1/Ut8FkrZItJON4QBAAAAAAAAAACgLbMKn9ja3hmWWn/t2j8Y3XjbvaNb/+TM6BsPPrGbsy//aATLpLw2b//Tb+6+Xt/3O388euPbT5/3Wj5xavuOvOmgf8lPspyl7DNnzoyeeOKJ0TPPPDN68cUX+0OHzfXDH/5w9Oyzz46++93vjv7qr/6qOW7mnW4IAwAAAAAAAAAAwPled9mHXpuZhE9u7TyX4uq/uvT/9Z/+u+3PjT7/tYdHz//gbN98g9WTNw98+b5HRx+56c9G/+ad//1/2itnb23v5E0I/RBoWb5S9iOPPDJ6+eWX+0MDhn784x+PHnvsseb4mWe6IQwAAAAAAAAAAACvyKzBJ7a27y9l1cwu/N1//Ke+4QbrI28wuP7Tf/7KzNmndp76uVM3/Ot+KAwtVyk7hWxgNt/5znea42he6YYwAAAAAAAAAAAAdE6+beeCFFNTUP3lK24efePBJ/pGG6yvb//9M6N3XX1bKWb/8MSpG/5dPyRqy1PKPnPmjBmyYR9+8pOfjP76r/+6OZ7mkW4IAwAAAAAAAAAAwGtec3Jr5+ILtnbOppiagurTz/6gb7PB+jv78o9G/9325+pZs6/rh0axPKXs7373u/1uA7N6+umnm+NpHumGMAAAAAAAAAAAAJvu507d8K9LITvF1BRUYRPd+idn6mL2+/ohEstTyn722Wf73QVm9eKLLzbH0zzSDWEAAAAAAAAAAAA22cm37fzMyVM7T5VCNmy62//0m3vF7BOnbvilfqgsTyn77Nmz/a4Cs/rJT37SHE/zSDeEAQAAAAAAAAAA2FSvu+xDrz2xtX1/yqfvuvo2M2RD7/pP/3kpZj/3hq2Pv/7ccFmeUjZwMK3xNI90QxgAAAAAAAAAAIBNdfLUznUpnv7yFTePnn72B31rDYhf/+07SjH78+eGi1I2rLrWeJpHuiEMAAAAAAAAAADAJvrZX7n+p0+e2vlhSqcPf/t7fWMNKPJGhTe+/fRuMft/+a/e+X8/N2yUsmGVtcbTPNINYQAAAAAAAAAAADbRia3tnZRN3/c7f9y31ZjF9595bnT1NadHV773+tGZ+x/ub2Vd3fyHf7Fbyn7D//lj3zo3bJSyV8mNN3129PO/ePnoHe+8ZvTCCy/2t06WQf3Wi68aXfSWK0df/NJ9/a2si9Z4mke6IQwAAAAAAAAAAMCmecPWx1+fomlmAc5swMwunc30PJPf+/Sd/a3MKqX2j3zs5t1S+5ve/J69c5nPcz5n7c4uytmXfzS68PJP7Raz/8X/7OeUsldJXlTlBfbkU0/3t0521+fu2VvHAF8/rfE0j3RDGAAAAAAAAAAAgE1z4uLtq1My/a3T/6Fvqi1eirml+zgtmeh2WShlH9wdd959XhG7lUxSnOL2Mrn1T87slrJf98b/Ril7lShlM9QaT/NIN4QBAAAAAAAAAADYNCe3du5NyfTL9z3aN9UW75JLP7jXfZyWLLssVqmUnR5q9vG2278weumll/tbj8cj33r8vEL29Tfcsnsuky9+6b7zXg/v/8B2v9Zy+O4//tNuKfsNb/1/jP6zf/aff6cfRnOnlD1nStkMtcbTPNINYQAAAAAAAAAAADbJz/7K9T+dgukb3356dPblH/VNtcWrS7ilnDsuKfQui+zPqnQ269nIZ+2kHpVrP/zJvX1J73Uos2Nf9JYrd+9Pefu4S+RDl/7mrbvF7P/h//R/81Q/lOZOKXvOlLIZao2neaQbwgAAAAAAAAAAAGySk1s7v5py6a//9h19S+141KXsVaKUfTCXXX7d3r6MK1wfpEO7KDfedu9uKft/fsH/5Z/6oTR3StlzdtSl7LxbJBeEW269a3c6+gcfmv1PD2R/7v36A7uPN+t65fFeeOHF/pbutjz+HXfefd7ttLXG0zzSDWEAAAAAAAAAAAA2yclLdj6Wcumtf3Kmb6kdD6Xso7dMpey3XnzV3r6MK2WX10Rmyl4233jwid1S9n/5f/j1/18/lOZOKXvOjqqUnW1dfc3pveXq5IU+qWSd7Zcp4YfJgJ1UrC7LZb+y3Ps/sH3e+vmcyVrjaR7phjAAAAAAAAAAAACb5MSp7X+fcunnv/Zw31I7HgcpZafMm0lh00lMOXqaLJNlM4ntULb1la+e2b0//cprP/zJ3Y/TmZzUi5xWys66ebzcN6kHmsfP5LZZLpPdjnOQ/SzbrWen/sTpz+zeVvL9Z57rl361HGO2cf0Nt+wmH89yviep+6Nf/NJ9/a2vyPNa7s8xLptv//0zu6Xs//WbP/hSP5TmTil7zo6ilJ0B+Y53XrO3TAZZHqd+rJSrh7Je/S6J5N1XfHR3vbwLodyWbX/n8Sf7tc5Xlsl+1Y9XktuYrDWe5pFuCAMAAAAAAAAAALBJTmxt351yaWb+PU4HKWWnhFz6i5mQdpoyO3M983K6kTfe9Nmxk9UmWS/dzJZppexp9xfpiJblxnU4D7Kf9XYnpbVvKWqnJ9paPknnc1KZe5IUy8t28tzn+Iq6kJ3jPehjHKXnf3B2t5T9v33Lb/+4H0pzp5Q9Z3VxeV6l7PrFOnx3QS5QWaf1LpDcVtbLuw7qARAZ7OX+vPuipdxfLgr5N/ubi04GWOvdDpyvNZ7mkW4IAwAAAAAAAAAAsElObG0/lnLpd//xn/qW2vE4SCk76hmXJ83eXJej65mX625kOo3pbaZHmZmk65mlk9YM1osqZR90P9P1zLJJKaUnZVLekmF/M/tdup5JlsnjpStaP162edDSdLZZtpPtZkLg+rZMEjxrd/Y4vPHtp3eL2f1Qmjul7DmrX1zzKmWnMJ37MhBmlQFT3k2SgThO2XbSuviU+5IM1klT7NPWGk/zSDeEAQAAAAAAAAAA2CQplSZnX/5R31I7HgctZadMXNa7/oZb+ltfLfeV5e79+gP9raPRHXfevfvY6V4OJ6uNeiLcusxdLKqUfdj9jGy3LDOtk1qK1+l65hiGsj9lWymGH0T2oXRTk/rjPF+ZaHiZKWWvmKMoZZd3heTF2xqYLdlO2eaDDz3a3/pqua8slwE+VO5Lsp/sX2s8zSPdEAYAAAAAAAAAAGCTlFL2catL2ZMyLCynB1nKvJmsdlwvsswSvZ8JbYvM2Jx1s49Diyplz2LSfsaspeyvfPXM3nKZoXucMpFvzv9BZ8uuZzpPUgYf11PNTNo5h9mnWfuvR6mMnX4ozZ1S9pwdRSm7LljnxTzLQMi7Jso6k17I2VZZrvWOk3LfpNm2maw1nuaRbggDAAAAAAAAAACwSVatlJ1e5VDdcaxnwS7qYvRBZnUu5eNkaJlK2ZP2M2YtZZfu6rTJf+vZslPk3o88frqkZf2SvA7G7Vvdf521U3uUlLJXzFGUsjOd+/DilYE2aQbs8sLPAMs+TUrZZgrfQ+W+LMfBtMbTPNINYQAAAAAAAAAAADbJMpayU2Qel8yWPJQidlm3VWjOJLPl/kldyXHqMvNQ9qncd9yl7En7GfX9kzqpZVbxaRPw1sc2aUbtoTx2/XzfeNNnz+ufZsbvdF2HUqgvy7TuXzSl7BVTv8jmVcqOzGhdb7skA6h1wZn1HSh1WheFcp9S9sG1xtM80g1hAAAAAAAAAAAANskylrL3K7M5lyLxRW+58lWzO5f7UvadJP3J9C4z83Z6jiVl/da+HUcp+yD7GbOUsnPuyjL7yaRjq2X79XOdzmukZJ3np9x+2eXXvep5zDHmvjzHy0Ape8XU787IwJxF3m1Q1vnil+7rb23LNjPIMgN2Wae1XnmhZ8BmnVnSehdC2X4GBgfTGk/zSDeEAQAAAAAAAAAA2CTrUMqOum9ZdyDTZyy3jysOZ5m6EDwpQ9O2P8vjxyyl7MPsZ8xSyq73Yz/JbOWzqDuuec5qeez6dfD+D2zvFbPzb+m6Xn3N6d3bjptS9oqpX3x33Hl3f+tk9fTss06zn5mz6wtS3kVQl6rzwi73HUbZhlL2wbXG0zzSDWEAAAAAAAAAAAA2ybqUstOXLOtnBumi7ka2isgpE5eyb/5NcTnl5zqTOpS5v9x3lKXsw+5nzFLKTne0LHMUXc93X/HRve1/5/En+1tfMa6YnaJ9uW3WPu1RU8peMRlE5UU0a7M/U7aXdVqzVU9SD7j6XQv1Rak1CGZVtqGUfXCt8TSPdEMYAAAAAAAAAACATbIupewo20hpucyw/NaLr9q9LWXgltK5zDqPfOvx/tbz1d3KoWml67osnkl3x5lWyj7sfsYspewo5yyzcs9b/TyP24dhMTvHXvYp/5bn9rgpZa+YlKrLOxuSDN5J6pm1D1J8vutz9+ytX0/fn3cVlNsnXRSmKdtQyj641niaR7ohDAAAAAAAAAAAwCZZp1J2StFlG+lA1oXp1uzKKfeW+zMj8ziHKWVPK1sX9XaGy81jP6OeoDdl8XHKbNbpr37/mef6W+cjRe9Z9iHnrZ6kuCQ92WWhlL2C6qJ1Gv51Wbp2y6137RW4829rRuuUvFOqHjdI6gFZr58BXQZCtj1uHyLL5uLQeidC2bZS9sG1xtM80g1hAAAAAAAAAAAANsk6lbLTeyzbSHm5lJDTe0x/cihdyrJ8CsAtWa+UlJOhaaXsulA9bpbnzHx90Vuu3FtuWMqex35Geqbl/nu//kB/66vVyx1mIt+Waz/8yb1tTyqpR4rZpRdb0irXHxel7BVVD5Qkg+rqa07vDuBcOOp3DiStgR3lHRd5kebFnJmxc0HI4Mr2yvqtd1J85atn9u5PMjDyOFk/yce5rVwY8lhDZV2l7INrjad5pBvCAAAAAAAAAAAAbJJ1KmVHPctzStD5OP3Iceoy9HDm5vQgh/3MoWml7Kj7mcMicibJrfehtUwcdj8jndFy/6QZt1McL+cu53HS7NTplu6nKJ0CetmHJMX5VmE+2y37MEzOT2udRVPKXlF58dx402ebL646eQFOevdCBkp94WolF6RxL9Zse9yLvE6WMVP20WiNp3mkG8IAAAAAAAAAAABskmUsZU9LCsrj1LM8l6T4PE7dzcx283mZMLfcXheeh2YpZadEXZZJcqzpUdZF6zxuOQetUvZh9zPqsnWSCYKzH3nc4b4PJ/KtJxPO7NlZr8xinfX3I9uot51keyX1eUlyPlL8rm/Px5OK5YuglL3iMrV+Xox5Yac8ncGRF2DeKZB3IszS/M8yeXFmGxkkeXFmG3lxZhBNk/Vz0cqLPOtlUJULRAZaLl6tQnbkMbPccPAyu9Z4mke6IQwAAAAAAAAAAMAmWZZSdpnhetaM8/1nnjtvuZR3x3Uai/Qh63VK0o/M7NL1DNNDs5SyI93KUmKuk9tKaXxSKTsOs5/FuP1IL3QoZfJpz0u2dZBO6LBk3Uo6rnWvNR3a4f4cJ6VsWHGt8TSPdEMYAAAAAAAAAACATbIspewnn3p6t+A8S1IWniRF3hSFkyw/i2wzy2eC25SfU3DOPkUms819mTx3KIXv8liPfOvx/ta2lIpTfr72w5/ce4yUyIt8Pm2fD7qftexnliv7MW1S4OxP9jsTCGdi3qyX9e/9+gNTC++TZN3yXGU/ckxl/3OuxskxZx8ykfBxWppS9o9//ON+l4D9aI2neaQbwgAAAAAAAAAAAGySZSllw6pZmlL2888/3+8SMKuzZ882x9M80g1hAAAAAAAAAAAANolSNhzM0pSy/+Ef/qHfJWBWzz77bHM8zSPdEAYAAAAAAAAAAGCTKGXDwSxNKfuBBx4Y/eQnP+l3C5jFww8/3BxP80g3hAEAAAAAAAAAANgkStlwMEtTyk6eeOKJfreAab73ve81x9G80g1hAAAAAAAAAAAANolSNhzMUpWyk6eeeqrfNWCcp59+evSXf/mXzTE0r3RDGAAAAAAAAAAAgE2ilA0Hs3Sl7ORv/uZvRs8999zo5Zdf7ncT+PGPfzx6/vnnR4888khz3Mw73RAGAAAAAAAAAABgkyhlw8EsZSlbRI4/3RAGAAAAAAAAAABgkyhlw8EoZYtIM90QBgAAAAAAAAAAYJMoZcPBKGWLSDPdEAYAAAAAAAAAAGCTKGXDwShli0gz3RAGAAAAAAAAAABgkyhlw8EoZYtIM90QBgAAAAAAAAAAYJMoZcPBKGWLSDPdEAYAAAAAAAAAAGCTKGXDwShli0gz3RAGAAAAAAAAAABgkyhlw8EoZYtIM90QBgAAAAAAAAAAYJMoZcPBKGWLSDPdEAYAAAAAAAAAAGCTKGXDwShli0gz3RAGAAAAAAAAAABgkyhlw8EoZYtIM90QBgAAAAAAAAAAYJOsayn7kW89PnrwoUf7z2D+lLJFpJluCAMAAAAAAAAAALBJ1rGUfdnl141+/hcv381Fb7ly9MILL/b3wPwoZYtIM90QBgAAAAAAAAAAYJOsWyk7M2SXQnbJXZ+7p78X5kcpW0Sa6YYwAAAAAAAAAAAAm2TdStmfOP2Z3SL2m978nr1S9pXvvb6/F+ZHKVtEmumGMAAAAAAAAAAAAJtk3UrZb734qt0i9rUf/uRuGbsUs7//zHP9EjAfStki0kw3hAEAAAAAAAAAANgk61TKvvfrD+yVsL/4pftGd33unr3Pb7n1rn4pmA+lbBFpphvCAAAAAAAAAAAAbJJ1KmV/5GM37xaw3/Tm94xeeunl0QsvvLj7cW57xzuv6ZcaL+v83qfv3C1wZ90iZe/cfvU1p3fvO3P/w/09bfPczm23f+G87Xzn8SdHN9702d1ZwPPvk089vXv7UJb7ylfP7D1e/s3j5/aWPFYeJ8tN26/IMlk2+zdOlrnjzrtH199wy27y8SzbXhVK2SLSTDeEAQAAAAAAAAAA2CTrUspOqbgUsK/98Cf7W0e7heQyW/Yj33q8v7UtheGybD5OgfndV3x077Y6l11+3ej7zzzXr3m+o9pOStXlGEtSjK6lvJ3jr5cZJmXunK9aXWB/68VX9beOl2WybNYZyvGMO94khfJxx7xKlLJFpJluCAMAAAAAAAAAALBJ1qWUfdfn7tkr/aa8XHzxS/ft3Z4y8iR1CTozQF/0lit3P86/KRJntu1yf3LJpR9slouPYjuZZXpYyE7qUvaDDz26V5ZOyuNlBvHhY6Y0PSxmv/8D23v357HHqferLsBH7ivHm+Txs4859ymgl9uzn6tezFbKFpFmuiEMAAAAAAAAAADAJlmXUnYpFKcQXJeN6xm0p80AXZeNS1I6zizSRYrEKVGX+z9x+jP9Pa84iu2UY8jM32U7mYG7LjbXpefrb7ilv/UVTz719HmPmcJ4rS6wt9Yvcl9Zri7AR9mHPA/Z/6GUy8u6rWNeJUrZItJMN4QBAAAAAAAAAADYJOtQyk4xuRR9Myv0UArR5f5WUbgYlqnrWahrKTeXZVL0Hs44fVTbyazTw2WKr3z1zN5yKW6Pk8esS+qTCuzjHiv3lWVq9T4MC9+17F+WyWOt8mzZStki0kw3hAEAAAAAAAAAANgk61DKTgG4lIGHMzdHbiv3t0rbRV2CnlRsjhSky7LDxzyK7WTm6UkF5no7j3zr8f7WtlKKTlKkrtUF9ta5rPdpONN12YeUrccVuqOeLXv4+KtEKVtEmumGMAAAAAAAAAAAAJtkHUrZ777io7sF33GzO+e2lJqnFYbrwvG42a2Lugh+1+fu6W/tHMV2brzps/2tbeX43vHOa/pbxvvil+7b2+5wRutpBfbrb7hl7/4HH3q0v7VTZtDO8zFJfVyTZtRedkrZItJMN4QBAAAAAAAAAADYJKteyv7O40/uFXxTGB6nLhOnlNyynzJ1CtTjll30dl544cW95TJb9TT1doezXaewXsrVKXoPC+zlvmH5O8uVbe4n087PMlPKFpFmuiEMAAAAAAAAAADAJln1UnZmkC4F32s//Mndkm8rua8s9/4PbPdrn28/ZepJyy56O5mxuizXmt166Mmnnp64/LgC+6T9qbe5n2Rm7lWllC0izXRDGAAAAAAAAAAAgE2y6qXsSy79YLPsOylvevN7Rt9/5rl+C6/YT5k6ZeWy7B133t3f2ln0dupC9LjCea0ucafUPlTfnzJ7UZe185i1/c7WvQ6UskWkmW4IAwAAAAAAAAAAsElWuZRdl5ZTzk4ZeFLqAvdtt3+h38or9lOmzv1l2eFsz8exnbLcu6/4aH/LeJOK4EU5Vymwv/TSy7u3vfXiqyY+Rrn/He+8pr9lvSlli0gz3RAGAAAAAAAAAABgk6xyKbueuXlYaG7JMmX5VrG4LkF/5GM397e2Zf2y7Hcef7K/tXMU25lWyq4L561ZwGtXX3N6b9k8RktdFk+Ju96XcUXucizjZiJfN0rZItJMN4QBAAAAAAAAAADYJKtays7szRe95crdEnD+LbM5T5JlymzOyaQSdDKuCP3gQ4/uLXPZ5df1t77iKLYzrZT9idOf2Vv2xps+29/6ao986/G95VqPWeTclOXe/4HtvQJ8CtcvvPBiv9T5brn1rr11sj/rTilbRJrphjAAAAAAAAAAAACbZFVL2Zm9uRSAUxieVT279rDoPCxTJyk417M+P/nU0+cVu7/y1TP9Pa84iu1MK2Vn2ylMT1o+hexpj1mrZ74u62WW7XHq0nvWue32L/T3vFoee9yM26tCKVtEmumGMAAAAAAAAAAAAJtkVUvZKQeXcnHKy7OqZ6e+5NIP9rd26hJ0ZpEuHycpKA9vywzSLUexnWml7Ljrc/ect90Uo7Ptj3zs5lc95ixF9nrm65KU4SdJ2bpePo+b5yr7n9mzr3zv9Xvl8eH5XzVK2SLSTDeEAQAAAAAAAAAA2CSrWMrOjMyl2JuZmfcrZeBSGk5JuxiWoPP5RW+5cu+2OpNKzUe1nVnkeOrjGyb7MW2G7CKzbw/XzbmfJvtQZtkelzx/sx7TslLKFpFmuiEMAAAAAAAAAADAJlnVUvZtt39hr/C8X1kn6yZPPvV0f2u7BJ1ich4rsz1f++FP7n5cF7lb5rWdHGfZz0e+9Xh/63QvvPDi6N6vP7C7Xh6rzFSd/cp+7EcK3GUf9nuus3xm207xPDNkZ1+ynezbLOXuZaeULSLNdEMYAAAAAAAAAACATbKKpeyj0ipTH8S8tsNyU8oWkWa6IQwAAAAAAAAAAMAmUcp+hVI2+6GULSLNdEMYAAAAAAAAAACATaKU/QqlbPZDKVtEmumGMAAAAAAAAAAAAJtEKfsVStnsh1K2iDTTDWEAAAAAAAAAAAA2iVL2K5Sy2Q+lbBFpphvCAAAAAAAAAAAAbBKl7Fe89NLLo9tu/8JukfrJp57ub92/eW2H5aaULSLNdEMYAAAAAAAAAACATaKUDQejlC0izXRDGAAAAAAAAAAAgE2ilA0Ho5QtIs10QxgAAAAAAAAAAIBNopQNB6OULSLNdEMYAAAAAAAAAACATaKUDQejlC0izXRDGAAAAAAAAAAAgE2ilA0Ho5QtIs10QxgAAAAAAAAAAIBNopQNB6OULSLNdEMYAAAAAAAAAACATaKUDQejlC0izXRDGAAAAAAAAAAAgE2ilA0Ho5QtIs10QxgAAAAAAAAAAIBNopQNB6OULSLNdEMYAAAAAAAAAACATaKUDQejlC0izXRDGAAAAAAAAAAAgE2ilA0Ho5QtIs10QxgAAAAAAAAAAIBNopQNB6OULSLNdEMYAAAAAAAAAACATbJKpexHvvX46Mz9D+/mhRde7G9lnl566eXRLbfeNfq9T9+5e74ZTylbRJrphjAAAAAAAAAAAACbZJlL2Slef+RjN4/efcVHRz//i5e/Khe95crR+z+wPXrwoUf7NTisL37pvr3ze+V7r+9vpUUpW0Sa6YYwAAAAAAAAAAAAm2RZS9kpWl9y6QfPK2FPSmZ2XjVPPvX07n7fdvsXdmeoPkqzPtZdn7tn75wqZU+mlC0izXRDGAAAAAAAAAAAgE2yjKXsO+68+7zCdcrBKQufuf/h3UJx/r3l1rtGV19z+lXLrZLMAl72PaXpozTrY2V28pS3r7/hltEj33q8v5UWpWwRaaYbwgAAAAAAAAAAAGySZStlf/+Z50ZvevN79grEKRNPMixwf+WrZ/p7lt8ylrKZnVK2iDTTDWEAAAAAAAAAAAA2ybKVsj9x+jN75eFpheyiLmZfdvl1/a3LTyl7tSlli0gz3RAGAAAAAAAAAABgkyxTKbueJTv/5vNZvfXiq/ZKx63Zsl944cXRbbd/YfR7n75zYin5pZde3i15Z7lHvvV4f+t433n8yd3Hy/JXX3N69997v/7A7u3jlO2nQF72OWX03FbSOvbsW/1Y1374k7sf3/W5e3aPr2W/j5XHmOU8FQc5/iiPc8utd52372fuf3h3Gzm23JfPl5VStog00w1hAAAAAAAAAAAANskylbJTxi3F4etvuKW/dTYp8E5aN+Xecn8eZ5wUkctyk2bqTpE4xeGybCs33vTZ3fJxrd7+pNT7mG1kWxe95crmsklK6Sln1w7yWLOep4Mef1E/Tj5OMfzdV3z0vPVL8jjjtnOclLJFpJluCAMAAAAAAAAAALBJlqmUnRJ0KeJmtuX9yMzMZd33f2C7v/UV8yxlP/jQo+fNzJ2y9JXvvX53+Xe885q925MUjetCcT7Oskm9jSxXbk+++KX7+jVGuzNKl+XKY+UYMuN1PQN2Us/ufZDHmuU8Heb4i/pxcnyXXPrB89YZbmdSQf64KGWLSDPdEAYAAAAAAAAAAGCTLFMpO8XeUsJNOXo/MnNzWTcF36F5lrLrInRrVu5soy4Zp3Tcku2XZSYd7x133r27vcyE3So417OEZ1bpllkfa5bzNI/jrx+nJNvKjNlFlimzg7/pze85775loJQtIs10QxgAAAAAAAAAAIBNskyl7Hr25Vb5eJqybjI0r1L2V756Zu/+q6853d/6atlOisRZLsfVOp5Zi9KzKDNLtwrpMa9S9ryOf1jKbp3ruPGmz+4tk3L6MlHKFpFmuiEMAAAAAAAAAADAJlmmUnZd0j2IenbmYfF4XqXsejbvR771eH9rW0rLZdmUmYfmWcquH6tlXqXseR1//TiTyt31ciloLxOlbBFpphvCAAAAAAAAAAAAbJKTp3aeSrH0u//4T33V9PiUmZWTg6jXnzQz82FK2Re95crd+zIz9TRf/NJ9e9u67fYv9Le+Yp6l7HpbLfMqZc/r+Of1fBynCy//lFK2iLw63RAGAAAAAAAAAABgk5zc2rk3xdJv/t2TfdX0+KToWwq4+y0pv/DCi3vrJkPzKAHXj5EZo6epH/MTpz/T3/qKg5SyH3zo0d39v/bDn9zdh5K3XnzV3rZa5lHKnufxr0MpO+PmDW/92E/6oTR3StkiK5puCAMAAAAAAAAAALBJTpzaviPl0i/f92hfNT0+KfqWAm7Kx/tRl3dbszjPowScfRp3X8u0QvGsRenI/tel9UlpmfWxJp2neR7/qpeyM7N8xs3rL7rm5X4ozZ1StsiKphvCAAAAAAAAAAAAbJITW9s7KZfe/qff7Oumx6cuDt92+xf6W2eT5cu6mUV6aB4l4Pq+939gu791vLrEfONNn+1vfUV9vJOK0vd+/YHRm978nt3l8m/Wy/HUyf6UbbXM+liTztM8j3/S49QmPR/H6RsPPrFbyv6Xb/q//bAfSnOnlC2youmGMAAAAAAAAAAAAJvkxMXbV6dc+lun/0NfNz0+t9x6114B97LLr+tvnU2WL+vecefd/a2vqAvCnzj9mf7WV5tWAi73vfuKj/a3jPfFL923t3xrn2YtSpdjSyH7kW893t96vnpbLfMoZUe577DHv+ql7LyJIePmf/G/e8fz/VCaO6VskRVNN4QBAAAAAAAAAADYJG/Y+vjrUy698PJP9XXT4/P9Z57bmxE6GVdAHqoLvhe95crRSy+93N/zilnLvfW2WstdcukH9+7P/k5y9TWn95bNdoeuv+GWvftTGm/JsZRlJs1OPa2UPctjxbSy9LyOf9rjFMtayv61a/9gt5T9P/5f/fzT/VCaO6VskRVNN4QBAAAAAAAAAADYNCe2th9LwfSbf/dkXzk9PpnFupRwUwCeVsy+9+sP7BaxyzrjCr51ufmtF1/VLG7nsepttUrA9f7deNNn+1tfLdsqy42b9bueGTzH0ZLi87TtvPDCi7szV5flWmZ5rJhWlp7X8a9yKfv5H5wdvfHtp3dL2f/sf/DPH++H0dwpZYusaLohDAAAAAAAAAAAwKY5sbW9k4Lpjbfd29dOj89wtuyUpL/y1TO75dxaZnu+7fYvnLfsle+9vr+3rZ65eVjw/eKX7juvkN1aJob71yoUp5Cc4ndZJvvfctfn7tlbZtIs2PV+DWe5znl5xzuv2bs/aZn1saaVped1/Ktcyv781x7eLWT/l7/4f033Mt3pI6GULbKi6YYwAAAAAAAAAAAAm+bkJTtvSsn0wss/NTr78o/66unxSal3WDROUk5O8Xp4e0nWGZaWa7mvXj4zcWd7dek5sz/n9nw8rgRcF5yTlJRTdM7ymRW6vu/6G27p13q1zNZdl5ezbvYnj18XlbNPZZnsaz7P/XnMcnt9vlpmfaxZytLzOP5VLmVf+pu37pay/yf/8t8qZYvIq9MNYQAAAAAAAAAAADbRia3t+1M0vfVP2rM6L1pKxHUZeVxSRq7LySkI33LrXbvrt2RG7Hqm53q93BfTStmRgndZrpWUp8fNkF0btz85hlr2ZbhMknVTkq6L0uPM8lizlqUPe/yrWsr+8n2P7hayT7zt//nMf/bP/nOlbBF5dbohDAAAAAAAAAAAwCY6+badC1I2fePbT4+efvYHfQX1+KVcnQLvbbd/YXfW5czu/InTn9kt8tazYue2Ut5NMit0isot33n8yd0i8rUf/uRu0TfLff+Z5/p7u5mgs/087iQvvPDi6N6vP7C7bLZ19TWn99artzdNZgYv28j+5Fiz7aEcb5Yrs1JnP1Najiyf+7LuJNMeK+c79ydZdpLDHP9+Hif7WLZ7nDKLfJkl+1/+4pX/73PDRilbRF6dbggDAAAAAAAAAACwqU6c2r4jhdP3/c4f9zXU1ZKCcMrYdTk7ZWGYh5v/8C+6WbK3th/7Z//8f3TRuSGjlC0ir043hAEAAAAAAAAAANhUb9j6+OtPntr5YYqnn7i1Pcv0siszMF/0lit3S9mZWRsO654zj+0WsndL2adu+KVzw+VN56KULSKvTjeEAQAAAAAAAAAA2GQnt3YuLuXTz3/t4b6SunpeeOHF0R133r07ezYcxrf//pnRv3nnf/+fdsfFJTsf64eKUraItNMNYQAAAAAAAAAAADbdiYu3r04B9Y1vP707QzBsqhSyf/mKm/sZsrfv6IdIKGWLSDvdEAYAAAAAAAAAAIDXvObEqe1/X2bMvvVPzvQVVdgc33jwib0Zsk9sbd9/8m07P9UPj1DKFpF2uiEMAAAAAAAAAAAAnRNb2zulmP2Rm/5sdPblH/V1VVhvN//hX+y+7ncL2ae27xgUskMpW0Ta6YYwAAAAAAAAAAAAvOLk1s6vXrC1czbl1Asv/9To9j/9Zl9bhfVzz5nHRpf+5q17heyTl+x8rB8KQ0rZItJON4QBAAAAAAAAAADgfCcv2XnTia3t+0tR9eLf+P3R57/28Oj5H5ztq6yw2r5836OjX7v2D14pY5/aeercvxf3Q6BFKVtE2umGMAAAAAAAAAAAALSd3Nr51RNb24/tFVfP5dd/+47RrX9yZvSNB58YnX35R33FFZZbXq9/9OWHRu/7nT8evfHtp/dez+de38+ePLXzvtdd9qHX9i/7cZSyRaSdbggDAAAAAAAAwP+/nfsHySzN8jg+oaGhoaEszIwwiaGwsBgsrDOwYCjLBoaGFZoVLOwYCptUaGhoaFihoaGbuVl1sPAOLD5n773nOtpVx3qq6193eT8f+GLvMNPl+9CHTn77AgA8bxyr/mH/r0d//Mvp5cOQ9f3+8d/+q/zPpV+z8Rveq/98bPwm+OGf61d//JfT9fkf9R6jbEl1ecIAAAAAAAAAAADwacYB6x/+/J8Hf/zL6fkf/vLXq/e/RVv6Tfbn07vpn9c///Vi/H8w+Id//Y+N+R/pX8IoW1JdnjAAAAAAAAAAAAAAHUbZkuryhAEAAAAAAAAAAADoMMqWVJcnDAAAAAAAAAAAAECHUbakujxhAAAAAAAAAAAAADqMsiXV5QkDAAAAAAAAAAAA0GGULakuTxgAAAAAAAAAAACADqNsSXV5wgAAAAAAAAAAAAB0GGVLqssTBgAAAAAAAAAAAKDDKFtSXZ4wAAAAAAAAAAAAAB1G2ZLq8oQBAAAAAAAAAAAA6DDKllSXJwwAAAAAAAAAAABAh1G2pLo8YQAAAAAAAAAAAAA6jLIl1eUJAwAAAAAAAAAAANBhlC2pLk8YAAAAAAAAAAAAgA6jbEl1ecIAAAAAAAAAAAAAdBhlS6rLEwYAAAAAAAAAAACgwyhbUl2eMAAAAAAAAAAAAAAdRtmS6vKEAQAAAAAAAAAAAOgwypZUlycMAAAAAAAAAAAAQIdRtqS6PGEAAAAAAAAAAAAAOoyyJdXlCQMAAAAAAAAAAADQYZQtqS5PGAAAAAAAAAAAAIAOo2xJdXnCAAAAAAAAAAAAAHQYZUuqyxMGAAAAAAAAAAAAoMMoW1JdnjAAAAAAAAAAAAAAHUbZkuryhAEAAAAAAAAAAADoMMqWVJcnDAAAAAAAAAAAAECHUbakujxhAAAAAAAAAAAAADqMsiXV5QkDAAAAAAAAAAAA0GGULakuTxgAAAAAAAAAAACADqNsSXV5wgAAAAAAAAAAAAB0GGVLqssTBgAAAAAAAAAAAKDDKFtSXZ4wAAAAAAAAAAAAAB1G2ZLq8oQBAAAAAAAAAAAA6DDKllSXJwwAAAAAAAAAAABAh1G2pLo8YQAAAAAAAAAAAAA6jLIl1eUJAwAAAAAAAAAAANBhlC2pLk+YX0NE7A7tD5201k6Hrp7pzfjfGTqc/zdr898CAAAAAAAAAAAA+H6MsiXV5QnzrUXE+tB+a+1s6Gb46y8y/D3u5rH2ONTemP8YAAAAAAAAAAAA4NsxypZUlyfMt9JaOxi6nJbU77u6ijg/jzg5idjbi9jdfb7xv3N2lv+bd+/mv8Gjceg9dDT85fr8RwMAAAAAAAAAAABfl1G2pLo8Yb6miNhorb0eupsW0w/evo14/TpiZyeGh/+ytrYijo8jLi8jVqv5D5jG2auh8Ru0N+dfBwAAAAAAAAAAAPg6jLIl1eUJ8zVExNrQq7i//2kcSE9ubiKOjiLW1+tx9dfq4CAH2rN2f/+3cRg+/KVvzgYAAAAAAAAAAICvwyhbUl2eMF8qIvZba7fTInp0cZHfZv0wmv5ebW5GnJ3Nv8T0zdl3Q0fzrwkAAAAAAAAAAAB8PqNsSXV5wnyuiNhurV3lBHpwfR2xu1sPpr9n29sRV4+/1vA7Dr9YjP8yAAAAAAAAAAAAAD6PUbakujxhfqmIWGutPX4l9d1dxNFRPZD+Ndvfj7h9/ALv4Xe+GH5szB8DAAAAAAAAAAAA+HRG2ZLq8oT5JSJivbX2dlo5j16/Hv6T9XoU/VtobS3i1auI1Wr6dYfffVxpb80fBwAAAAAAAAAAAPg0RtmS6vKE+VQRsdFau57WzeM3UG9t1UPo32IbGxFvc0s+fIZ3w4/t+WMBAAAAAAAAAAAAfUbZkuryhPkUEbE5f8t0xPV1jpwfBs8/SuO3Zl9cTB9h+Cyrob354wEAAAAAAAAAAAAfZ5QtqS5PmJ6I2I77+5+mNfPVVcT6ej16/lE6O5s+Sru//9vw43D+mAAAAAAAAAAAAMDzjLIl1eUJ8zERsfv3Qfb4LdPjt00/jJt/5E5Opo80aq0dzx8XAAAAAAAAAAAAqBllS6rLE+Y5rbWd+dukI968qcfNP3KHh9NHGxlmAwAAAAAAAAAAwEcZZUuqyxOmEhHr7f7+v6fF8uvX9aj5JbS3N33EcXw+jtDnjw8AAAAAAAAAAAD8nFG2pLo8YSqttatprXw1/Hg6Yn6JnZxMH3X4zLfDj435CQAAAAAAAAAAAIBHRtmS6vKEeV9r7fW0Ur69jVhfr4fML61xfD4Yx+jzMwAAAAAAAAAAAACPjLIl1eUJ81RE7E/r5NUqYmenHjC/xMbx+ThCH4yj9Pk5AAAAAAAAAAAAgGSULakuT5gHEbEV9/c/Tcvko6N6vPyS29mJtlq16fNH7M/PAgAAAAAAAAAAABhlS3quPGFGEbHWWruZ5shv3tSj5SV0fDw9wTxO35ifBwAAAAAAAAAAAJbOKFtSXZ4wo9ZarpGvryPW1urB8lI6P5+eYniT0/l5AAAAAAAAAAAAYOmMsiXV5QkT+S3Zd9MSeX+/Hiovqe3t6SmGN1kNP3xbNgAAAAAAAAAAABhlS3quPGF+9i3ZT8fJS+7iYnoS35YNAAAAAAAAAAAAE6NsSXV5wssWviW7zrdlAwAAAAAAAAAAwFNG2ZLq8oSXzbdkfyTflg0AAAAAAAAAAAAPjLIl1eUJL1f4luyP59uyAQAAAAAAAAAA4IFRtqS6POHl8i3Zn5BvywYAAAAAAAAAAICRUbakujzh5Wqt3U6LY9+S/Xw//7bs9fnpAAAAAAAAAAAAYGmMsiXV5QkvU2ttZ1ob393VY2Q9dnU1PdXgcH4+AAAAAAAAAAAAWBqjbEl1ecLL1Fp7Pc2Mz87qIbIeOzqanmp4s8v5+QAAAAAAAAAAAGBpjLIl1eUJL1Nr7XZaGu/u1kNkPbaxMT3V8Gar4cf6/IQAAAAAAAAAAACwJEbZkuryhJcnIranlfHdXT1C1oddXk5PNjicnxEAAAAAAAAAAACWxChbUl2e8PK01o6mefGbN/UAWR92fDw92fB2Z/MzAgAAAAAAAAAAwJIYZUuqyxNentbam2lhfHRUD5D1YTs705MNb3c9PyMAAAAAAAAAAAAsiVG2pLo84eVprd1OC+Pt7XqArA9bW4tYraZnG6zPTwkAAAAAAAAAAABLYZQtqS5PeFkiYmOaFb97V4+P9XxXV9PTtdb25ucEAAAAAAAAAACApTDKllSXJ7wsrbWdaVk8DoyfDo7V7/R0errhDY/n5wQAAAAAAAAAAIClMMqWVJcnvCwRcTgti8/O6uGxnu/oaHq61trp/JwAAAAAAAAAAACwFEbZkuryhJeltfZ6Wha/elUPj/V8e3vT0w1veDk/JwAAAAAAAAAAACyFUbakujzhZWmtnU/L4v39enis59vcnJ5ueMOb+TkBAAAAAAAAAABgKYyyJdXlCS9La+1qWhbv7tbDYz3f4yj7m/0LBQAAAAAAAAAAAH6jjLIl1eUJL8vfR9lbW/XwWM+3tjY93fCGq/k5AQAAAAAAAAAAYCmMsiXV5Qkvy/gtz9OyePzW56eDY31as/k5AQAAAAAAAAAAYCmMsiXV5Qkvi1H2FzabnxMAAAAAAAAAAACWwihbUl2e8LK01u6mVbFR9uc1m58TAAAAAAAAAAAAlsIoW1JdnvCy+KbsL2w2PycAAAAAAAAAAAAshVG2pLo84WVprV1Pq2Kj7M9rNj8nAAAAAAAAAAAALIVRtqS6POFlaa1dTavi3d0PB8f6eOOQfTB+2/j8nAAAAAAAAAAAALAURtmS6vKEl6W1djkti/f26uGxns8oGwAAAAAAAAAAgOUyypZUlye8LK2102lZfHRUD4/1fDs709ON3zY+PycAAAAAAAAAAAAshVG2pLo84WVprR1Py+LT03p4rOc7PJyebnjDs/k5AQAAAAAAAAAAYCmMsiXV5QkvS2ttb1oWX1zUw2M93+vX09MNXs3PCQAAAAAAAAAAAEthlC2pLk94WSJia5oV39zUw2M93/n59HSD/fk5AQAAAAAAAAAAYCmMsiXV5QkvT2vt3TQtXl+vx8equ72dnm2wOT8lAAAAAAAAAAAALIVRtqS6POHlaa1dTtPi/f16fKwP29ycnmx4u7v5GQEAAAAAAAAAAGBJjLIl1eUJL09EnEwL49PTeoCsDzs8nJ6stXYxPyMAAAAAAAAAAAAsiVG2pLo84eWJiN1pYXxzUw+Q9WFv3kxP1lo7np8RAAAAAAAAAAAAlsQoW1JdnvDyRMRa3N//NK2Mt7bqEbIeW1uLWK2m5xpszc8IAAAAAAAAAAAAS2KULakuT3iZWmv51c8nJ/UQWY8dHExPNbzZzfx8AAAAAAAAAAAAsDRG2ZLq8oSXqbW2Ny2Nb27qIbIeOz+fnmpwMj8fAAAAAAAAAAAALI1RtqS6POFlioi1uL//aZoab2/XY2QNr7QWsVpNzzTYmp8PAAAAAAAAAAAAlsYoW1JdnvBytdZOp6nxxUU9SFbE8fH0RMNbXc/PBgAAAAAAAAAAAEtklC2pLk94uSJio7WWXwPt27I/bG0t2t1dm94nYn9+NgAAAAAAAAAAAFgio2xJdXnCy+bbsj+Sb8kGAAAAAAAAAACAB0bZkuryhJctfFt2nW/JBgAAAAAAAAAAgKeMsiXV5Qnj27KLfEs2AAAAAAAAAAAAPGWULakuT5jwbdk/z7dkAwAAAAAAAAAAwPuMsiXV5Qkz8m3ZT3r1anoK35INAAAAAAAAAAAAf2eULakuT5hRPP227MPDeqy8hHZ2oq1W07dkD++xNz8PAAAAAAAAAAAALJ1RtqS6PGEetNYOplH2ahWxtVWPll9y6+sRt7fTE4zfHD4/CwAAAAAAAAAAAGCULem58oR5ahwjT6vkcZw8jpSfjpZfehcX00cf3uBq+LE2PwkAAAAAAAAAAABglC3pufKEeWocI7fW3k7r5HGk/DBYfukdH08fefjsd8OPjfk5AAAAAAAAAAAAgGSULakuT5j3jaPkdn//P9NKeRwrPwyXX2q7u9NHnY3/0gAAAAAAAAAAAAB+zihbUl2eMJVxnJwb5cE4Wn4YML+0Njej3d21+ZO+mj8+AAAAAAAAAAAA8HNG2ZLq8oR5TmvteFwqt3fv2oscZm9tRdzeTmvs4bNezB8bAAAAAAAAAAAA+JBRtqS6PGE+prV2No2WV6sWBwf1uPlHbGcnx+Y5yH47/FifPzIAAAAAAAAAAADwIaNsSXV5wvRExKtxvDw5Pq5Hzj9S+/s5Mh+01i6HH2vzRwUAAAAAAAAAAABqRtmS6vKE+RQRcTiOmCenp/XY+Ufo6Gj+ENMg+8388QAAAAAAAAAAAICPM8qWVJcnzKdqre21+/u/TYvm8/OItbV6+PxbbRyTPzqZPxYAAAAAAAAAAADQZ5QtqS5PmF8iIrbj/v6nadZ8fR2xu1sPoH9LbW9HXF1Nv/LscP44AAAAAAAAAAAAwKcxypZUlyfMLxURm621m9w3Dy4uIjY26kH0r9n6esTZ2fxLRgy/87vhx/78MQAAAAAAAAAAAIBPZ5QtqS5PmM/VWjueh87RVqsWJycRa2v1QPp7d3wc7d27Nv5uo+H3PB1+rM+/OgAAAAAAAAAAAPDLGGVLqssT5kuMQ+d58Jzu7iIODuqh9Pdoby/i5vFLvIff7XL4sTX/ugAAAAAAAAAAAMDnMcqWVJcnzNcQEduttatpCT26vY149Spic7MeT3/N1tcjjo7eH2PfDO3Nvx4AAAAAAAAAAADwZYyyJdXlCfM1RcT+OIjOafTs7dscaG9v16Pqz2kce49D7IuLaKtVm/+kcYx9N3Q8/zoAAAAAAAAAAADA12GULakuT5hvobW2M/RmaDXvpdPdXcT5ecTJScTe3qcNtccB9u5u/m/OzvJbuN8z/DmXQwfzHw8AAAAAAAAAAAB8XUbZkuryhPmWImJ9HEvPA+27nFB/ueHv9W7oYuho+D835z8OAAAAAAAAAAAA+DaMsiXV5QnzPUXEVmvtYPh5Mo+q344j648Z/jvXQ5fDX54MHQ5/vTP/7QAAAAAAAAAAAIDvwyhbUl2eMAAAAAAAAAAAAAAdRtmS6vKEAQAAAAAAAAAAAOgwypZUlycMAAAAAAAAAAAAQIdRtqS6PGEAAAAAAAAAAAAAOoyyJdXlCQMAAAAAAAAAAADQYZQtqS5PGAAAAAAAAAAAAIAOo2xJdXnCAAAAAAAAAAAAAHQYZUuqyxMGAAAAAAAAAAAAoMMoW1JdnjAAAAAAAAAAAAAAHUbZkuryhAEAAAAAAAAAAADoMMqWVJcnDAAAAAAAAAAAAECHUbakujxhAAAAAAAAAAAAADqMsiXV5QkDAAAAAAAAAAAA0GGULakuTxgAAAAAAAAAAACADqNsSXV5wgAAAAAAAAAAAAB0GGVLqssTBgAAAAAAAAAAAKDDKFtSXZ4wAAAAAAAAAAAAAB1G2ZLq8oQBAAAAAAAAAAAA6DDKllSXJwwAAAAAAAAAAABAh1G2pLo8YQAAAAAAAAAAAAA6jLIl1eUJAwAAAAAAAAAAANBhlC2pLk8YAAAAAAAAAAAAgA6jbEl1ecIAAAAAAAAAAAAAdBhlS6rLEwYAAAAAAAAAAACgwyhbUl2eMAAAAAAAAAAAAAAdRtmS6vKEAQAAAAAAAAAAAOgwypZUlycMAAAAAAAAAAAAQIdRtqS6PGEAAAAAAAAAAAAAOoyyJdXlCQMAAAAAAAAAAADQYZQtqS5PGAAAAAAAAAAAAIAOo2xJdXnCAAAAAAAAAAAAAHQYZUuqyxMGAAAAAAAAAAAAoMMoW1JdnjAAAAAAAAAAAAAAHUbZkuryhAEAAAAAAAAAAADoMMqWVJcnDAAAAAAAAAAAAECHUbakujxhAAAAAAAAAAAAADqMsiXV5QkDAAAAAAAAAAAA0GGULakuTxgAAAAAAAAAAACADqNsSXV5wgAAAAAAAAAAAAB0GGVLqssTBgAAAAAAAAAAAKDDKFtSXZ4wAAAAAAAAAAAAAB1G2ZLq8oQBAAAAAAAAAAAA6DDKllSXJwwAAAAAAAAAAABAh1G2pLo8YQAAAAAAAAAAAAA6jLIl1eUJAwAAAAAAAAAAANBhlC2pLk8YAAAAAAAAAAAAgA6jbEl1ecIAAAAAAAAAAAAAdBhlS6rLEwYAAAAAAAAAAACgwyhbUl2eMAAAAAAAAAAAAAAdRtmS6vKEAQAAAAAAAAAAAOgwypZUlycMAAAAAAAAAAAAQIdRtqS6PGEAAAAAAAAAAAAAOoyyJdXlCQMAAAAAAAAAAADQYZQtqS5PGAAAAAAAAAAAAIAOo2xJdXnCAAAAAAAAAAAAAHQYZUuqyxMGAAAAAAAAAAAAoMMoW1JdnjAAAAAAAAAAAAAAHUbZkuryhAEAAAAAAAAAAADoMMqWVJcnDAAAAAAAAAAAAECHUbakujxhAAAAAAAAAAAAADqMsiXV5QkDAAAAAAAAAAAA0GGULakuTxgAAAAAAAAAAACADqNsSXV5wgAAAAAAAAAAAAB0GGVLqssTBgAAAAAAAAAAAKDDKFtSXZ4wAAAAAAAAAAAAAB1G2ZLq8oQBAAAAAAAAAAAA6DDKllSXJwwAAAAAAAAAAABAh1G2pLo8YQAAAAAAAAAAAAA6jLIl1eUJAwAAAAAAAAAAANBhlC2pLk8YAAAAAAAAAAAAgA6jbEl1ecIAAAAAAAAAAAAAdBhlS6rLEwYAAAAAAAAAAACgwyhbUl2eMAAAAAAAAAAAAAAd33yU/b9D8fvf/z7+9Kc/SfqBGm73SpIkSZIkSZIkSZIkSZIkSd2uh8bt5bid/ib+b2j8AyRJkiRJkiRJkiRJkiRJkiTpJTdup7+Jfx86HvqnofFruSVJkiRJkiRJkiRJkiRJkiTpJfXPQ+NmetxOAwAAAAAAAAAAAADw6/nd7/4fi+Qf87V0ZNEAAAAASUVORK5CYII=;" vertex="1" parent="1">
          <mxGeometry x="-70" y="-840" width="1423.87" height="740" as="geometry" />
        </mxCell>
        <mxCell id="NeaglDlFWtQ8QKgBVWSo-36" value="Public" style="text;html=1;strokeColor=none;fillColor=none;align=center;verticalAlign=middle;whiteSpace=wrap;rounded=0;fontSize=22;" vertex="1" parent="1">
          <mxGeometry x="-190" y="-1460" width="130" height="30" as="geometry" />
        </mxCell>
        <mxCell id="NeaglDlFWtQ8QKgBVWSo-37" value="Call Centre&lt;span style=&quot;color: rgba(0, 0, 0, 0); font-family: monospace; font-size: 0px; text-align: start;&quot;&gt;%3CmxGraphModel%3E%3Croot%3E%3CmxCell%20id%3D%220%22%2F%3E%3CmxCell%20id%3D%221%22%20parent%3D%220%22%2F%3E%3CmxCell%20id%3D%222%22%20value%3D%22Public%22%20style%3D%22text%3Bhtml%3D1%3BstrokeColor%3Dnone%3BfillColor%3Dnone%3Balign%3Dcenter%3BverticalAlign%3Dmiddle%3BwhiteSpace%3Dwrap%3Brounded%3D0%3BfontSize%3D22%3B%22%20vertex%3D%221%22%20parent%3D%221%22%3E%3CmxGeometry%20x%3D%22-190%22%20y%3D%22-1460%22%20width%3D%22130%22%20height%3D%2230%22%20as%3D%22geometry%22%2F%3E%3C%2FmxCell%3E%3C%2Froot%3E%3C%2FmxGraphModel%3E&lt;/span&gt;" style="text;html=1;strokeColor=none;fillColor=none;align=center;verticalAlign=middle;whiteSpace=wrap;rounded=0;fontSize=22;" vertex="1" parent="1">
          <mxGeometry x="-180" y="-1280" width="130" height="30" as="geometry" />
        </mxCell>
        <mxCell id="NeaglDlFWtQ8QKgBVWSo-38" value="TO" style="text;html=1;strokeColor=none;fillColor=none;align=center;verticalAlign=middle;whiteSpace=wrap;rounded=0;fontSize=22;" vertex="1" parent="1">
          <mxGeometry x="-190" y="-1130" width="130" height="30" as="geometry" />
        </mxCell>
        <mxCell id="NeaglDlFWtQ8QKgBVWSo-39" value="Manager" style="text;html=1;strokeColor=none;fillColor=none;align=center;verticalAlign=middle;whiteSpace=wrap;rounded=0;fontSize=22;" vertex="1" parent="1">
          <mxGeometry x="-190" y="-960" width="130" height="30" as="geometry" />
        </mxCell>
        <mxCell id="NeaglDlFWtQ8QKgBVWSo-40" value="SP" style="text;html=1;strokeColor=none;fillColor=none;align=center;verticalAlign=middle;whiteSpace=wrap;rounded=0;fontSize=22;" vertex="1" parent="1">
          <mxGeometry x="-190" y="-760" width="130" height="30" as="geometry" />
        </mxCell>
        <mxCell id="NeaglDlFWtQ8QKgBVWSo-41" value="User" style="text;html=1;strokeColor=none;fillColor=none;align=center;verticalAlign=middle;whiteSpace=wrap;rounded=0;fontSize=22;" vertex="1" parent="1">
          <mxGeometry x="-190" y="-580" width="130" height="30" as="geometry" />
        </mxCell>
        <mxCell id="NeaglDlFWtQ8QKgBVWSo-46" value="" style="edgeStyle=orthogonalEdgeStyle;rounded=0;orthogonalLoop=1;jettySize=auto;html=1;fontSize=22;entryX=0;entryY=0.5;entryDx=0;entryDy=0;" edge="1" parent="1" source="NeaglDlFWtQ8QKgBVWSo-42" target="NeaglDlFWtQ8QKgBVWSo-43">
          <mxGeometry relative="1" as="geometry">
            <mxPoint x="370" y="-1445" as="targetPoint" />
          </mxGeometry>
        </mxCell>
        <mxCell id="NeaglDlFWtQ8QKgBVWSo-42" value="Submit Request" style="rounded=1;whiteSpace=wrap;html=1;fontSize=22;" vertex="1" parent="1">
          <mxGeometry x="30" y="-1475" width="120" height="60" as="geometry" />
        </mxCell>
        <mxCell id="NeaglDlFWtQ8QKgBVWSo-49" value="" style="edgeStyle=orthogonalEdgeStyle;rounded=0;orthogonalLoop=1;jettySize=auto;html=1;fontSize=22;" edge="1" parent="1" source="NeaglDlFWtQ8QKgBVWSo-43" target="NeaglDlFWtQ8QKgBVWSo-48">
          <mxGeometry relative="1" as="geometry" />
        </mxCell>
        <mxCell id="NeaglDlFWtQ8QKgBVWSo-43" value="Record Request" style="rounded=1;whiteSpace=wrap;html=1;fontSize=22;" vertex="1" parent="1">
          <mxGeometry x="200" y="-1295" width="120" height="60" as="geometry" />
        </mxCell>
        <mxCell id="NeaglDlFWtQ8QKgBVWSo-52" value="" style="edgeStyle=orthogonalEdgeStyle;rounded=0;orthogonalLoop=1;jettySize=auto;html=1;fontSize=22;" edge="1" parent="1" source="NeaglDlFWtQ8QKgBVWSo-48" target="NeaglDlFWtQ8QKgBVWSo-50">
          <mxGeometry relative="1" as="geometry">
            <Array as="points">
              <mxPoint x="590" y="-1265" />
              <mxPoint x="590" y="-1140" />
            </Array>
          </mxGeometry>
        </mxCell>
        <mxCell id="NeaglDlFWtQ8QKgBVWSo-48" value="Call TO" style="rounded=1;whiteSpace=wrap;html=1;fontSize=22;" vertex="1" parent="1">
          <mxGeometry x="390" y="-1295" width="120" height="60" as="geometry" />
        </mxCell>
        <mxCell id="NeaglDlFWtQ8QKgBVWSo-54" value="" style="edgeStyle=orthogonalEdgeStyle;rounded=0;orthogonalLoop=1;jettySize=auto;html=1;fontSize=22;" edge="1" parent="1" source="NeaglDlFWtQ8QKgBVWSo-50" target="NeaglDlFWtQ8QKgBVWSo-53">
          <mxGeometry relative="1" as="geometry" />
        </mxCell>
        <mxCell id="NeaglDlFWtQ8QKgBVWSo-50" value="Acknowledge &amp;amp; Site Investigation" style="rounded=1;whiteSpace=wrap;html=1;fontSize=22;" vertex="1" parent="1">
          <mxGeometry x="630" y="-1180" width="200" height="60" as="geometry" />
        </mxCell>
        <mxCell id="NeaglDlFWtQ8QKgBVWSo-53" value="Call SP &amp;amp; Inform User" style="rounded=1;whiteSpace=wrap;html=1;fontSize=22;" vertex="1" parent="1">
          <mxGeometry x="890" y="-1180" width="200" height="60" as="geometry" />
        </mxCell>
        <mxCell id="NeaglDlFWtQ8QKgBVWSo-55" value="Call SP &amp;amp; Inform User" style="rounded=1;whiteSpace=wrap;html=1;fontSize=22;" vertex="1" parent="1">
          <mxGeometry x="1070" y="-950" width="200" height="60" as="geometry" />
        </mxCell>
      </root>
    </mxGraphModel>
  </diagram>
</mxfile>
